<?xml version="1.0" encoding="UTF-8" standalone="no"?><!DOCTYPE svg PUBLIC "-//W3C//DTD SVG 1.1//EN" "http://www.w3.org/Graphics/SVG/1.1/DTD/svg11.dtd"><svg width="100%" height="100%" viewBox="0 0 1500 100" version="1.1" xmlns="http://www.w3.org/2000/svg" xmlns:xlink="http://www.w3.org/1999/xlink" xml:space="preserve" xmlns:serif="http://www.serif.com/" style="fill-rule:evenodd;clip-rule:evenodd;stroke-linejoin:round;stroke-miterlimit:2;"><g><path d="M118.695,47.076c0.668,-1.219 1.558,-2.191 2.672,-2.918c1.113,-0.726 2.384,-1.096 3.814,-1.107c1.043,0 1.966,0.161 2.769,0.483c0.802,0.322 1.476,0.791 2.021,1.406c0.545,0.616 0.961,1.372 1.248,2.268c0.287,0.896 0.431,1.919 0.431,3.067l0,12.147l-2.11,0l0,-12.147c0,-0.843 -0.099,-1.599 -0.298,-2.267c-0.2,-0.668 -0.501,-1.234 -0.906,-1.696c-0.404,-0.463 -0.911,-0.818 -1.52,-1.064c-0.61,-0.246 -1.324,-0.369 -2.145,-0.369c-0.668,0 -1.306,0.105 -1.916,0.316c-0.609,0.211 -1.172,0.504 -1.687,0.879c-0.516,0.375 -0.976,0.818 -1.38,1.327c-0.404,0.51 -0.736,1.07 -0.993,1.679l0,13.342l-2.11,0l0,-27l2.11,0l0,11.654Z" style="fill-rule:nonzero;"/><path d="M145.202,38.533l0,4.869l7.049,0l0,1.723l-7.049,0l0,11.971c0.012,0.738 0.126,1.35 0.343,1.837c0.217,0.486 0.51,0.879 0.879,1.177c0.369,0.299 0.803,0.513 1.301,0.642c0.498,0.129 1.04,0.193 1.626,0.193c0.586,0 1.186,-0.041 1.802,-0.123c0.615,-0.082 1.139,-0.164 1.573,-0.246l0.316,1.6c-0.504,0.199 -1.119,0.348 -1.845,0.448c-0.727,0.1 -1.465,0.149 -2.215,0.149c-0.844,0 -1.623,-0.102 -2.338,-0.307c-0.715,-0.205 -1.336,-0.533 -1.863,-0.985c-0.528,-0.451 -0.944,-1.037 -1.248,-1.757c-0.305,-0.721 -0.463,-1.603 -0.475,-2.646l0,-11.953l-5.291,0l0,-1.723l5.291,0l0,-4.869l2.144,0Z" style="fill-rule:nonzero;"/><path d="M166.806,38.533l0,4.869l7.049,0l0,1.723l-7.049,0l0,11.971c0.012,0.738 0.126,1.35 0.343,1.837c0.217,0.486 0.51,0.879 0.879,1.177c0.369,0.299 0.802,0.513 1.3,0.642c0.498,0.129 1.04,0.193 1.626,0.193c0.586,0 1.187,-0.041 1.802,-0.123c0.615,-0.082 1.14,-0.164 1.573,-0.246l0.317,1.6c-0.504,0.199 -1.119,0.348 -1.846,0.448c-0.726,0.1 -1.465,0.149 -2.215,0.149c-0.843,0 -1.623,-0.102 -2.338,-0.307c-0.714,-0.205 -1.336,-0.533 -1.863,-0.985c-0.527,-0.451 -0.943,-1.037 -1.248,-1.757c-0.305,-0.721 -0.463,-1.603 -0.475,-2.646l0,-11.953l-5.291,0l0,-1.723l5.291,0l0,-4.869l2.145,0Z" style="fill-rule:nonzero;"/><path d="M196.777,53.105c0,1.231 -0.15,2.429 -0.449,3.595c-0.298,1.166 -0.755,2.197 -1.371,3.094c-0.615,0.896 -1.391,1.617 -2.329,2.162c-0.937,0.545 -2.051,0.817 -3.34,0.817c-1.183,0 -2.267,-0.228 -3.252,-0.685c-0.984,-0.457 -1.81,-1.119 -2.478,-1.986l0,9.632l-2.109,0l0,-26.332l1.968,0l0.088,2.602c0.668,-0.938 1.488,-1.664 2.461,-2.18c0.973,-0.515 2.068,-0.773 3.287,-0.773c1.301,0 2.426,0.266 3.375,0.8c0.949,0.533 1.729,1.248 2.338,2.144c0.61,0.897 1.064,1.928 1.362,3.094c0.299,1.166 0.449,2.382 0.449,3.647l0,0.369Zm-2.11,-0.369c0,-0.949 -0.105,-1.892 -0.316,-2.83c-0.211,-0.937 -0.551,-1.778 -1.02,-2.522c-0.468,-0.744 -1.075,-1.348 -1.819,-1.811c-0.744,-0.463 -1.655,-0.694 -2.733,-0.694c-0.61,0 -1.181,0.085 -1.714,0.255c-0.533,0.17 -1.02,0.41 -1.459,0.72c-0.44,0.311 -0.832,0.68 -1.178,1.108c-0.346,0.428 -0.636,0.899 -0.87,1.415l0,9.422c0.492,0.984 1.195,1.764 2.109,2.338c0.914,0.574 1.963,0.861 3.147,0.861c1.066,0 1.971,-0.234 2.716,-0.703c0.744,-0.469 1.347,-1.075 1.81,-1.819c0.463,-0.745 0.8,-1.588 1.011,-2.532c0.211,-0.943 0.316,-1.889 0.316,-2.839l0,-0.369Z" style="fill-rule:nonzero;"/><path d="M210.083,60.928c0,-0.492 0.161,-0.911 0.484,-1.257c0.322,-0.346 0.759,-0.519 1.309,-0.519c0.563,0 1.005,0.173 1.327,0.519c0.323,0.346 0.484,0.765 0.484,1.257c0,0.492 -0.161,0.899 -0.484,1.221c-0.322,0.323 -0.764,0.484 -1.327,0.484c-0.55,0 -0.987,-0.161 -1.309,-0.484c-0.323,-0.322 -0.484,-0.729 -0.484,-1.221Zm0,-15.399c0,-0.492 0.161,-0.911 0.484,-1.257c0.322,-0.345 0.759,-0.518 1.309,-0.518c0.563,0 1.005,0.173 1.327,0.518c0.323,0.346 0.484,0.765 0.484,1.257c0,0.492 -0.161,0.9 -0.484,1.222c-0.322,0.322 -0.764,0.483 -1.327,0.483c-0.55,0 -0.987,-0.161 -1.309,-0.483c-0.323,-0.322 -0.484,-0.73 -0.484,-1.222Z" style="fill-rule:nonzero;"/><path d="M228.083,64.619l-1.968,0l10.687,-27.791l1.969,0l-10.688,27.791Z" style="fill-rule:nonzero;"/><path d="M249.687,64.619l-1.969,0l10.688,-27.791l1.968,0l-10.687,27.791Z" style="fill-rule:nonzero;"/><path d="M269.568,43.402l0.105,2.004c0.375,-0.738 0.879,-1.315 1.512,-1.731c0.633,-0.416 1.394,-0.624 2.285,-0.624c0.809,0 1.48,0.161 2.013,0.483c0.533,0.322 0.934,0.823 1.204,1.503c0.375,-0.609 0.855,-1.093 1.441,-1.45c0.586,-0.358 1.295,-0.536 2.127,-0.536c0.621,0 1.193,0.102 1.714,0.307c0.522,0.205 0.967,0.531 1.336,0.976c0.369,0.445 0.656,1.014 0.861,1.705c0.205,0.691 0.308,1.524 0.308,2.496l0,13.887l-3.902,0l0,-13.922c0,-0.762 -0.162,-1.286 -0.484,-1.573c-0.322,-0.287 -0.735,-0.431 -1.239,-0.431c-0.481,0 -0.861,0.114 -1.143,0.343c-0.281,0.228 -0.486,0.53 -0.615,0.905l0,14.678l-3.814,0l0,-13.922c0,-0.738 -0.15,-1.257 -0.449,-1.556c-0.298,-0.298 -0.706,-0.448 -1.221,-0.448c-0.492,0 -0.879,0.106 -1.16,0.316c-0.282,0.211 -0.498,0.499 -0.651,0.862l0,14.748l-3.902,0l0,-19.02l3.674,0Z" style="fill:#006408;fill-rule:nonzero;"/><path d="M289.659,43.402l10.143,0l0,15.539l5.643,0l0,3.481l-15.786,0l0,-3.481l5.907,0l0,-12.041l-5.907,0l0,-3.498Zm5.555,-4.922c0,-0.656 0.211,-1.198 0.633,-1.626c0.422,-0.427 1.014,-0.641 1.775,-0.641c0.774,0 1.374,0.214 1.802,0.641c0.428,0.428 0.642,0.97 0.642,1.626c0,0.657 -0.214,1.199 -0.642,1.626c-0.428,0.428 -1.028,0.642 -1.802,0.642c-0.761,0 -1.353,-0.214 -1.775,-0.642c-0.422,-0.427 -0.633,-0.969 -0.633,-1.626Z" style="fill:#006408;fill-rule:nonzero;"/><path d="M314.146,43.402l0.263,2.637c0.692,-0.949 1.527,-1.685 2.505,-2.206c0.979,-0.521 2.066,-0.782 3.261,-0.782c0.973,0 1.86,0.14 2.663,0.422c0.803,0.281 1.494,0.72 2.074,1.318c0.581,0.598 1.032,1.371 1.354,2.32c0.322,0.95 0.483,2.092 0.483,3.428l0,11.883l-4.201,0l0,-11.813c0,-0.785 -0.091,-1.441 -0.272,-1.968c-0.182,-0.528 -0.44,-0.95 -0.774,-1.266c-0.334,-0.316 -0.741,-0.542 -1.221,-0.677c-0.481,-0.135 -1.026,-0.202 -1.635,-0.202c-0.926,0 -1.732,0.205 -2.417,0.615c-0.686,0.41 -1.239,0.967 -1.661,1.67l0,13.641l-4.219,0l0,-19.02l3.797,0Z" style="fill:#006408;fill-rule:nonzero;"/><path d="M336.154,46.039c0.656,-0.937 1.456,-1.67 2.399,-2.197c0.943,-0.528 1.995,-0.791 3.155,-0.791c0.985,0 1.89,0.146 2.716,0.439c0.826,0.293 1.532,0.747 2.118,1.363c0.586,0.615 1.043,1.406 1.371,2.373c0.329,0.966 0.493,2.124 0.493,3.471l0,11.725l-4.202,0l0,-11.76c0,-0.726 -0.09,-1.35 -0.272,-1.872c-0.182,-0.521 -0.439,-0.952 -0.773,-1.292c-0.334,-0.34 -0.742,-0.592 -1.222,-0.756c-0.481,-0.164 -1.026,-0.246 -1.635,-0.246c-0.914,0 -1.723,0.191 -2.426,0.571c-0.703,0.381 -1.277,0.894 -1.722,1.538l0,13.817l-4.202,0l0,-27l4.202,0l0,10.617Z" style="fill:#006408;fill-rule:nonzero;"/><path d="M365.685,62.422c-0.117,-0.235 -0.214,-0.51 -0.29,-0.826c-0.076,-0.317 -0.144,-0.657 -0.202,-1.02c-0.293,0.305 -0.624,0.589 -0.993,0.853c-0.37,0.263 -0.78,0.495 -1.231,0.694c-0.451,0.199 -0.937,0.357 -1.459,0.475c-0.521,0.117 -1.081,0.175 -1.679,0.175c-1.007,0 -1.919,-0.143 -2.733,-0.43c-0.814,-0.287 -1.512,-0.686 -2.092,-1.196c-0.58,-0.509 -1.028,-1.11 -1.345,-1.801c-0.316,-0.692 -0.474,-1.442 -0.474,-2.25c0,-2.039 0.759,-3.598 2.276,-4.676c1.518,-1.078 3.695,-1.617 6.53,-1.617l3.077,0l0,-1.248c0,-1.008 -0.34,-1.808 -1.02,-2.4c-0.68,-0.592 -1.641,-0.887 -2.883,-0.887c-0.562,0 -1.054,0.067 -1.476,0.202c-0.422,0.134 -0.774,0.319 -1.055,0.553c-0.281,0.235 -0.492,0.51 -0.633,0.827c-0.14,0.316 -0.211,0.656 -0.211,1.019l-4.201,0c0,-0.738 0.173,-1.456 0.519,-2.153c0.345,-0.697 0.852,-1.319 1.52,-1.863c0.668,-0.545 1.486,-0.982 2.452,-1.31c0.967,-0.328 2.072,-0.492 3.314,-0.492c1.125,0 2.168,0.137 3.129,0.413c0.961,0.275 1.793,0.685 2.496,1.23c0.703,0.545 1.254,1.225 1.652,2.039c0.399,0.815 0.598,1.767 0.598,2.857l0,8.473c0,0.832 0.061,1.59 0.184,2.276c0.123,0.685 0.302,1.28 0.537,1.784l0,0.299l-4.307,0Zm-5.063,-3.041c0.539,0 1.046,-0.068 1.521,-0.202c0.475,-0.135 0.902,-0.311 1.283,-0.528c0.381,-0.216 0.709,-0.465 0.984,-0.747c0.276,-0.281 0.496,-0.568 0.66,-0.861l0,-3.568l-2.672,0c-1.711,0 -2.974,0.275 -3.788,0.826c-0.815,0.551 -1.222,1.336 -1.222,2.355c0,0.387 0.064,0.747 0.193,1.081c0.129,0.334 0.326,0.621 0.589,0.862c0.264,0.24 0.598,0.43 1.002,0.571c0.404,0.141 0.888,0.211 1.45,0.211Z" style="fill:#006408;fill-rule:nonzero;"/><rect x="376.812" y="49.502" width="14.08" height="3.393" style="fill:#006408;fill-rule:nonzero;"/><path d="M408.892,62.422c-0.117,-0.235 -0.214,-0.51 -0.29,-0.826c-0.076,-0.317 -0.144,-0.657 -0.202,-1.02c-0.293,0.305 -0.624,0.589 -0.993,0.853c-0.37,0.263 -0.78,0.495 -1.231,0.694c-0.451,0.199 -0.937,0.357 -1.459,0.475c-0.521,0.117 -1.081,0.175 -1.679,0.175c-1.007,0 -1.919,-0.143 -2.733,-0.43c-0.814,-0.287 -1.512,-0.686 -2.092,-1.196c-0.58,-0.509 -1.028,-1.11 -1.345,-1.801c-0.316,-0.692 -0.474,-1.442 -0.474,-2.25c0,-2.039 0.759,-3.598 2.276,-4.676c1.518,-1.078 3.695,-1.617 6.531,-1.617l3.076,0l0,-1.248c0,-1.008 -0.34,-1.808 -1.02,-2.4c-0.68,-0.592 -1.64,-0.887 -2.883,-0.887c-0.562,0 -1.054,0.067 -1.476,0.202c-0.422,0.134 -0.774,0.319 -1.055,0.553c-0.281,0.235 -0.492,0.51 -0.633,0.827c-0.14,0.316 -0.211,0.656 -0.211,1.019l-4.201,0c0,-0.738 0.173,-1.456 0.519,-2.153c0.345,-0.697 0.852,-1.319 1.52,-1.863c0.668,-0.545 1.486,-0.982 2.452,-1.31c0.967,-0.328 2.072,-0.492 3.314,-0.492c1.125,0 2.168,0.137 3.129,0.413c0.961,0.275 1.793,0.685 2.496,1.23c0.703,0.545 1.254,1.225 1.652,2.039c0.399,0.815 0.598,1.767 0.598,2.857l0,8.473c0,0.832 0.061,1.59 0.184,2.276c0.123,0.685 0.302,1.28 0.537,1.784l0,0.299l-4.307,0Zm-5.063,-3.041c0.539,0 1.046,-0.068 1.521,-0.202c0.475,-0.135 0.902,-0.311 1.283,-0.528c0.381,-0.216 0.709,-0.465 0.984,-0.747c0.276,-0.281 0.496,-0.568 0.66,-0.861l0,-3.568l-2.672,0c-1.711,0 -2.974,0.275 -3.788,0.826c-0.815,0.551 -1.222,1.336 -1.222,2.355c0,0.387 0.064,0.747 0.193,1.081c0.129,0.334 0.326,0.621 0.589,0.862c0.264,0.24 0.598,0.43 1.002,0.571c0.405,0.141 0.888,0.211 1.45,0.211Z" style="fill:#006408;fill-rule:nonzero;"/><path d="M435.013,53.105c0,1.383 -0.164,2.666 -0.492,3.85c-0.328,1.184 -0.809,2.206 -1.442,3.067c-0.632,0.862 -1.409,1.536 -2.329,2.022c-0.92,0.486 -1.977,0.729 -3.173,0.729c-1.078,0 -2.03,-0.175 -2.856,-0.527c-0.826,-0.351 -1.538,-0.855 -2.136,-1.512l0,9l-4.201,0l0,-26.332l3.867,0l0.176,1.916c0.609,-0.726 1.333,-1.286 2.171,-1.678c0.838,-0.393 1.813,-0.589 2.927,-0.589c1.207,0 2.276,0.234 3.208,0.703c0.931,0.469 1.714,1.128 2.346,1.977c0.633,0.85 1.114,1.87 1.442,3.059c0.328,1.189 0.492,2.505 0.492,3.946l0,0.369Zm-4.201,-0.369c0,-0.855 -0.088,-1.661 -0.264,-2.417c-0.176,-0.756 -0.445,-1.418 -0.808,-1.986c-0.364,-0.568 -0.827,-1.017 -1.389,-1.345c-0.563,-0.328 -1.231,-0.492 -2.004,-0.492c-0.938,0 -1.711,0.199 -2.32,0.598c-0.61,0.398 -1.09,0.931 -1.442,1.599l0,8.508c0.352,0.656 0.829,1.19 1.433,1.6c0.603,0.41 1.391,0.615 2.364,0.615c0.774,0 1.442,-0.17 2.004,-0.51c0.563,-0.34 1.023,-0.797 1.38,-1.371c0.357,-0.574 0.621,-1.242 0.791,-2.004c0.17,-0.761 0.255,-1.57 0.255,-2.426l0,-0.369Z" style="fill:#006408;fill-rule:nonzero;"/><path d="M456.617,53.105c0,1.383 -0.165,2.666 -0.493,3.85c-0.328,1.184 -0.808,2.206 -1.441,3.067c-0.633,0.862 -1.409,1.536 -2.329,2.022c-0.92,0.486 -1.978,0.729 -3.173,0.729c-1.078,0 -2.03,-0.175 -2.856,-0.527c-0.827,-0.351 -1.539,-0.855 -2.136,-1.512l0,9l-4.201,0l0,-26.332l3.867,0l0.176,1.916c0.609,-0.726 1.333,-1.286 2.17,-1.678c0.838,-0.393 1.814,-0.589 2.927,-0.589c1.207,0 2.277,0.234 3.208,0.703c0.932,0.469 1.714,1.128 2.347,1.977c0.633,0.85 1.113,1.87 1.441,3.059c0.328,1.189 0.493,2.505 0.493,3.946l0,0.369Zm-4.202,-0.369c0,-0.855 -0.088,-1.661 -0.263,-2.417c-0.176,-0.756 -0.446,-1.418 -0.809,-1.986c-0.363,-0.568 -0.826,-1.017 -1.389,-1.345c-0.562,-0.328 -1.23,-0.492 -2.003,-0.492c-0.938,0 -1.711,0.199 -2.321,0.598c-0.609,0.398 -1.09,0.931 -1.441,1.599l0,8.508c0.351,0.656 0.829,1.19 1.432,1.6c0.604,0.41 1.392,0.615 2.365,0.615c0.773,0 1.441,-0.17 2.004,-0.51c0.562,-0.34 1.022,-0.797 1.379,-1.371c0.358,-0.574 0.622,-1.242 0.791,-2.004c0.17,-0.761 0.255,-1.57 0.255,-2.426l0,-0.369Z" style="fill:#006408;fill-rule:nonzero;"/><rect x="463.226" y="49.502" width="14.08" height="3.393" style="fill:#006408;fill-rule:nonzero;"/><path d="M495.57,57.271c0,-0.316 -0.065,-0.606 -0.194,-0.87c-0.129,-0.263 -0.36,-0.504 -0.694,-0.72c-0.334,-0.217 -0.791,-0.419 -1.371,-0.607c-0.58,-0.187 -1.321,-0.369 -2.224,-0.545c-1.125,-0.234 -2.141,-0.515 -3.05,-0.843c-0.908,-0.329 -1.687,-0.721 -2.337,-1.178c-0.651,-0.457 -1.152,-0.987 -1.503,-1.591c-0.352,-0.604 -0.528,-1.304 -0.528,-2.101c0,-0.773 0.182,-1.508 0.545,-2.206c0.363,-0.697 0.882,-1.309 1.556,-1.837c0.674,-0.527 1.494,-0.946 2.461,-1.256c0.967,-0.311 2.048,-0.466 3.243,-0.466c1.266,0 2.399,0.158 3.401,0.474c1.002,0.317 1.849,0.747 2.54,1.292c0.692,0.545 1.222,1.187 1.591,1.925c0.369,0.738 0.554,1.529 0.554,2.373l-4.201,0c0,-0.375 -0.082,-0.735 -0.246,-1.081c-0.164,-0.346 -0.411,-0.653 -0.739,-0.923c-0.328,-0.269 -0.735,-0.483 -1.221,-0.641c-0.487,-0.158 -1.046,-0.238 -1.679,-0.238c-0.633,0 -1.181,0.068 -1.644,0.203c-0.462,0.134 -0.846,0.31 -1.151,0.527c-0.305,0.217 -0.53,0.472 -0.677,0.765c-0.146,0.293 -0.219,0.597 -0.219,0.914c0,0.316 0.055,0.603 0.167,0.861c0.111,0.258 0.319,0.492 0.624,0.703c0.304,0.211 0.726,0.401 1.265,0.571c0.539,0.17 1.237,0.331 2.092,0.484c1.195,0.211 2.27,0.474 3.226,0.791c0.955,0.316 1.769,0.703 2.443,1.16c0.674,0.457 1.192,0.999 1.556,1.626c0.363,0.627 0.545,1.362 0.545,2.206c0,0.844 -0.194,1.617 -0.581,2.32c-0.386,0.703 -0.937,1.31 -1.652,1.82c-0.715,0.509 -1.573,0.905 -2.575,1.186c-1.002,0.281 -2.124,0.422 -3.366,0.422c-1.383,0 -2.602,-0.185 -3.657,-0.554c-1.054,-0.369 -1.939,-0.852 -2.654,-1.45c-0.715,-0.598 -1.257,-1.277 -1.626,-2.039c-0.369,-0.762 -0.554,-1.535 -0.554,-2.32l4.079,0c0.035,0.586 0.187,1.084 0.457,1.494c0.269,0.41 0.615,0.741 1.037,0.993c0.422,0.252 0.89,0.434 1.406,0.545c0.516,0.111 1.037,0.167 1.564,0.167c1.301,0 2.291,-0.22 2.971,-0.659c0.68,-0.44 1.02,-1.005 1.02,-1.697Z" style="fill:#006408;fill-rule:nonzero;"/><path d="M516.98,59.82c-0.645,0.938 -1.427,1.667 -2.347,2.189c-0.92,0.521 -1.948,0.782 -3.085,0.782c-0.984,0 -1.884,-0.152 -2.698,-0.457c-0.815,-0.305 -1.512,-0.788 -2.092,-1.45c-0.58,-0.662 -1.031,-1.506 -1.353,-2.531c-0.323,-1.026 -0.484,-2.259 -0.484,-3.701l0,-11.25l4.201,0l0,11.286c0,0.914 0.068,1.669 0.203,2.267c0.134,0.598 0.342,1.072 0.624,1.424c0.281,0.351 0.632,0.6 1.054,0.747c0.422,0.146 0.926,0.22 1.512,0.22c1.125,0 2.033,-0.22 2.725,-0.659c0.691,-0.44 1.212,-1.035 1.564,-1.785l0,-13.5l4.219,0l0,19.02l-3.797,0l-0.246,-2.602Z" style="fill:#006408;fill-rule:nonzero;"/><path d="M543.101,53.123c0,1.406 -0.161,2.698 -0.483,3.876c-0.323,1.178 -0.8,2.194 -1.433,3.05c-0.633,0.855 -1.412,1.523 -2.338,2.004c-0.926,0.48 -1.992,0.72 -3.199,0.72c-1.16,0 -2.165,-0.205 -3.015,-0.615c-0.849,-0.41 -1.579,-1.002 -2.188,-1.775l-0.194,2.039l-3.814,0l0,-27l4.201,0l0,9.791c0.598,-0.692 1.301,-1.225 2.109,-1.6c0.809,-0.375 1.764,-0.562 2.866,-0.562c1.218,0 2.294,0.237 3.225,0.712c0.932,0.474 1.714,1.139 2.347,1.995c0.633,0.855 1.11,1.878 1.432,3.067c0.323,1.19 0.484,2.499 0.484,3.929l0,0.369Zm-4.201,-0.369c0,-0.844 -0.074,-1.644 -0.22,-2.4c-0.146,-0.755 -0.387,-1.42 -0.721,-1.995c-0.334,-0.574 -0.782,-1.028 -1.344,-1.362c-0.563,-0.334 -1.254,-0.501 -2.075,-0.501c-0.996,0 -1.81,0.229 -2.443,0.686c-0.633,0.457 -1.119,1.054 -1.459,1.793l0,7.857c0.34,0.738 0.829,1.342 1.468,1.811c0.638,0.468 1.462,0.703 2.47,0.703c0.796,0 1.47,-0.161 2.021,-0.484c0.551,-0.322 0.996,-0.764 1.336,-1.327c0.34,-0.562 0.586,-1.222 0.738,-1.977c0.153,-0.756 0.229,-1.568 0.229,-2.435l0,-0.369Z" style="fill:#006408;fill-rule:nonzero;"/><rect x="549.64" y="49.502" width="14.08" height="3.393" style="fill:#006408;fill-rule:nonzero;"/><path d="M581.984,57.271c0,-0.316 -0.065,-0.606 -0.194,-0.87c-0.129,-0.263 -0.36,-0.504 -0.694,-0.72c-0.334,-0.217 -0.791,-0.419 -1.371,-0.607c-0.58,-0.187 -1.321,-0.369 -2.224,-0.545c-1.125,-0.234 -2.141,-0.515 -3.05,-0.843c-0.908,-0.329 -1.687,-0.721 -2.337,-1.178c-0.651,-0.457 -1.152,-0.987 -1.503,-1.591c-0.352,-0.604 -0.528,-1.304 -0.528,-2.101c0,-0.773 0.182,-1.508 0.545,-2.206c0.364,-0.697 0.882,-1.309 1.556,-1.837c0.674,-0.527 1.494,-0.946 2.461,-1.256c0.967,-0.311 2.048,-0.466 3.243,-0.466c1.266,0 2.399,0.158 3.401,0.474c1.002,0.317 1.849,0.747 2.54,1.292c0.692,0.545 1.222,1.187 1.591,1.925c0.369,0.738 0.554,1.529 0.554,2.373l-4.201,0c0,-0.375 -0.082,-0.735 -0.246,-1.081c-0.164,-0.346 -0.41,-0.653 -0.739,-0.923c-0.328,-0.269 -0.735,-0.483 -1.221,-0.641c-0.487,-0.158 -1.046,-0.238 -1.679,-0.238c-0.633,0 -1.181,0.068 -1.644,0.203c-0.462,0.134 -0.846,0.31 -1.151,0.527c-0.305,0.217 -0.53,0.472 -0.677,0.765c-0.146,0.293 -0.219,0.597 -0.219,0.914c0,0.316 0.055,0.603 0.167,0.861c0.111,0.258 0.319,0.492 0.624,0.703c0.304,0.211 0.726,0.401 1.265,0.571c0.539,0.17 1.237,0.331 2.092,0.484c1.195,0.211 2.271,0.474 3.226,0.791c0.955,0.316 1.769,0.703 2.443,1.16c0.674,0.457 1.192,0.999 1.556,1.626c0.363,0.627 0.545,1.362 0.545,2.206c0,0.844 -0.194,1.617 -0.581,2.32c-0.386,0.703 -0.937,1.31 -1.652,1.82c-0.715,0.509 -1.573,0.905 -2.575,1.186c-1.002,0.281 -2.124,0.422 -3.366,0.422c-1.383,0 -2.602,-0.185 -3.657,-0.554c-1.054,-0.369 -1.939,-0.852 -2.654,-1.45c-0.715,-0.598 -1.257,-1.277 -1.626,-2.039c-0.369,-0.762 -0.553,-1.535 -0.553,-2.32l4.078,0c0.035,0.586 0.187,1.084 0.457,1.494c0.269,0.41 0.615,0.741 1.037,0.993c0.422,0.252 0.89,0.434 1.406,0.545c0.516,0.111 1.037,0.167 1.564,0.167c1.301,0 2.291,-0.22 2.971,-0.659c0.68,-0.44 1.02,-1.005 1.02,-1.697Z" style="fill:#006408;fill-rule:nonzero;"/><path d="M603.394,59.82c-0.645,0.938 -1.427,1.667 -2.347,2.189c-0.92,0.521 -1.948,0.782 -3.085,0.782c-0.984,0 -1.884,-0.152 -2.698,-0.457c-0.814,-0.305 -1.512,-0.788 -2.092,-1.45c-0.58,-0.662 -1.031,-1.506 -1.353,-2.531c-0.323,-1.026 -0.484,-2.259 -0.484,-3.701l0,-11.25l4.201,0l0,11.286c0,0.914 0.068,1.669 0.203,2.267c0.134,0.598 0.342,1.072 0.624,1.424c0.281,0.351 0.632,0.6 1.054,0.747c0.422,0.146 0.926,0.22 1.512,0.22c1.125,0 2.033,-0.22 2.725,-0.659c0.691,-0.44 1.213,-1.035 1.564,-1.785l0,-13.5l4.219,0l0,19.02l-3.797,0l-0.246,-2.602Z" style="fill:#006408;fill-rule:nonzero;"/><path d="M629.515,53.123c0,1.406 -0.161,2.698 -0.483,3.876c-0.323,1.178 -0.8,2.194 -1.433,3.05c-0.633,0.855 -1.412,1.523 -2.338,2.004c-0.926,0.48 -1.992,0.72 -3.199,0.72c-1.16,0 -2.165,-0.205 -3.015,-0.615c-0.849,-0.41 -1.579,-1.002 -2.188,-1.775l-0.194,2.039l-3.814,0l0,-27l4.201,0l0,9.791c0.598,-0.692 1.301,-1.225 2.109,-1.6c0.809,-0.375 1.764,-0.562 2.866,-0.562c1.218,0 2.294,0.237 3.225,0.712c0.932,0.474 1.714,1.139 2.347,1.995c0.633,0.855 1.11,1.878 1.433,3.067c0.322,1.19 0.483,2.499 0.483,3.929l0,0.369Zm-4.201,-0.369c0,-0.844 -0.073,-1.644 -0.22,-2.4c-0.146,-0.755 -0.387,-1.42 -0.721,-1.995c-0.334,-0.574 -0.782,-1.028 -1.344,-1.362c-0.563,-0.334 -1.254,-0.501 -2.075,-0.501c-0.996,0 -1.81,0.229 -2.443,0.686c-0.633,0.457 -1.119,1.054 -1.459,1.793l0,7.857c0.34,0.738 0.829,1.342 1.468,1.811c0.639,0.468 1.462,0.703 2.47,0.703c0.796,0 1.47,-0.161 2.021,-0.484c0.551,-0.322 0.996,-0.764 1.336,-1.327c0.34,-0.562 0.586,-1.222 0.738,-1.977c0.153,-0.756 0.229,-1.568 0.229,-2.435l0,-0.369Z" style="fill:#006408;fill-rule:nonzero;"/><path d="M633.839,52.771c0,-1.441 0.176,-2.759 0.528,-3.955c0.351,-1.195 0.855,-2.22 1.511,-3.076c0.656,-0.855 1.45,-1.517 2.382,-1.986c0.932,-0.469 1.978,-0.703 3.138,-0.703c1.043,0 1.963,0.178 2.76,0.536c0.796,0.357 1.494,0.87 2.091,1.538l0,-9.703l4.219,0l0,27l-3.814,0l-0.211,-1.934c-0.598,0.739 -1.316,1.304 -2.154,1.697c-0.838,0.392 -1.813,0.588 -2.926,0.588c-1.149,0 -2.186,-0.243 -3.112,-0.729c-0.925,-0.486 -1.714,-1.157 -2.364,-2.013c-0.65,-0.855 -1.154,-1.872 -1.512,-3.05c-0.357,-1.177 -0.536,-2.458 -0.536,-3.84l0,-0.37Zm4.201,0.37c0,0.855 0.082,1.658 0.246,2.408c0.165,0.75 0.425,1.406 0.783,1.969c0.357,0.562 0.814,1.004 1.371,1.327c0.556,0.322 1.221,0.483 1.995,0.483c0.961,0 1.746,-0.208 2.355,-0.624c0.61,-0.416 1.096,-0.975 1.459,-1.679l0,-8.261c-0.363,-0.692 -0.852,-1.243 -1.467,-1.653c-0.616,-0.41 -1.386,-0.615 -2.312,-0.615c-0.785,0 -1.456,0.164 -2.013,0.492c-0.556,0.328 -1.013,0.78 -1.371,1.354c-0.357,0.574 -0.621,1.242 -0.791,2.004c-0.17,0.761 -0.255,1.57 -0.255,2.425l0,0.37Z" style="fill:#006408;fill-rule:nonzero;"/><path d="M655.232,52.736c0,-1.371 0.202,-2.648 0.606,-3.832c0.405,-1.183 0.985,-2.209 1.74,-3.076c0.756,-0.867 1.679,-1.547 2.769,-2.039c1.09,-0.492 2.326,-0.738 3.709,-0.738c1.395,0 2.64,0.246 3.735,0.738c1.096,0.492 2.022,1.172 2.778,2.039c0.756,0.867 1.333,1.893 1.731,3.076c0.399,1.184 0.598,2.461 0.598,3.832l0,0.369c0,1.383 -0.199,2.666 -0.598,3.85c-0.398,1.184 -0.975,2.206 -1.731,3.067c-0.756,0.862 -1.679,1.539 -2.769,2.031c-1.09,0.492 -2.326,0.738 -3.709,0.738c-1.394,0 -2.64,-0.246 -3.735,-0.738c-1.096,-0.492 -2.022,-1.169 -2.778,-2.031c-0.755,-0.861 -1.335,-1.883 -1.74,-3.067c-0.404,-1.184 -0.606,-2.467 -0.606,-3.85l0,-0.369Zm4.201,0.369c0,0.868 0.091,1.682 0.272,2.444c0.182,0.762 0.463,1.432 0.844,2.013c0.381,0.58 0.864,1.037 1.45,1.371c0.586,0.334 1.284,0.501 2.092,0.501c0.785,0 1.468,-0.167 2.048,-0.501c0.58,-0.334 1.061,-0.791 1.441,-1.371c0.381,-0.581 0.662,-1.251 0.844,-2.013c0.182,-0.762 0.273,-1.576 0.273,-2.444l0,-0.369c0,-0.843 -0.091,-1.646 -0.273,-2.408c-0.182,-0.762 -0.463,-1.43 -0.844,-2.004c-0.38,-0.574 -0.861,-1.031 -1.441,-1.371c-0.58,-0.34 -1.274,-0.51 -2.083,-0.51c-0.797,0 -1.488,0.17 -2.074,0.51c-0.586,0.34 -1.067,0.797 -1.442,1.371c-0.375,0.574 -0.653,1.242 -0.835,2.004c-0.181,0.762 -0.272,1.565 -0.272,2.408l0,0.369Z" style="fill:#006408;fill-rule:nonzero;"/><path d="M680.034,43.402l0.106,2.004c0.375,-0.738 0.879,-1.315 1.512,-1.731c0.632,-0.416 1.394,-0.624 2.285,-0.624c0.808,0 1.479,0.161 2.013,0.483c0.533,0.322 0.934,0.823 1.204,1.503c0.375,-0.609 0.855,-1.093 1.441,-1.45c0.586,-0.358 1.295,-0.536 2.127,-0.536c0.621,0 1.192,0.102 1.714,0.307c0.521,0.205 0.967,0.531 1.336,0.976c0.369,0.445 0.656,1.014 0.861,1.705c0.205,0.691 0.308,1.524 0.308,2.496l0,13.887l-3.903,0l0,-13.922c0,-0.762 -0.161,-1.286 -0.483,-1.573c-0.322,-0.287 -0.735,-0.431 -1.239,-0.431c-0.481,0 -0.862,0.114 -1.143,0.343c-0.281,0.228 -0.486,0.53 -0.615,0.905l0,14.678l-3.815,0l0,-13.922c0,-0.738 -0.149,-1.257 -0.448,-1.556c-0.299,-0.298 -0.706,-0.448 -1.221,-0.448c-0.493,0 -0.879,0.106 -1.161,0.316c-0.281,0.211 -0.498,0.499 -0.65,0.862l0,14.748l-3.902,0l0,-19.02l3.673,0Z" style="fill:#006408;fill-rule:nonzero;"/><path d="M700.126,43.402l10.143,0l0,15.539l5.642,0l0,3.481l-15.785,0l0,-3.481l5.907,0l0,-12.041l-5.907,0l0,-3.498Zm5.555,-4.922c0,-0.656 0.211,-1.198 0.633,-1.626c0.422,-0.427 1.013,-0.641 1.775,-0.641c0.774,0 1.374,0.214 1.802,0.641c0.428,0.428 0.642,0.97 0.642,1.626c0,0.657 -0.214,1.199 -0.642,1.626c-0.428,0.428 -1.028,0.642 -1.802,0.642c-0.762,0 -1.353,-0.214 -1.775,-0.642c-0.422,-0.427 -0.633,-0.969 -0.633,-1.626Z" style="fill:#006408;fill-rule:nonzero;"/><path d="M724.613,43.402l0.263,2.637c0.692,-0.949 1.527,-1.685 2.505,-2.206c0.979,-0.521 2.066,-0.782 3.261,-0.782c0.973,0 1.86,0.14 2.663,0.422c0.803,0.281 1.494,0.72 2.074,1.318c0.58,0.598 1.031,1.371 1.354,2.32c0.322,0.95 0.483,2.092 0.483,3.428l0,11.883l-4.201,0l0,-11.813c0,-0.785 -0.091,-1.441 -0.272,-1.968c-0.182,-0.528 -0.44,-0.95 -0.774,-1.266c-0.334,-0.316 -0.741,-0.542 -1.222,-0.677c-0.48,-0.135 -1.025,-0.202 -1.634,-0.202c-0.926,0 -1.732,0.205 -2.417,0.615c-0.686,0.41 -1.24,0.967 -1.662,1.67l0,13.641l-4.218,0l0,-19.02l3.797,0Z" style="fill:#006408;fill-rule:nonzero;"/><path d="M743.333,43.402l10.143,0l0,15.539l5.642,0l0,3.481l-15.785,0l0,-3.481l5.907,0l0,-12.041l-5.907,0l0,-3.498Zm5.555,-4.922c0,-0.656 0.211,-1.198 0.633,-1.626c0.422,-0.427 1.013,-0.641 1.775,-0.641c0.774,0 1.374,0.214 1.802,0.641c0.428,0.428 0.642,0.97 0.642,1.626c0,0.657 -0.214,1.199 -0.642,1.626c-0.428,0.428 -1.028,0.642 -1.802,0.642c-0.762,0 -1.353,-0.214 -1.775,-0.642c-0.422,-0.427 -0.633,-0.969 -0.633,-1.626Z" style="fill:#006408;fill-rule:nonzero;"/><path d="M763.249,52.736c0,-1.371 0.202,-2.648 0.607,-3.832c0.404,-1.183 0.984,-2.209 1.74,-3.076c0.756,-0.867 1.679,-1.547 2.769,-2.039c1.089,-0.492 2.326,-0.738 3.709,-0.738c1.394,0 2.639,0.246 3.735,0.738c1.096,0.492 2.021,1.172 2.777,2.039c0.756,0.867 1.333,1.893 1.732,3.076c0.398,1.184 0.597,2.461 0.597,3.832l0,0.369c0,1.383 -0.199,2.666 -0.597,3.85c-0.399,1.184 -0.976,2.206 -1.732,3.067c-0.756,0.862 -1.678,1.539 -2.768,2.031c-1.09,0.492 -2.326,0.738 -3.709,0.738c-1.395,0 -2.64,-0.246 -3.736,-0.738c-1.095,-0.492 -2.021,-1.169 -2.777,-2.031c-0.756,-0.861 -1.336,-1.883 -1.74,-3.067c-0.405,-1.184 -0.607,-2.467 -0.607,-3.85l0,-0.369Zm4.202,0.369c0,0.868 0.09,1.682 0.272,2.444c0.182,0.762 0.463,1.432 0.844,2.013c0.381,0.58 0.864,1.037 1.45,1.371c0.586,0.334 1.283,0.501 2.092,0.501c0.785,0 1.467,-0.167 2.048,-0.501c0.58,-0.334 1.06,-0.791 1.441,-1.371c0.381,-0.581 0.662,-1.251 0.844,-2.013c0.181,-0.762 0.272,-1.576 0.272,-2.444l0,-0.369c0,-0.843 -0.091,-1.646 -0.272,-2.408c-0.182,-0.762 -0.463,-1.43 -0.844,-2.004c-0.381,-0.574 -0.861,-1.031 -1.441,-1.371c-0.581,-0.34 -1.275,-0.51 -2.083,-0.51c-0.797,0 -1.489,0.17 -2.075,0.51c-0.586,0.34 -1.066,0.797 -1.441,1.371c-0.375,0.574 -0.653,1.242 -0.835,2.004c-0.182,0.762 -0.272,1.565 -0.272,2.408l0,0.369Z" style="fill:#006408;fill-rule:nonzero;"/><path d="M792.429,60.928c0,-0.492 0.161,-0.911 0.483,-1.257c0.323,-0.346 0.759,-0.519 1.31,-0.519c0.562,0 1.005,0.173 1.327,0.519c0.322,0.346 0.484,0.765 0.484,1.257c0,0.492 -0.162,0.899 -0.484,1.221c-0.322,0.323 -0.765,0.484 -1.327,0.484c-0.551,0 -0.987,-0.161 -1.31,-0.484c-0.322,-0.322 -0.483,-0.729 -0.483,-1.221Z" style="fill-rule:nonzero;"/><path d="M821.169,57.588c0,-0.586 -0.146,-1.096 -0.439,-1.529c-0.293,-0.434 -0.695,-0.806 -1.204,-1.117c-0.51,-0.31 -1.099,-0.571 -1.767,-0.782c-0.668,-0.211 -1.377,-0.392 -2.127,-0.545c-0.914,-0.187 -1.799,-0.413 -2.654,-0.677c-0.856,-0.263 -1.617,-0.6 -2.285,-1.01c-0.668,-0.41 -1.201,-0.911 -1.6,-1.503c-0.398,-0.592 -0.598,-1.321 -0.598,-2.189c0,-0.82 0.206,-1.552 0.616,-2.197c0.41,-0.644 0.949,-1.189 1.617,-1.635c0.668,-0.445 1.43,-0.782 2.285,-1.01c0.855,-0.229 1.734,-0.343 2.637,-0.343c1.031,0 1.995,0.126 2.891,0.378c0.897,0.252 1.682,0.621 2.356,1.107c0.674,0.486 1.21,1.081 1.608,1.784c0.399,0.703 0.615,1.506 0.651,2.409l-2.11,0c-0.023,-0.61 -0.187,-1.158 -0.492,-1.644c-0.305,-0.486 -0.709,-0.894 -1.213,-1.222c-0.504,-0.328 -1.075,-0.58 -1.714,-0.756c-0.638,-0.175 -1.298,-0.263 -1.977,-0.263c-0.633,0 -1.251,0.067 -1.855,0.202c-0.603,0.135 -1.142,0.34 -1.617,0.615c-0.475,0.276 -0.855,0.621 -1.143,1.037c-0.287,0.416 -0.43,0.906 -0.43,1.468c-0.012,0.598 0.126,1.099 0.413,1.503c0.287,0.404 0.677,0.744 1.169,1.019c0.492,0.276 1.069,0.504 1.731,0.686c0.662,0.182 1.368,0.349 2.118,0.501c0.961,0.199 1.878,0.442 2.751,0.729c0.873,0.288 1.644,0.645 2.312,1.073c0.668,0.427 1.195,0.952 1.582,1.573c0.387,0.621 0.58,1.365 0.58,2.232c0,0.891 -0.214,1.667 -0.642,2.33c-0.427,0.662 -0.99,1.212 -1.687,1.652c-0.697,0.439 -1.494,0.767 -2.391,0.984c-0.896,0.217 -1.819,0.325 -2.768,0.325c-1.067,0 -2.072,-0.128 -3.015,-0.386c-0.943,-0.258 -1.775,-0.63 -2.496,-1.116c-0.721,-0.487 -1.298,-1.082 -1.731,-1.785c-0.434,-0.703 -0.668,-1.5 -0.704,-2.39l2.11,0c0.07,0.75 0.296,1.377 0.677,1.881c0.38,0.503 0.849,0.905 1.406,1.204c0.556,0.298 1.163,0.509 1.819,0.632c0.656,0.124 1.301,0.185 1.934,0.185c0.644,0 1.286,-0.067 1.925,-0.202c0.638,-0.135 1.212,-0.34 1.722,-0.615c0.51,-0.276 0.926,-0.627 1.248,-1.055c0.323,-0.428 0.49,-0.94 0.501,-1.538Z" style="fill-rule:nonzero;"/><path d="M842.263,59.451c-0.633,1.043 -1.468,1.858 -2.505,2.444c-1.037,0.585 -2.265,0.878 -3.682,0.878c-1.055,0 -1.984,-0.169 -2.787,-0.509c-0.802,-0.34 -1.476,-0.838 -2.021,-1.494c-0.545,-0.657 -0.961,-1.459 -1.248,-2.409c-0.287,-0.949 -0.431,-2.033 -0.431,-3.252l0,-11.707l2.092,0l0,11.743c0.023,1.91 0.41,3.357 1.16,4.341c0.75,0.985 1.91,1.477 3.481,1.477c1.582,0 2.865,-0.363 3.849,-1.09c0.985,-0.727 1.67,-1.711 2.057,-2.953l-0.018,-13.518l2.127,0l0,19.02l-1.969,0l-0.105,-2.971Z" style="fill-rule:nonzero;"/><path d="M866.556,53.105c0,1.231 -0.149,2.429 -0.448,3.595c-0.299,1.166 -0.756,2.197 -1.371,3.094c-0.616,0.896 -1.392,1.617 -2.329,2.162c-0.938,0.545 -2.051,0.817 -3.34,0.817c-1.219,0 -2.324,-0.249 -3.314,-0.747c-0.99,-0.498 -1.819,-1.215 -2.487,-2.153l-0.088,2.549l-1.969,0l0,-27l2.11,0l0,10.635c0.644,-0.95 1.45,-1.688 2.417,-2.215c0.966,-0.528 2.065,-0.791 3.296,-0.791c1.3,0 2.425,0.266 3.375,0.8c0.949,0.533 1.728,1.248 2.337,2.144c0.61,0.897 1.064,1.928 1.363,3.094c0.299,1.166 0.448,2.382 0.448,3.647l0,0.369Zm-2.127,-0.369c0,-0.949 -0.1,-1.892 -0.299,-2.83c-0.199,-0.937 -0.521,-1.778 -0.967,-2.522c-0.445,-0.744 -1.04,-1.348 -1.784,-1.811c-0.744,-0.463 -1.661,-0.694 -2.751,-0.694c-0.633,0 -1.224,0.094 -1.775,0.281c-0.551,0.188 -1.052,0.445 -1.503,0.774c-0.451,0.328 -0.847,0.723 -1.187,1.186c-0.339,0.463 -0.621,0.964 -0.843,1.503l0,8.877c0.234,0.516 0.53,0.987 0.887,1.415c0.358,0.428 0.768,0.791 1.231,1.09c0.463,0.299 0.967,0.53 1.512,0.694c0.544,0.164 1.116,0.246 1.713,0.246c1.067,0 1.966,-0.228 2.699,-0.685c0.732,-0.457 1.324,-1.058 1.775,-1.802c0.451,-0.744 0.779,-1.585 0.984,-2.522c0.205,-0.938 0.308,-1.881 0.308,-2.831l0,-0.369Z" style="fill-rule:nonzero;"/><path d="M872.076,52.736c0,-1.265 0.158,-2.481 0.474,-3.647c0.317,-1.166 0.788,-2.197 1.415,-3.094c0.627,-0.896 1.412,-1.611 2.356,-2.144c0.943,-0.534 2.053,-0.8 3.331,-0.8c1.207,0 2.288,0.258 3.243,0.773c0.955,0.516 1.755,1.237 2.399,2.162l0,-10.564l2.092,0l0,27l-1.969,0l-0.088,-2.479c-0.668,0.914 -1.488,1.615 -2.461,2.101c-0.972,0.486 -2.056,0.729 -3.251,0.729c-1.254,0 -2.353,-0.272 -3.296,-0.817c-0.944,-0.545 -1.729,-1.266 -2.356,-2.162c-0.627,-0.897 -1.098,-1.928 -1.415,-3.094c-0.316,-1.166 -0.474,-2.364 -0.474,-3.595l0,-0.369Zm2.126,0.369c0,0.95 0.103,1.893 0.308,2.831c0.205,0.937 0.536,1.778 0.993,2.522c0.457,0.744 1.055,1.345 1.793,1.802c0.738,0.457 1.641,0.685 2.707,0.685c0.598,0 1.163,-0.076 1.697,-0.228c0.533,-0.153 1.025,-0.372 1.476,-0.659c0.451,-0.287 0.856,-0.633 1.213,-1.037c0.357,-0.405 0.659,-0.859 0.905,-1.363l0,-9.211c-0.234,-0.527 -0.524,-1.008 -0.87,-1.441c-0.346,-0.434 -0.741,-0.809 -1.186,-1.125c-0.446,-0.317 -0.938,-0.563 -1.477,-0.738c-0.539,-0.176 -1.113,-0.264 -1.723,-0.264c-1.078,0 -1.986,0.231 -2.724,0.694c-0.738,0.463 -1.339,1.067 -1.802,1.811c-0.463,0.744 -0.797,1.585 -1.002,2.522c-0.205,0.938 -0.308,1.881 -0.308,2.83l0,0.369Z" style="fill-rule:nonzero;"/><path d="M893.222,52.631c0.012,-1.289 0.211,-2.514 0.598,-3.674c0.386,-1.16 0.94,-2.177 1.661,-3.05c0.72,-0.873 1.605,-1.567 2.654,-2.083c1.049,-0.515 2.235,-0.773 3.56,-0.773c1.336,0 2.528,0.258 3.577,0.773c1.049,0.516 1.936,1.21 2.663,2.083c0.726,0.873 1.283,1.89 1.67,3.05c0.387,1.16 0.586,2.385 0.597,3.674l0,0.58c-0.011,1.289 -0.208,2.514 -0.588,3.674c-0.381,1.16 -0.935,2.177 -1.662,3.05c-0.726,0.873 -1.611,1.564 -2.654,2.074c-1.043,0.51 -2.232,0.764 -3.568,0.764c-1.336,0 -2.529,-0.254 -3.577,-0.764c-1.049,-0.51 -1.937,-1.201 -2.663,-2.074c-0.727,-0.873 -1.284,-1.89 -1.67,-3.05c-0.387,-1.16 -0.586,-2.385 -0.598,-3.674l0,-0.58Zm2.109,0.58c0,1.008 0.141,1.98 0.422,2.918c0.281,0.937 0.692,1.767 1.231,2.487c0.539,0.721 1.204,1.298 1.995,1.732c0.791,0.433 1.708,0.65 2.751,0.65c1.031,0 1.942,-0.217 2.733,-0.65c0.791,-0.434 1.453,-1.011 1.987,-1.732c0.533,-0.72 0.94,-1.55 1.221,-2.487c0.281,-0.938 0.422,-1.91 0.422,-2.918l0,-0.58c0,-0.996 -0.141,-1.963 -0.422,-2.901c-0.281,-0.937 -0.691,-1.766 -1.23,-2.487c-0.539,-0.721 -1.207,-1.301 -2.004,-1.74c-0.797,-0.44 -1.711,-0.659 -2.742,-0.659c-1.032,0 -1.943,0.219 -2.734,0.659c-0.791,0.439 -1.453,1.019 -1.986,1.74c-0.533,0.721 -0.941,1.55 -1.222,2.487c-0.281,0.938 -0.422,1.905 -0.422,2.901l0,0.58Z" style="fill-rule:nonzero;"/><path d="M915.986,43.402l0.052,2.127c0.387,-0.738 0.917,-1.333 1.591,-1.784c0.674,-0.451 1.527,-0.683 2.558,-0.694c0.539,0 1.016,0.061 1.432,0.184c0.416,0.123 0.777,0.296 1.082,0.519c0.304,0.223 0.562,0.489 0.773,0.8c0.211,0.31 0.381,0.647 0.51,1.01c0.398,-0.714 0.946,-1.309 1.643,-1.784c0.698,-0.474 1.568,-0.717 2.611,-0.729c0.82,0 1.505,0.14 2.056,0.422c0.551,0.281 0.996,0.662 1.336,1.142c0.34,0.481 0.583,1.037 0.73,1.67c0.146,0.633 0.219,1.301 0.219,2.004l-0.017,14.133l-1.969,0l-0.017,-14.133c0,-0.41 -0.042,-0.82 -0.124,-1.23c-0.082,-0.411 -0.225,-0.78 -0.43,-1.108c-0.205,-0.328 -0.492,-0.592 -0.862,-0.791c-0.369,-0.199 -0.84,-0.293 -1.415,-0.281c-0.586,0.012 -1.081,0.105 -1.485,0.281c-0.404,0.176 -0.738,0.404 -1.002,0.686c-0.264,0.281 -0.469,0.594 -0.615,0.94c-0.147,0.346 -0.255,0.694 -0.325,1.046l-0.018,14.59l-1.969,0l-0.017,-14.326c0,-0.399 -0.041,-0.791 -0.123,-1.178c-0.082,-0.387 -0.226,-0.732 -0.431,-1.037c-0.205,-0.305 -0.489,-0.551 -0.852,-0.738c-0.364,-0.188 -0.827,-0.276 -1.389,-0.264c-0.563,0.012 -1.04,0.1 -1.433,0.264c-0.392,0.164 -0.72,0.383 -0.984,0.659c-0.264,0.275 -0.475,0.592 -0.633,0.949c-0.158,0.357 -0.284,0.729 -0.378,1.116l-0.017,14.555l-1.987,0l0,-19.02l1.899,0Z" style="fill-rule:nonzero;"/><path d="M938.011,43.402l8.824,0l0,17.157l6.469,0l0,1.863l-15.293,0l0,-1.863l6.715,0l0,-15.276l-6.715,0l0,-1.881Zm6.1,-5.203c0,-0.433 0.123,-0.808 0.369,-1.125c0.246,-0.316 0.656,-0.474 1.23,-0.474c0.563,0 0.97,0.158 1.222,0.474c0.252,0.317 0.378,0.692 0.378,1.125c0,0.41 -0.126,0.771 -0.378,1.081c-0.252,0.311 -0.659,0.466 -1.222,0.466c-0.574,0 -0.984,-0.155 -1.23,-0.466c-0.246,-0.31 -0.369,-0.671 -0.369,-1.081Z" style="fill-rule:nonzero;"/><path d="M961.056,43.402l0.158,3.569c0.668,-1.184 1.559,-2.13 2.672,-2.839c1.113,-0.709 2.379,-1.07 3.797,-1.081c2.086,0 3.68,0.624 4.781,1.872c1.102,1.248 1.658,3.02 1.67,5.317l0,12.182l-2.109,0l0,-12.147c-0.012,-1.746 -0.41,-3.085 -1.196,-4.016c-0.785,-0.932 -2.003,-1.392 -3.656,-1.38c-0.68,0 -1.327,0.111 -1.942,0.334c-0.615,0.223 -1.178,0.527 -1.688,0.914c-0.509,0.387 -0.961,0.844 -1.353,1.371c-0.393,0.527 -0.712,1.102 -0.958,1.723l0,13.201l-2.11,0l0,-19.02l1.934,0Z" style="fill-rule:nonzero;"/><path d="M981.218,43.402l8.824,0l0,17.157l6.469,0l0,1.863l-15.293,0l0,-1.863l6.715,0l0,-15.276l-6.715,0l0,-1.881Zm6.1,-5.203c0,-0.433 0.123,-0.808 0.369,-1.125c0.246,-0.316 0.656,-0.474 1.23,-0.474c0.563,0 0.97,0.158 1.222,0.474c0.252,0.317 0.378,0.692 0.378,1.125c0,0.41 -0.126,0.771 -0.378,1.081c-0.252,0.311 -0.659,0.466 -1.222,0.466c-0.574,0 -0.984,-0.155 -1.23,-0.466c-0.246,-0.31 -0.369,-0.671 -0.369,-1.081Z" style="fill-rule:nonzero;"/><path d="M1001.24,52.631c0.011,-1.289 0.211,-2.514 0.597,-3.674c0.387,-1.16 0.941,-2.177 1.661,-3.05c0.721,-0.873 1.606,-1.567 2.655,-2.083c1.048,-0.515 2.235,-0.773 3.559,-0.773c1.336,0 2.529,0.258 3.577,0.773c1.049,0.516 1.937,1.21 2.663,2.083c0.727,0.873 1.284,1.89 1.67,3.05c0.387,1.16 0.586,2.385 0.598,3.674l0,0.58c-0.012,1.289 -0.208,2.514 -0.589,3.674c-0.381,1.16 -0.934,2.177 -1.661,3.05c-0.727,0.873 -1.611,1.564 -2.654,2.074c-1.043,0.51 -2.233,0.764 -3.569,0.764c-1.336,0 -2.528,-0.254 -3.577,-0.764c-1.049,-0.51 -1.936,-1.201 -2.663,-2.074c-0.726,-0.873 -1.283,-1.89 -1.67,-3.05c-0.386,-1.16 -0.586,-2.385 -0.597,-3.674l0,-0.58Zm2.109,0.58c0,1.008 0.141,1.98 0.422,2.918c0.281,0.937 0.691,1.767 1.23,2.487c0.539,0.721 1.204,1.298 1.995,1.732c0.791,0.433 1.708,0.65 2.751,0.65c1.032,0 1.943,-0.217 2.734,-0.65c0.791,-0.434 1.453,-1.011 1.986,-1.732c0.533,-0.72 0.941,-1.55 1.222,-2.487c0.281,-0.938 0.422,-1.91 0.422,-2.918l0,-0.58c0,-0.996 -0.141,-1.963 -0.422,-2.901c-0.281,-0.937 -0.692,-1.766 -1.231,-2.487c-0.539,-0.721 -1.207,-1.301 -2.004,-1.74c-0.796,-0.44 -1.711,-0.659 -2.742,-0.659c-1.031,0 -1.942,0.219 -2.733,0.659c-0.791,0.439 -1.453,1.019 -1.986,1.74c-0.534,0.721 -0.941,1.55 -1.222,2.487c-0.281,0.938 -0.422,1.905 -0.422,2.901l0,0.58Z" style="fill-rule:nonzero;"/><path d="M1030.07,60.928c0,-0.492 0.161,-0.911 0.483,-1.257c0.322,-0.346 0.759,-0.519 1.31,-0.519c0.562,0 1.005,0.173 1.327,0.519c0.322,0.346 0.483,0.765 0.483,1.257c0,0.492 -0.161,0.899 -0.483,1.221c-0.322,0.323 -0.765,0.484 -1.327,0.484c-0.551,0 -0.988,-0.161 -1.31,-0.484c-0.322,-0.322 -0.483,-0.729 -0.483,-1.221Z" style="fill-rule:nonzero;"/><path d="M1045.25,43.402l0.052,2.127c0.387,-0.738 0.917,-1.333 1.591,-1.784c0.674,-0.451 1.527,-0.683 2.558,-0.694c0.539,0 1.017,0.061 1.433,0.184c0.416,0.123 0.776,0.296 1.081,0.519c0.304,0.223 0.562,0.489 0.773,0.8c0.211,0.31 0.381,0.647 0.51,1.01c0.398,-0.714 0.946,-1.309 1.643,-1.784c0.698,-0.474 1.568,-0.717 2.611,-0.729c0.82,0 1.506,0.14 2.056,0.422c0.551,0.281 0.996,0.662 1.336,1.142c0.34,0.481 0.583,1.037 0.73,1.67c0.146,0.633 0.22,1.301 0.22,2.004l-0.018,14.133l-1.969,0l-0.017,-14.133c0,-0.41 -0.041,-0.82 -0.123,-1.23c-0.082,-0.411 -0.226,-0.78 -0.431,-1.108c-0.205,-0.328 -0.492,-0.592 -0.861,-0.791c-0.37,-0.199 -0.841,-0.293 -1.415,-0.281c-0.586,0.012 -1.082,0.105 -1.486,0.281c-0.404,0.176 -0.738,0.404 -1.002,0.686c-0.263,0.281 -0.469,0.594 -0.615,0.94c-0.146,0.346 -0.255,0.694 -0.325,1.046l-0.018,14.59l-1.969,0l-0.017,-14.326c0,-0.399 -0.041,-0.791 -0.123,-1.178c-0.082,-0.387 -0.226,-0.732 -0.431,-1.037c-0.205,-0.305 -0.489,-0.551 -0.852,-0.738c-0.364,-0.188 -0.827,-0.276 -1.389,-0.264c-0.563,0.012 -1.04,0.1 -1.433,0.264c-0.392,0.164 -0.72,0.383 -0.984,0.659c-0.264,0.275 -0.475,0.592 -0.633,0.949c-0.158,0.357 -0.284,0.729 -0.378,1.116l-0.017,14.555l-1.987,0l0,-19.02l1.899,0Z" style="fill-rule:nonzero;"/><path d="M1074.9,62.773c-1.324,0 -2.531,-0.246 -3.621,-0.738c-1.09,-0.492 -2.024,-1.16 -2.804,-2.004c-0.779,-0.844 -1.383,-1.831 -1.81,-2.962c-0.428,-1.131 -0.648,-2.335 -0.659,-3.612l0,-0.756c0.011,-1.359 0.237,-2.625 0.676,-3.797c0.44,-1.172 1.04,-2.191 1.802,-3.058c0.762,-0.867 1.658,-1.55 2.689,-2.048c1.032,-0.498 2.139,-0.747 3.323,-0.747c1.265,0 2.385,0.228 3.357,0.685c0.973,0.457 1.79,1.081 2.452,1.872c0.662,0.791 1.166,1.714 1.512,2.769c0.346,1.055 0.524,2.185 0.536,3.393l0,1.283l-14.238,0l0,0.404c0.012,0.996 0.182,1.948 0.51,2.856c0.328,0.909 0.791,1.708 1.388,2.4c0.598,0.691 1.319,1.245 2.162,1.661c0.844,0.416 1.782,0.624 2.813,0.624c1.172,0.012 2.232,-0.205 3.182,-0.65c0.949,-0.446 1.757,-1.09 2.425,-1.934l1.336,1.002c-0.351,0.492 -0.767,0.946 -1.248,1.362c-0.48,0.416 -1.016,0.771 -1.608,1.064c-0.592,0.293 -1.239,0.521 -1.943,0.685c-0.703,0.164 -1.447,0.246 -2.232,0.246Zm-0.404,-17.929c-0.856,0 -1.641,0.161 -2.356,0.483c-0.715,0.322 -1.342,0.771 -1.881,1.345c-0.539,0.574 -0.984,1.251 -1.336,2.03c-0.351,0.779 -0.591,1.632 -0.72,2.558l12.041,0l0,-0.229c-0.024,-0.785 -0.167,-1.55 -0.431,-2.294c-0.264,-0.744 -0.639,-1.403 -1.125,-1.977c-0.486,-0.574 -1.081,-1.037 -1.784,-1.389c-0.703,-0.351 -1.506,-0.527 -2.408,-0.527Z" style="fill-rule:nonzero;"/><path d="M1101.14,59.451c-0.633,1.043 -1.468,1.858 -2.505,2.444c-1.037,0.585 -2.264,0.878 -3.682,0.878c-1.055,0 -1.984,-0.169 -2.786,-0.509c-0.803,-0.34 -1.477,-0.838 -2.022,-1.494c-0.545,-0.657 -0.961,-1.459 -1.248,-2.409c-0.287,-0.949 -0.431,-2.033 -0.431,-3.252l0,-11.707l2.092,0l0,11.743c0.024,1.91 0.41,3.357 1.16,4.341c0.75,0.985 1.91,1.477 3.481,1.477c1.582,0 2.865,-0.363 3.849,-1.09c0.985,-0.727 1.67,-1.711 2.057,-2.953l-0.018,-13.518l2.127,0l0,19.02l-1.968,0l-0.106,-2.971Z" style="fill-rule:nonzero;"/><rect x="1110.62" y="50.082" width="13.025" height="1.775" style="fill-rule:nonzero;"/><path d="M1130.98,52.736c0,-1.265 0.158,-2.481 0.475,-3.647c0.316,-1.166 0.788,-2.197 1.415,-3.094c0.627,-0.896 1.412,-1.611 2.355,-2.144c0.944,-0.534 2.054,-0.8 3.331,-0.8c1.207,0 2.289,0.258 3.244,0.773c0.955,0.516 1.754,1.237 2.399,2.162l0,-10.564l2.092,0l0,27l-1.969,0l-0.088,-2.479c-0.668,0.914 -1.488,1.615 -2.461,2.101c-0.972,0.486 -2.056,0.729 -3.252,0.729c-1.254,0 -2.352,-0.272 -3.296,-0.817c-0.943,-0.545 -1.728,-1.266 -2.355,-2.162c-0.627,-0.897 -1.099,-1.928 -1.415,-3.094c-0.317,-1.166 -0.475,-2.364 -0.475,-3.595l0,-0.369Zm2.127,0.369c0,0.95 0.103,1.893 0.308,2.831c0.205,0.937 0.536,1.778 0.993,2.522c0.457,0.744 1.055,1.345 1.793,1.802c0.738,0.457 1.641,0.685 2.707,0.685c0.598,0 1.163,-0.076 1.696,-0.228c0.534,-0.153 1.026,-0.372 1.477,-0.659c0.451,-0.287 0.855,-0.633 1.213,-1.037c0.357,-0.405 0.659,-0.859 0.905,-1.363l0,-9.211c-0.234,-0.527 -0.524,-1.008 -0.87,-1.441c-0.346,-0.434 -0.741,-0.809 -1.187,-1.125c-0.445,-0.317 -0.937,-0.563 -1.476,-0.738c-0.539,-0.176 -1.113,-0.264 -1.723,-0.264c-1.078,0 -1.986,0.231 -2.724,0.694c-0.739,0.463 -1.339,1.067 -1.802,1.811c-0.463,0.744 -0.797,1.585 -1.002,2.522c-0.205,0.938 -0.308,1.881 -0.308,2.83l0,0.369Z" style="fill-rule:nonzero;"/><path d="M1152.12,52.631c0.011,-1.289 0.211,-2.514 0.597,-3.674c0.387,-1.16 0.941,-2.177 1.662,-3.05c0.72,-0.873 1.605,-1.567 2.654,-2.083c1.049,-0.515 2.235,-0.773 3.559,-0.773c1.336,0 2.529,0.258 3.578,0.773c1.048,0.516 1.936,1.21 2.663,2.083c0.726,0.873 1.283,1.89 1.67,3.05c0.386,1.16 0.586,2.385 0.597,3.674l0,0.58c-0.011,1.289 -0.208,2.514 -0.589,3.674c-0.381,1.16 -0.934,2.177 -1.661,3.05c-0.726,0.873 -1.611,1.564 -2.654,2.074c-1.043,0.51 -2.232,0.764 -3.568,0.764c-1.336,0 -2.529,-0.254 -3.578,-0.764c-1.048,-0.51 -1.936,-1.201 -2.663,-2.074c-0.726,-0.873 -1.283,-1.89 -1.67,-3.05c-0.386,-1.16 -0.586,-2.385 -0.597,-3.674l0,-0.58Zm2.109,0.58c0,1.008 0.141,1.98 0.422,2.918c0.281,0.937 0.691,1.767 1.23,2.487c0.54,0.721 1.205,1.298 1.996,1.732c0.791,0.433 1.708,0.65 2.751,0.65c1.031,0 1.942,-0.217 2.733,-0.65c0.791,-0.434 1.453,-1.011 1.986,-1.732c0.533,-0.72 0.941,-1.55 1.222,-2.487c0.281,-0.938 0.422,-1.91 0.422,-2.918l0,-0.58c0,-0.996 -0.141,-1.963 -0.422,-2.901c-0.281,-0.937 -0.691,-1.766 -1.23,-2.487c-0.54,-0.721 -1.208,-1.301 -2.004,-1.74c-0.797,-0.44 -1.711,-0.659 -2.743,-0.659c-1.031,0 -1.942,0.219 -2.733,0.659c-0.791,0.439 -1.453,1.019 -1.986,1.74c-0.534,0.721 -0.941,1.55 -1.222,2.487c-0.281,0.938 -0.422,1.905 -0.422,2.901l0,0.58Z" style="fill-rule:nonzero;"/><path d="M1174.88,43.402l0.053,2.127c0.387,-0.738 0.917,-1.333 1.591,-1.784c0.674,-0.451 1.526,-0.683 2.558,-0.694c0.539,0 1.016,0.061 1.432,0.184c0.416,0.123 0.777,0.296 1.081,0.519c0.305,0.223 0.563,0.489 0.774,0.8c0.211,0.31 0.381,0.647 0.509,1.01c0.399,-0.714 0.947,-1.309 1.644,-1.784c0.697,-0.474 1.567,-0.717 2.61,-0.729c0.821,0 1.506,0.14 2.057,0.422c0.551,0.281 0.996,0.662 1.336,1.142c0.34,0.481 0.583,1.037 0.729,1.67c0.147,0.633 0.22,1.301 0.22,2.004l-0.017,14.133l-1.969,0l-0.018,-14.133c0,-0.41 -0.041,-0.82 -0.123,-1.23c-0.082,-0.411 -0.225,-0.78 -0.43,-1.108c-0.206,-0.328 -0.493,-0.592 -0.862,-0.791c-0.369,-0.199 -0.841,-0.293 -1.415,-0.281c-0.586,0.012 -1.081,0.105 -1.485,0.281c-0.404,0.176 -0.738,0.404 -1.002,0.686c-0.264,0.281 -0.469,0.594 -0.615,0.94c-0.147,0.346 -0.255,0.694 -0.326,1.046l-0.017,14.59l-1.969,0l-0.017,-14.326c0,-0.399 -0.041,-0.791 -0.123,-1.178c-0.083,-0.387 -0.226,-0.732 -0.431,-1.037c-0.205,-0.305 -0.489,-0.551 -0.853,-0.738c-0.363,-0.188 -0.826,-0.276 -1.388,-0.264c-0.563,0.012 -1.04,0.1 -1.433,0.264c-0.393,0.164 -0.721,0.383 -0.984,0.659c-0.264,0.275 -0.475,0.592 -0.633,0.949c-0.158,0.357 -0.284,0.729 -0.378,1.116l-0.018,14.555l-1.986,0l0,-19.02l1.898,0Z" style="fill-rule:nonzero;"/><path d="M1196.91,43.402l8.824,0l0,17.157l6.469,0l0,1.863l-15.293,0l0,-1.863l6.715,0l0,-15.276l-6.715,0l0,-1.881Zm6.099,-5.203c0,-0.433 0.123,-0.808 0.37,-1.125c0.246,-0.316 0.656,-0.474 1.23,-0.474c0.563,0 0.97,0.158 1.222,0.474c0.252,0.317 0.378,0.692 0.378,1.125c0,0.41 -0.126,0.771 -0.378,1.081c-0.252,0.311 -0.659,0.466 -1.222,0.466c-0.574,0 -0.984,-0.155 -1.23,-0.466c-0.247,-0.31 -0.37,-0.671 -0.37,-1.081Z" style="fill-rule:nonzero;"/><path d="M1219.96,43.402l0.158,3.569c0.668,-1.184 1.559,-2.13 2.672,-2.839c1.113,-0.709 2.379,-1.07 3.797,-1.081c2.086,0 3.679,0.624 4.781,1.872c1.102,1.248 1.658,3.02 1.67,5.317l0,12.182l-2.11,0l0,-12.147c-0.011,-1.746 -0.41,-3.085 -1.195,-4.016c-0.785,-0.932 -2.004,-1.392 -3.656,-1.38c-0.68,0 -1.327,0.111 -1.942,0.334c-0.616,0.223 -1.178,0.527 -1.688,0.914c-0.51,0.387 -0.961,0.844 -1.353,1.371c-0.393,0.527 -0.712,1.102 -0.958,1.723l0,13.201l-2.11,0l0,-19.02l1.934,0Z" style="fill-rule:nonzero;"/><path d="M1240.12,43.402l8.824,0l0,17.157l6.469,0l0,1.863l-15.293,0l0,-1.863l6.715,0l0,-15.276l-6.715,0l0,-1.881Zm6.099,-5.203c0,-0.433 0.124,-0.808 0.37,-1.125c0.246,-0.316 0.656,-0.474 1.23,-0.474c0.563,0 0.97,0.158 1.222,0.474c0.252,0.317 0.378,0.692 0.378,1.125c0,0.41 -0.126,0.771 -0.378,1.081c-0.252,0.311 -0.659,0.466 -1.222,0.466c-0.574,0 -0.984,-0.155 -1.23,-0.466c-0.246,-0.31 -0.37,-0.671 -0.37,-1.081Z" style="fill-rule:nonzero;"/><path d="M1260.14,52.631c0.012,-1.289 0.211,-2.514 0.598,-3.674c0.387,-1.16 0.94,-2.177 1.661,-3.05c0.721,-0.873 1.606,-1.567 2.654,-2.083c1.049,-0.515 2.236,-0.773 3.56,-0.773c1.336,0 2.528,0.258 3.577,0.773c1.049,0.516 1.937,1.21 2.663,2.083c0.727,0.873 1.283,1.89 1.67,3.05c0.387,1.16 0.586,2.385 0.598,3.674l0,0.58c-0.012,1.289 -0.208,2.514 -0.589,3.674c-0.381,1.16 -0.935,2.177 -1.661,3.05c-0.727,0.873 -1.612,1.564 -2.654,2.074c-1.043,0.51 -2.233,0.764 -3.569,0.764c-1.336,0 -2.528,-0.254 -3.577,-0.764c-1.049,-0.51 -1.937,-1.201 -2.663,-2.074c-0.727,-0.873 -1.283,-1.89 -1.67,-3.05c-0.387,-1.16 -0.586,-2.385 -0.598,-3.674l0,-0.58Zm2.11,0.58c0,1.008 0.14,1.98 0.422,2.918c0.281,0.937 0.691,1.767 1.23,2.487c0.539,0.721 1.204,1.298 1.995,1.732c0.791,0.433 1.708,0.65 2.751,0.65c1.031,0 1.943,-0.217 2.734,-0.65c0.791,-0.434 1.453,-1.011 1.986,-1.732c0.533,-0.72 0.94,-1.55 1.222,-2.487c0.281,-0.938 0.421,-1.91 0.421,-2.918l0,-0.58c0,-0.996 -0.14,-1.963 -0.421,-2.901c-0.282,-0.937 -0.692,-1.766 -1.231,-2.487c-0.539,-0.721 -1.207,-1.301 -2.004,-1.74c-0.797,-0.44 -1.711,-0.659 -2.742,-0.659c-1.031,0 -1.942,0.219 -2.733,0.659c-0.791,0.439 -1.454,1.019 -1.987,1.74c-0.533,0.721 -0.94,1.55 -1.221,2.487c-0.282,0.938 -0.422,1.905 -0.422,2.901l0,0.58Z" style="fill-rule:nonzero;"/><path d="M1288.97,60.928c0,-0.492 0.162,-0.911 0.484,-1.257c0.322,-0.346 0.759,-0.519 1.309,-0.519c0.563,0 1.005,0.173 1.328,0.519c0.322,0.346 0.483,0.765 0.483,1.257c0,0.492 -0.161,0.899 -0.483,1.221c-0.323,0.323 -0.765,0.484 -1.328,0.484c-0.55,0 -0.987,-0.161 -1.309,-0.484c-0.322,-0.322 -0.484,-0.729 -0.484,-1.221Z" style="fill-rule:nonzero;"/><path d="M1303.35,52.631c0.012,-1.289 0.211,-2.514 0.598,-3.674c0.387,-1.16 0.94,-2.177 1.661,-3.05c0.721,-0.873 1.606,-1.567 2.654,-2.083c1.049,-0.515 2.236,-0.773 3.56,-0.773c1.336,0 2.528,0.258 3.577,0.773c1.049,0.516 1.937,1.21 2.663,2.083c0.727,0.873 1.283,1.89 1.67,3.05c0.387,1.16 0.586,2.385 0.598,3.674l0,0.58c-0.012,1.289 -0.208,2.514 -0.589,3.674c-0.381,1.16 -0.935,2.177 -1.661,3.05c-0.727,0.873 -1.611,1.564 -2.654,2.074c-1.043,0.51 -2.233,0.764 -3.569,0.764c-1.336,0 -2.528,-0.254 -3.577,-0.764c-1.049,-0.51 -1.936,-1.201 -2.663,-2.074c-0.727,-0.873 -1.283,-1.89 -1.67,-3.05c-0.387,-1.16 -0.586,-2.385 -0.598,-3.674l0,-0.58Zm2.11,0.58c0,1.008 0.14,1.98 0.422,2.918c0.281,0.937 0.691,1.767 1.23,2.487c0.539,0.721 1.204,1.298 1.995,1.732c0.791,0.433 1.708,0.65 2.751,0.65c1.031,0 1.943,-0.217 2.734,-0.65c0.791,-0.434 1.453,-1.011 1.986,-1.732c0.533,-0.72 0.94,-1.55 1.222,-2.487c0.281,-0.938 0.421,-1.91 0.421,-2.918l0,-0.58c0,-0.996 -0.14,-1.963 -0.421,-2.901c-0.282,-0.937 -0.692,-1.766 -1.231,-2.487c-0.539,-0.721 -1.207,-1.301 -2.004,-1.74c-0.797,-0.44 -1.711,-0.659 -2.742,-0.659c-1.031,0 -1.942,0.219 -2.733,0.659c-0.791,0.439 -1.454,1.019 -1.987,1.74c-0.533,0.721 -0.94,1.55 -1.221,2.487c-0.282,0.938 -0.422,1.905 -0.422,2.901l0,0.58Z" style="fill-rule:nonzero;"/><path d="M1338.63,43.051c0.527,0 1.054,0.032 1.582,0.096c0.527,0.065 0.966,0.156 1.318,0.273l-0.264,2.021c-0.492,-0.105 -0.984,-0.187 -1.476,-0.246c-0.492,-0.058 -0.996,-0.088 -1.512,-0.088c-1.781,0 -3.293,0.422 -4.535,1.266c-1.242,0.844 -2.115,2.139 -2.619,3.885l0.017,12.164l-2.179,0l0,-19.02l2.021,0l0.141,3.305l0,0.387c0.773,-1.254 1.799,-2.241 3.076,-2.962c1.277,-0.721 2.754,-1.081 4.43,-1.081Z" style="fill-rule:nonzero;"/><path d="M1347.05,52.736c0,-1.265 0.152,-2.481 0.457,-3.647c0.304,-1.166 0.77,-2.197 1.397,-3.094c0.627,-0.896 1.412,-1.611 2.356,-2.144c0.943,-0.534 2.059,-0.8 3.348,-0.8c1.219,0 2.312,0.261 3.278,0.782c0.967,0.521 1.773,1.257 2.417,2.206l0.088,-2.637l1.969,0l0,18.686c-0.012,1.16 -0.193,2.226 -0.545,3.199c-0.351,0.973 -0.858,1.808 -1.52,2.505c-0.662,0.697 -1.462,1.239 -2.4,1.626c-0.937,0.387 -1.992,0.58 -3.164,0.58c-0.562,0 -1.148,-0.064 -1.758,-0.193c-0.609,-0.129 -1.207,-0.328 -1.793,-0.598c-0.585,-0.27 -1.145,-0.606 -1.678,-1.011c-0.533,-0.404 -0.999,-0.887 -1.398,-1.45l1.178,-1.266c1.512,1.829 3.281,2.743 5.309,2.743c0.902,0 1.705,-0.147 2.408,-0.44c0.703,-0.293 1.292,-0.706 1.766,-1.239c0.475,-0.533 0.838,-1.172 1.09,-1.916c0.252,-0.744 0.384,-1.562 0.396,-2.452l0,-2.162c-0.668,0.89 -1.486,1.573 -2.452,2.048c-0.967,0.474 -2.042,0.711 -3.226,0.711c-1.266,0 -2.37,-0.272 -3.313,-0.817c-0.944,-0.545 -1.726,-1.266 -2.347,-2.162c-0.621,-0.897 -1.087,-1.928 -1.398,-3.094c-0.31,-1.166 -0.465,-2.364 -0.465,-3.595l0,-0.369Zm2.109,0.369c0,0.95 0.103,1.893 0.308,2.831c0.205,0.937 0.536,1.778 0.993,2.522c0.457,0.744 1.054,1.345 1.793,1.802c0.738,0.457 1.64,0.685 2.707,0.685c0.597,0 1.166,-0.079 1.705,-0.237c0.539,-0.158 1.034,-0.384 1.485,-0.677c0.451,-0.293 0.856,-0.647 1.213,-1.063c0.357,-0.416 0.653,-0.882 0.888,-1.398l0,-9.052c-0.235,-0.528 -0.522,-1.014 -0.862,-1.459c-0.339,-0.446 -0.732,-0.83 -1.177,-1.152c-0.446,-0.322 -0.938,-0.574 -1.477,-0.756c-0.539,-0.181 -1.119,-0.272 -1.74,-0.272c-1.078,0 -1.986,0.231 -2.725,0.694c-0.738,0.463 -1.339,1.067 -1.801,1.811c-0.463,0.744 -0.797,1.585 -1.002,2.522c-0.205,0.938 -0.308,1.881 -0.308,2.83l0,0.369Z" style="fill-rule:nonzero;"/><path d="M1372.73,64.619l-1.969,0l10.688,-27.791l1.969,0l-10.688,27.791Z" style="fill-rule:nonzero;"/></g></svg>