<?xml version="1.0" encoding="UTF-8" standalone="no"?><!DOCTYPE svg PUBLIC "-//W3C//DTD SVG 1.1//EN" "http://www.w3.org/Graphics/SVG/1.1/DTD/svg11.dtd"><svg width="100%" height="100%" viewBox="0 0 380 336" version="1.1" xmlns="http://www.w3.org/2000/svg" xmlns:xlink="http://www.w3.org/1999/xlink" xml:space="preserve" xmlns:serif="http://www.serif.com/" style="fill-rule:evenodd;clip-rule:evenodd;stroke-miterlimit:10;"><g id="BACKGROUND"></g><g id="OBJECTS"><path d="M80.269,306.897c42.026,-4.758 76.809,-2.761 77.626,4.457c0.817,7.217 -32.639,16.94 -74.665,21.697c-42.026,4.758 -76.81,2.761 -77.627,-4.456c-0.817,-7.218 32.64,-16.94 74.666,-21.698Z" style="fill:#def0f7;"/><path d="M303.117,321.301c40.46,-0.98 73.376,1.035 73.46,4.498c0.084,3.462 -32.696,7.069 -73.156,8.049c-40.459,0.98 -73.376,-1.035 -73.46,-4.498c-0.083,-3.463 32.697,-7.069 73.156,-8.049Z" style="fill:#def0f7;"/><path d="M152.452,99.88c-4.148,3.413 -9.392,21.813 -9.392,21.813l7.817,0.724l4.089,-15.624l-2.514,-6.913Z" style="fill:#fbcea7;fill-rule:nonzero;"/><path d="M163.86,73.771c-0.37,4.187 -4.063,7.28 -8.25,6.911c-4.186,-0.37 -7.28,-4.063 -6.91,-8.25c0.369,-4.186 4.063,-7.281 8.249,-6.911c4.187,0.37 7.281,4.063 6.911,8.25" style="fill:#330e00;fill-rule:nonzero;"/><path d="M176.655,83.265c-0.481,5.451 -5.291,9.48 -10.742,8.999c-5.452,-0.482 -8.928,-5.243 -8.446,-10.694c0.481,-5.451 4.738,-9.529 10.189,-9.048c5.452,0.482 9.481,5.291 8.999,10.743" style="fill:#441400;fill-rule:nonzero;"/><path d="M165.099,100.107c1.694,0.149 3.189,-1.103 3.338,-2.797l0.423,-4.781l-6.136,-0.542l-0.422,4.782c-0.149,1.693 1.103,3.188 2.797,3.338" style="fill:#bf7339;fill-rule:nonzero;"/><path d="M169.133,92.922c0,0 -0.803,2.905 -3.165,2.696c-2.362,-0.208 -3.678,-4.538 -3.678,-4.538l6.843,1.842Z" style="fill:#a6602a;fill-rule:nonzero;"/><path d="M156.277,84.514c-0.115,1.304 0.849,2.454 2.152,2.569c1.304,0.116 2.454,-0.848 2.57,-2.152c0.115,-1.304 -0.849,-2.454 -2.153,-2.569c-1.303,-0.116 -2.454,0.848 -2.569,2.152" style="fill:#bf7339;fill-rule:nonzero;"/><path d="M166.756,93.922c4.225,0.373 7.986,-2.778 8.359,-7.002l0.45,-5.091c0.229,-2.593 -1.705,-4.903 -4.299,-5.132l-5.163,-0.456c-2.812,-0.248 -5.317,1.85 -5.565,4.662l-0.447,5.062c-0.356,4.021 2.644,7.602 6.665,7.957" style="fill:#bf7339;fill-rule:nonzero;"/><path d="M160.016,81.232l0.273,2.493c0,0 3.002,-1.743 2.161,-3.469c-1.798,-3.686 -2.434,0.976 -2.434,0.976" style="fill:#441400;fill-rule:nonzero;"/><path d="M160.781,80.092c0,0 6.349,1.273 9.182,-3.51c0,0 0.645,3.488 5.603,5.247l0.501,0.045c0.13,-2.708 -1.285,-5.449 -3.952,-5.93l-7.827,-0.92l-3.987,2.98l0.48,2.088Z" style="fill:#441400;fill-rule:nonzero;"/><path d="M178.732,106.232c-1.096,-2.279 -2.849,-4.175 -4.981,-5.534l-5.314,-3.387c-3.128,3.438 -6.102,-0.914 -6.102,-0.914l-8.901,2.915c-0.713,0.249 -1.307,0.754 -1.668,1.417l-5.575,30.585c-0.288,1.103 0.313,2.252 1.391,2.625c9.968,3.448 21.728,3.356 26.456,3.146c1.185,-0.053 2.112,-1.035 2.096,-2.221l-0.978,-28.269c1.989,-0.015 3.726,-0.051 3.576,-0.363" style="fill:#fbcea7;fill-rule:nonzero;"/><path d="M168.437,97.31l3.181,2.027c0,0 -1.05,2.751 -6.482,2.296c-5.431,-0.454 -5.903,-4.246 -5.903,-4.246l3.102,-0.991l6.102,0.914Z" style="fill:#bf7339;fill-rule:nonzero;"/><path d="M184.827,114.114c-0.582,0 -1.163,-0.132 -1.695,-0.394l-17.163,-6.731l6.395,-7.125l12.73,6.244l15.188,-5.17l2.48,7.289l-16.695,5.682c-0.403,0.137 -0.822,0.205 -1.24,0.205" style="fill:#fbcea7;fill-rule:nonzero;"/><path d="M152.747,110.265l-1.145,7.536" style="fill:none;fill-rule:nonzero;stroke:#fba68f;stroke-width:0.72px;"/><path d="M175.297,110.648c-0.008,-0.243 -0.181,-5.11 -0.79,-6.506" style="fill:none;fill-rule:nonzero;stroke:#fba68f;stroke-width:0.72px;"/><path d="M379.755,93.63l-72.504,0.488c0,0 2.497,-11.809 17.496,-9.253c14.999,2.556 12.614,-4.099 23.638,-8.455c11.022,-4.357 10.994,9.549 15.738,11.916c4.743,2.367 15.632,5.304 15.632,5.304" style="fill:#def0f7;fill-rule:nonzero;"/><path d="M0,75.732l109.055,-1.644c0,0 -4.143,-17.677 -26.616,-13.341c-22.473,4.336 -19.105,-5.751 -35.825,-11.941c-16.72,-6.19 -16.222,14.722 -23.279,18.438c-7.056,3.715 -23.335,8.488 -23.335,8.488" style="fill:#def0f7;fill-rule:nonzero;"/><path d="M172.252,12.805l49.76,-0.75c0,0 -1.891,-8.065 -12.145,-6.087c-10.254,1.978 -8.717,-2.624 -16.346,-5.449c-7.629,-2.824 -7.401,6.718 -10.622,8.413c-3.219,1.695 -10.647,3.873 -10.647,3.873" style="fill:#def0f7;fill-rule:nonzero;"/><path d="M72.052,231.437c-0.12,-0.008 -0.239,-0.021 -0.357,-0.044l-18.068,-1.879l-2.297,-7.625l20.776,3.954l20.049,-5.381l1.181,4.403l-20.408,6.481c-0.286,0.077 -0.582,0.108 -0.876,0.091" style="fill:#feae96;fill-rule:nonzero;"/><path d="M59.82,222.457l-3.252,9.007l-6.219,-2.774c-2.159,-0.962 -3.092,-3.522 -2.059,-5.649c0.87,-1.789 2.049,-3.049 3.975,-2.553l7.555,1.969Z" style="fill:#80cebe;fill-rule:nonzero;"/><path d="M175.857,256.024c2.058,0 4.009,0.443 5.776,1.225l0,-0.006c0,0 2.835,1.582 5.156,0.539l0,-33.232c0,-3.184 -2.581,-5.765 -5.766,-5.765l-32.132,0c-1.17,-2.345 0.467,-5.291 0.467,-5.291l-0.006,0c0.782,-1.768 1.225,-3.719 1.225,-5.777c0,-7.898 -6.404,-14.301 -14.303,-14.301c-7.898,0 -14.301,6.403 -14.301,14.301c0,2.058 0.442,4.009 1.224,5.777l-0.006,0c0,0 1.638,2.946 0.468,5.291l-32.133,0c-3.184,0 -5.766,2.581 -5.766,5.765l0,89.497c0,3.185 2.582,5.767 5.766,5.767l89.497,0c3.185,0 5.766,-2.582 5.766,-5.767l0,-31.176c-2.321,-1.043 -5.156,0.539 -5.156,0.539l0,-0.006c-1.767,0.782 -3.718,1.224 -5.776,1.224c-7.899,0 -14.302,-6.403 -14.302,-14.301c0,-7.9 6.403,-14.303 14.302,-14.303" style="fill:#8adbca;fill-rule:nonzero;"/><path d="M282.218,218.944l-31.177,0c-1.043,2.321 0.539,5.156 0.539,5.156l-0.006,0c0.783,1.768 1.225,3.719 1.225,5.777c0,7.898 -6.403,14.301 -14.302,14.301c-7.899,0 -14.302,-6.403 -14.302,-14.301c0,-2.058 0.443,-4.009 1.224,-5.777l-0.006,0c0,0 1.582,-2.835 0.539,-5.156l-33.231,0c-3.184,0 -5.766,2.582 -5.766,5.767l0,33.075c-2.344,1.17 -5.29,-0.468 -5.29,-0.468l0,0.006c-1.768,-0.782 -3.719,-1.225 -5.777,-1.225c-7.899,0 -14.302,6.404 -14.302,14.302c0,7.899 6.403,14.303 14.302,14.303c2.058,0 4.009,-0.444 5.777,-1.225l0,0.006c0,0 2.946,-1.638 5.29,-0.468l0,31.191c0,3.184 2.582,5.765 5.766,5.765l89.497,0c3.185,0 5.767,-2.581 5.767,-5.765l0,-89.497c0,-3.185 -2.582,-5.767 -5.767,-5.767" style="fill:#1294d1;fill-rule:nonzero;"/><path d="M92.598,218.83l31.177,0c1.042,-2.32 -0.539,-5.155 -0.539,-5.155l0.006,0c-0.782,-1.768 -1.225,-3.719 -1.225,-5.777c0,-7.899 6.403,-14.302 14.302,-14.302c7.899,0 14.302,6.403 14.302,14.302c0,2.058 -0.442,4.009 -1.225,5.777l0.007,0c0,0 -1.582,2.835 -0.539,5.155l33.231,0c3.185,0 5.766,-2.581 5.766,-5.766l0,-33.074c2.344,-1.171 5.291,0.467 5.291,0.467l0,-0.006c1.767,0.782 3.718,1.225 5.776,1.225c7.899,0 14.302,-6.404 14.302,-14.303c0,-7.898 -6.403,-14.302 -14.302,-14.302c-2.058,0 -4.009,0.443 -5.776,1.225l0,-0.006c0,0 -2.947,1.638 -5.291,0.468l0,-31.191c0,-3.184 -2.581,-5.766 -5.766,-5.766l-89.497,0c-3.184,0 -5.766,2.582 -5.766,5.766l0,89.497c0,3.185 2.582,5.766 5.766,5.766" style="fill:#1294d1;fill-rule:nonzero;"/><path d="M152.397,117.635c0,0 2.724,0.751 2.724,3.382c0,0 -0.094,1.127 3.664,0.47c3.758,-0.658 1.597,-3.852 1.597,-3.852c0,0 -0.752,-0.939 -2.443,-0.845l-3.947,-0.006c-0.64,-0.001 -1.239,0.319 -1.595,0.851" style="fill:#bf7339;fill-rule:nonzero;"/><path d="M66.676,312.947l0.248,-7.711l6.028,0l-0.318,7.71l-5.958,0.001Z" style="fill:#feae96;fill-rule:nonzero;"/><path d="M30.726,324.149l2.65,-9.232l-5.579,-1.102l-3.632,10.335l6.561,-0.001Z" style="fill:#feae96;fill-rule:nonzero;"/><path d="M55.86,260.87l1.812,7.219l-21.844,0.945c0,0 -1.82,-6.292 0.567,-8.932c3.265,-3.612 19.465,0.768 19.465,0.768" style="fill:#233a70;fill-rule:nonzero;"/><path d="M41.704,268.228l25.047,12.832l-0.459,28.385l7.019,-0.199l3.279,-29.505c0.137,-1.234 -0.396,-2.447 -1.397,-3.181l-18.863,-13.818l-14.626,5.486Z" style="fill:#233a70;fill-rule:nonzero;"/><path d="M35.92,267.786l-0.883,21.638l-10.47,31.645l8.21,0.052l12.758,-30.018c0.218,-0.512 0.362,-1.052 0.43,-1.604l4.094,-25.645l-14.139,3.932Z" style="fill:#233a70;fill-rule:nonzero;"/><path d="M66.676,312.947l-0.814,4.903c0,0.717 0.581,1.298 1.297,1.298l12.532,-0.001c0.604,0 1.093,-0.49 1.093,-1.094c0,-0.34 -0.158,-0.662 -0.429,-0.868l-7.721,-4.239l-5.958,0.001Z" style="fill:#162836;fill-rule:nonzero;"/><path d="M24.165,324.15l-1.463,4.903c0,0.717 0.581,1.298 1.297,1.297l13.784,0c0.604,0 1.093,-0.49 1.093,-1.094c0,-0.34 -0.158,-0.662 -0.429,-0.868l-7.721,-4.239l-6.561,0.001Z" style="fill:#162836;fill-rule:nonzero;"/><path d="M41.306,221.324c-6.142,3.554 -5.933,8.606 -6.481,14.923l-3.711,24.808c11.806,4.239 25.784,-0.844 25.784,-0.844l-0.025,-30.803c0.045,-2.907 -3.231,-9.639 -7.396,-9.542c0,0 -3.192,-1.423 -8.171,1.458" style="fill:#b1ece0;fill-rule:nonzero;"/><path d="M46.449,222.457l1.065,-0.005c1.385,-0.007 2.508,-1.126 2.518,-2.512l0.074,-10.772l-6.124,0.028l-0.074,10.714c-0.01,1.408 1.133,2.554 2.541,2.547" style="fill:#feae96;fill-rule:nonzero;"/><path d="M81.553,240.105c1.456,1.709 5.594,1.562 7.408,0.016c1.814,-1.547 2.104,-4.186 0.648,-5.894c-1.456,-1.708 -4.691,-1.526 -6.506,0.02c-1.814,1.546 -3.007,4.15 -1.55,5.858" style="fill:#feae96;fill-rule:nonzero;"/><path d="M62.42,243.124c-0.48,0 -0.956,-0.117 -1.383,-0.343l-15.141,-5.824l-1.577,-9.717l18.668,9.88l19.234,-1.022l0.551,4.626l-20.002,2.379c-0.117,0.014 -0.234,0.021 -0.35,0.021" style="fill:#feae96;fill-rule:nonzero;"/><path d="M54.782,230.664l-5.549,9.502l-7.675,-6.107c-2.051,-1.482 -2.468,-4.367 -0.92,-6.369c1.303,-1.683 3.611,-2.217 5.521,-1.276l8.623,4.25Z" style="fill:#80cebe;fill-rule:nonzero;"/><path d="M43.908,215.238c0,0 1.679,4.196 6.129,3.864l0,-3.29l-6.129,-0.574Z" style="fill:#f19c85;fill-rule:nonzero;"/><path d="M55.633,201.257c0,0 6.324,0.745 0.548,7.261l-1.659,-4.445l1.111,-2.816Z" style="fill:#3c2d41;fill-rule:nonzero;"/><path d="M49.233,217.616c3.958,0 7.196,-3.238 7.196,-7.195l0,-6.947c0,-1.722 -1.41,-3.132 -3.133,-3.132l-8.126,0c-1.723,0 -3.133,1.41 -3.133,3.132l0,6.947c0,3.957 3.238,7.195 7.196,7.195" style="fill:#feae96;fill-rule:nonzero;"/><path d="M43.216,208.517c0,0 4.364,-2.369 1.953,-7.229l-4.044,0c0,0 -1.113,-0.287 -1.994,0.889c-0.881,1.177 1.275,6.34 1.275,6.34l2.81,0Z" style="fill:#3c2d41;fill-rule:nonzero;"/><path d="M45.484,202.006c0,0 11.637,3.367 13.521,-1.895c2.013,-5.618 -3.975,-6.614 -6.76,-6.428c-6.863,0.459 -14.081,3.888 -10.537,8.866l3.776,-0.543Z" style="fill:#3c2d41;fill-rule:nonzero;"/><path d="M38.87,209.428c0,1.423 1.153,2.577 2.577,2.577c1.423,0 2.576,-1.154 2.576,-2.577c0,-1.423 -1.153,-2.577 -2.576,-2.577c-1.424,0 -2.577,1.154 -2.577,2.577" style="fill:#feae96;fill-rule:nonzero;"/><path d="M363.422,327.425c-0.59,0 -1.144,-0.363 -1.356,-0.949l-39.285,-107.867l-39.283,107.867c-0.272,0.749 -1.1,1.135 -1.85,0.862c-0.749,-0.273 -1.135,-1.101 -0.862,-1.85l40.64,-111.592c0.208,-0.571 0.749,-0.95 1.355,-0.95c0.608,0 1.149,0.379 1.357,0.95l40.639,111.592c0.274,0.749 -0.112,1.577 -0.861,1.85c-0.164,0.059 -0.33,0.087 -0.494,0.087" style="fill:#5773a9;fill-rule:nonzero;"/><path d="M327.468,228.699l-21.385,0c-0.797,0 -1.443,-0.646 -1.443,-1.443c0,-0.797 0.646,-1.444 1.443,-1.444l21.385,0c0.797,0 1.443,0.647 1.443,1.444c0,0.797 -0.646,1.443 -1.443,1.443" style="fill:#62aab4;fill-rule:nonzero;"/><path d="M332.973,244.435l-20.381,0c-0.797,0 -1.443,-0.646 -1.443,-1.443c0,-0.797 0.646,-1.444 1.443,-1.444l20.381,0c0.797,0 1.443,0.647 1.443,1.444c0,0.797 -0.646,1.443 -1.443,1.443" style="fill:#62aab4;fill-rule:nonzero;"/><path d="M310.281,244.435l-20.381,0c-0.797,0 -1.443,-0.646 -1.443,-1.443c0,-0.797 0.646,-1.444 1.443,-1.444l20.381,0c0.798,0 1.444,0.647 1.444,1.444c0,0.797 -0.646,1.443 -1.444,1.443" style="fill:#62aab4;fill-rule:nonzero;"/><path d="M338.477,260.173l-20.382,0c-0.797,0 -1.443,-0.646 -1.443,-1.443c0,-0.798 0.646,-1.445 1.443,-1.445l20.381,0c0.798,0 1.445,0.647 1.445,1.445c0,0.797 -0.647,1.443 -1.445,1.443" style="fill:#62aab4;fill-rule:nonzero;"/><path d="M306.083,260.173l-20.381,0c-0.797,0 -1.443,-0.646 -1.443,-1.443c0,-0.798 0.646,-1.445 1.443,-1.445l20.381,0c0.797,0 1.443,0.647 1.443,1.445c0,0.797 -0.646,1.443 -1.443,1.443" style="fill:#62aab4;fill-rule:nonzero;"/><path d="M343.981,275.908l-20.381,0c-0.797,0 -1.444,-0.646 -1.444,-1.443c0,-0.797 0.647,-1.444 1.444,-1.444l20.381,0c0.797,0 1.443,0.647 1.443,1.444c0,0.797 -0.646,1.443 -1.443,1.443" style="fill:#62aab4;fill-rule:nonzero;"/><path d="M300.091,275.908l-20.38,0c-0.797,0 -1.443,-0.646 -1.443,-1.443c0,-0.797 0.646,-1.444 1.443,-1.444l20.38,0c0.797,0 1.443,0.647 1.443,1.444c0,0.797 -0.646,1.443 -1.443,1.443" style="fill:#62aab4;fill-rule:nonzero;"/><path d="M349.485,291.644l-20.381,0c-0.797,0 -1.443,-0.646 -1.443,-1.443c0,-0.797 0.646,-1.444 1.443,-1.444l20.381,0c0.797,0 1.443,0.647 1.443,1.444c0,0.797 -0.646,1.443 -1.443,1.443" style="fill:#62aab4;fill-rule:nonzero;"/><path d="M294.563,291.644l-20.382,0c-0.797,0 -1.443,-0.646 -1.443,-1.443c0,-0.797 0.646,-1.444 1.443,-1.444l20.382,0c0.797,0 1.443,0.647 1.443,1.444c0,0.797 -0.646,1.443 -1.443,1.443" style="fill:#62aab4;fill-rule:nonzero;"/><path d="M354.989,307.381l-20.38,0c-0.797,0 -1.443,-0.646 -1.443,-1.443c0,-0.797 0.646,-1.444 1.443,-1.444l20.38,0c0.797,0 1.444,0.647 1.444,1.444c0,0.797 -0.647,1.443 -1.444,1.443" style="fill:#62aab4;fill-rule:nonzero;"/><path d="M288.896,307.381l-20.381,0c-0.797,0 -1.444,-0.646 -1.444,-1.443c0,-0.797 0.647,-1.444 1.444,-1.444l20.381,0c0.797,0 1.443,0.647 1.443,1.444c0,0.797 -0.646,1.443 -1.443,1.443" style="fill:#62aab4;fill-rule:nonzero;"/><path d="M322.677,215.833l-21.385,0c-0.797,0 -1.443,-0.646 -1.443,-1.443c0,-0.797 0.646,-1.444 1.443,-1.444l21.385,0c0.797,0 1.443,0.647 1.443,1.444c0,0.797 -0.646,1.443 -1.443,1.443" style="fill:#62aab4;fill-rule:nonzero;"/><path d="M299.51,235.564l-0.987,-10.603l-5.809,-1.132l0.859,12.659l5.937,-0.924Z" style="fill:#feae96;fill-rule:nonzero;"/><path d="M339.543,251.123l-3.645,-10.005l-5.905,0.377l4.041,12.028l5.509,-2.4Z" style="fill:#feae96;fill-rule:nonzero;"/><path d="M309.479,187.906l-1.79,7.134l21.583,0.933c0,0 2.677,-8.293 -0.56,-10.205c-4.165,-2.461 -19.233,2.138 -19.233,2.138" style="fill:#fdd0a9;fill-rule:nonzero;"/><path d="M326.328,195.061l-27.64,8.948l2.268,26.79l-9.889,0.366l-3.667,-30.321c-0.146,-1.317 0.59,-2.575 1.811,-3.094l19.805,-7.994l17.312,5.305Z" style="fill:#fdd0a9;fill-rule:nonzero;"/><path d="M329.272,195.973l1.04,20.715l9.662,30.672l-9.634,0.296l-10.493,-30.639l-3.072,-24.915l12.497,3.871Z" style="fill:#fdd0a9;fill-rule:nonzero;"/><path d="M281.521,157.068c1.093,-0.853 0.042,-3.381 -1.302,-3.039c-2.182,0.557 -5.173,1.037 -6.927,0.134c-3.004,-1.545 -1.843,5.559 4.288,4.611c1.976,-0.307 3.092,-1.045 3.941,-1.706" style="fill:#feae96;fill-rule:nonzero;"/><path d="M281.378,154.459l3.828,3.936l-1.613,3.549l-6.089,-5.166l3.874,-2.319Z" style="fill:#feae96;fill-rule:nonzero;"/><path d="M298.274,173.361c-0.836,0 -1.675,-0.261 -2.389,-0.794l-16.713,-11.551l4.78,-6.384l13.901,9.445l11.884,-11.097l3.773,6.384l-12.37,12.783c-0.777,0.803 -1.818,1.214 -2.866,1.214" style="fill:#7bc3cf;fill-rule:nonzero;"/><path d="M307.408,156.505c0.568,-2.521 2.729,-4.374 5.283,-4.773c3.611,-0.564 10.455,-1.33 13.262,0.408c0,0 4.498,1.802 3.855,14.644c-0.288,5.762 2.606,22.378 2.606,22.378c0,0 -12.431,5.072 -24.652,-1.482l-0.569,-27.035c0,0 -0.267,-2.001 0.215,-4.14" style="fill:#cbecfb;fill-rule:nonzero;"/><path d="M320.679,151.329l-5.437,0.606l-0.456,-8.002l5.437,-0.606l0.456,8.002Z" style="fill:#feae96;fill-rule:nonzero;"/><path d="M320.319,145.009c0,0 -0.892,4.033 -5.229,4.274l-0.304,-5.35l5.533,1.076Z" style="fill:#f19c85;fill-rule:nonzero;"/><path d="M308.144,135.899c0,0 -2.849,-7.76 2.022,-7.902c0,0 0.355,-4.485 5.124,-4.387c4.769,0.099 4.536,4.164 6.137,5.007c1.603,0.843 5.156,2.049 3.877,5.559c-1.279,3.511 -2.526,4.521 -2.526,4.521l-14.635,-2.798Z" style="fill:#3c2d41;fill-rule:nonzero;"/><path d="M313.514,147.582c-3.669,-0.438 -6.312,-3.798 -5.874,-7.467l0.879,-7.36c0.438,-3.669 3.798,-6.312 7.467,-5.874c3.669,0.439 7.199,3.866 6.761,7.534l-0.879,7.36c-0.438,3.669 -4.686,6.245 -8.354,5.807" style="fill:#feae96;fill-rule:nonzero;"/><path d="M321.089,129.342c0,0 -0.495,3.424 0.675,4.764l-1.145,4.278l1.826,-0.804l1.227,-5.232l-2.583,-3.006Z" style="fill:#3c2d41;fill-rule:nonzero;"/><path d="M324.416,140.085c-0.147,1.236 -1.27,2.119 -2.506,1.971c-1.235,-0.148 -2.118,-1.269 -1.971,-2.506c0.148,-1.236 1.27,-2.118 2.506,-1.97c1.236,0.147 2.118,1.269 1.971,2.505" style="fill:#feae96;fill-rule:nonzero;"/><path d="M320.679,151.329l-6.605,4.884l1.168,-4.278l5.437,-0.606Z" style="fill:#feae96;fill-rule:nonzero;"/><path d="M215.93,104.619c-2.014,-0.422 -3.833,-1.255 -5.402,-2.383l-0.001,0.006c0,0 -2.451,-2.13 -4.937,-1.585l-6.816,32.524c-0.653,3.117 1.344,6.173 4.461,6.826l31.449,6.591c0.664,2.535 -1.543,5.083 -1.543,5.083l0.006,0.001c-1.128,1.569 -1.961,3.388 -2.383,5.402c-1.621,7.731 3.333,15.311 11.063,16.931c7.732,1.621 15.312,-3.333 16.932,-11.063c0.423,-2.014 0.39,-4.015 -0.014,-5.905l0.007,0.001c0,0 -0.999,-3.22 0.627,-5.274l31.449,6.591c3.118,0.653 6.173,-1.344 6.827,-4.46l18.358,-87.594c0.653,-3.117 -1.344,-6.173 -4.461,-6.826l-87.594,-18.359c-3.117,-0.653 -6.173,1.345 -6.826,4.461l-6.395,30.514c2.057,1.497 5.157,0.53 5.157,0.53l-0.001,0.006c1.891,-0.403 3.891,-0.436 5.904,-0.014c7.731,1.621 12.685,9.201 11.065,16.932c-1.62,7.731 -9.202,12.685 -16.932,11.064" style="fill:#8adbca;fill-rule:nonzero;"/><path d="M303.385,152.764c0,0 -2.65,-7.05 -6.93,-5.126c-4.278,1.924 -0.08,3.291 0.868,5.046c1,1.848 1.421,2.999 1.421,2.999l4.641,-2.919Z" style="fill:#feae96;fill-rule:nonzero;"/><path d="M310.96,176.352c-0.176,0 -0.353,-0.011 -0.529,-0.034c-1.24,-0.167 -2.33,-0.904 -2.944,-1.994l-10.336,-18.323l6.947,-3.917l7.741,13.723l10.692,-10.81l5.67,5.608l-14.406,14.564c-0.755,0.762 -1.777,1.183 -2.835,1.183" style="fill:#91d3df;fill-rule:nonzero;"/><path d="M299.51,235.564l0.604,4.364c0.101,0.723 -0.404,1.389 -1.126,1.49l-13.241,1.834c-0.608,0.085 -1.171,-0.34 -1.255,-0.949c-0.047,-0.343 0.068,-0.689 0.312,-0.935l8.727,-5.502l5.979,-0.302Z" style="fill:#162836;fill-rule:nonzero;"/><path d="M339.649,251.128l0.828,4.99c0,0.73 -0.591,1.321 -1.32,1.321l-13.367,-0.001c-0.615,0 -1.114,-0.498 -1.114,-1.113c0,-0.346 0.162,-0.674 0.438,-0.884l7.858,-4.313l6.677,0Z" style="fill:#162836;fill-rule:nonzero;"/><path d="M341.733,327.425c-0.589,0 -1.143,-0.363 -1.355,-0.949l-39.285,-107.867l-39.283,107.867c-0.273,0.749 -1.102,1.135 -1.85,0.862c-0.749,-0.273 -1.135,-1.101 -0.862,-1.85l40.64,-111.592c0.207,-0.571 0.749,-0.95 1.355,-0.95c0.608,0 1.149,0.379 1.357,0.95l40.639,111.592c0.274,0.749 -0.112,1.577 -0.861,1.85c-0.164,0.059 -0.33,0.087 -0.495,0.087" style="fill:#91d3e0;fill-rule:nonzero;"/><path d="M200.77,102.373c-0.001,0 6.808,-3.854 8.938,0.326c2.13,4.179 -1.999,2.615 -3.836,3.389c-1.936,0.815 -3.294,1.596 -3.294,1.596l-1.808,-5.311Z" style="fill:#bf7339;fill-rule:nonzero;"/></g><g id="DESIGNED-BY-FREEPIK" serif:id="DESIGNED BY FREEPIK"></g></svg>