<?xml version="1.0" encoding="UTF-8" standalone="no"?><!DOCTYPE svg PUBLIC "-//W3C//DTD SVG 1.1//EN" "http://www.w3.org/Graphics/SVG/1.1/DTD/svg11.dtd"><svg width="100%" height="100%" viewBox="0 0 1870 1122" version="1.1" xmlns="http://www.w3.org/2000/svg" xmlns:xlink="http://www.w3.org/1999/xlink" xml:space="preserve" xmlns:serif="http://www.serif.com/" style="fill-rule:evenodd;clip-rule:evenodd;stroke-linejoin:round;stroke-miterlimit:2;"><g><path d="M1401.79,737.857c-56.87,0 -103.13,46.261 -103.13,103.123c0,56.863 46.26,103.125 103.13,103.125c56.86,0 103.12,-46.262 103.12,-103.125c0,-56.862 -46.26,-103.123 -103.12,-103.123Zm0,231.397c-70.73,0 -128.28,-57.543 -128.28,-128.274c0,-70.729 57.55,-128.272 128.28,-128.272c70.73,0 128.27,57.543 128.27,128.272c0,70.731 -57.54,128.274 -128.27,128.274Z" style="fill:#5b5ddf;fill-rule:nonzero;"/><path d="M1583,291.545c-42.37,0 -76.84,34.473 -76.84,76.846c0,42.374 34.47,76.847 76.84,76.847c42.38,0 76.85,-34.473 76.85,-76.847c0,-42.373 -34.47,-76.846 -76.85,-76.846Zm0,178.842c-56.24,0 -101.99,-45.755 -101.99,-101.996c0,-56.24 45.75,-101.995 101.99,-101.995c56.25,0 102,45.755 102,101.995c0,56.241 -45.75,101.996 -102,101.996Z" style="fill:#5b5ddf;fill-rule:nonzero;"/><path d="M302.929,332.581c-51.158,0 -92.781,41.622 -92.781,92.78c0,51.159 41.623,92.78 92.781,92.78c51.159,0 92.779,-41.621 92.779,-92.78c0,-51.158 -41.62,-92.78 -92.779,-92.78Zm0,210.709c-65.027,0 -117.929,-52.902 -117.929,-117.929c0,-65.026 52.902,-117.929 117.929,-117.929c65.025,0 117.927,52.903 117.927,117.929c0,65.027 -52.902,117.929 -117.927,117.929Z" style="fill:#5b5ddf;fill-rule:nonzero;"/><path d="M465.834,851.748c-34.056,0 -61.762,27.706 -61.762,61.762c0,34.056 27.706,61.762 61.762,61.762c34.057,0 61.763,-27.706 61.763,-61.762c0,-34.056 -27.706,-61.762 -61.763,-61.762Zm0,148.672c-47.923,0 -86.911,-38.987 -86.911,-86.91c0,-47.923 38.988,-86.911 86.911,-86.911c47.923,0 86.911,38.988 86.911,86.911c0,47.923 -38.988,86.91 -86.911,86.91Z" style="fill:#5b5ddf;fill-rule:nonzero;"/><path d="M568.871,694.688c-9.712,0 -17.612,7.9 -17.612,17.612c0,9.712 7.9,17.612 17.612,17.612c9.711,0 17.612,-7.9 17.612,-17.612c0,-9.712 -7.901,-17.612 -17.612,-17.612Zm0,60.373c-23.579,0 -42.762,-19.183 -42.762,-42.761c0,-23.579 19.183,-42.761 42.762,-42.761c23.578,0 42.761,19.182 42.761,42.761c0,23.578 -19.183,42.761 -42.761,42.761Z" style="fill:#5b5ddf;fill-rule:nonzero;"/><path d="M257.48,623.982c0,13.2 -10.7,23.901 -23.9,23.901c-13.2,0 -23.901,-10.701 -23.901,-23.901c0,-13.2 10.701,-23.901 23.901,-23.901c13.2,0 23.9,10.701 23.9,23.901Z" style="fill:#5b5ddf;fill-rule:nonzero;"/><path d="M918.958,913.511c0,13.2 -10.701,23.901 -23.901,23.901c-13.201,0 -23.902,-10.701 -23.902,-23.901c0,-13.2 10.701,-23.902 23.902,-23.902c13.2,0 23.901,10.702 23.901,23.902Z" style="fill:#5b5ddf;fill-rule:nonzero;"/><path d="M1528.9,604.336c0,13.201 -10.7,23.901 -23.9,23.901c-13.2,0 -23.9,-10.7 -23.9,-23.901c0,-13.2 10.7,-23.901 23.9,-23.901c13.2,0 23.9,10.701 23.9,23.901Z" style="fill:#5b5ddf;fill-rule:nonzero;"/><path d="M1334.06,145.479c0,13.201 -10.7,23.902 -23.9,23.902c-13.2,0 -23.9,-10.701 -23.9,-23.902c0,-13.199 10.7,-23.9 23.9,-23.9c13.2,0 23.9,10.701 23.9,23.9Z" style="fill:#5b5ddf;fill-rule:nonzero;"/><path d="M533.301,145.479c0,13.201 -10.702,23.902 -23.902,23.902c-13.2,0 -23.901,-10.701 -23.901,-23.902c0,-13.199 10.701,-23.9 23.901,-23.9c13.2,0 23.902,10.701 23.902,23.9Z" style="fill:#5b5ddf;fill-rule:nonzero;"/><path d="M949.93,254.903c0,13.2 -10.701,23.901 -23.901,23.901c-13.2,0 -23.901,-10.701 -23.901,-23.901c0,-13.2 10.701,-23.901 23.901,-23.901c13.2,0 23.901,10.701 23.901,23.901Z" style="fill:#5b5ddf;fill-rule:nonzero;"/><path d="M502.448,758.272c0,13.2 -10.701,23.901 -23.901,23.901c-13.2,0 -23.901,-10.701 -23.901,-23.901c0,-13.2 10.701,-23.901 23.901,-23.901c13.2,0 23.901,10.701 23.901,23.901Z" style="fill:#5b5ddf;fill-rule:nonzero;"/><path d="M1077.79,915.937c-9.72,0 -17.62,7.9 -17.62,17.612c0,9.712 7.9,17.612 17.62,17.612c9.71,0 17.61,-7.9 17.61,-17.612c0,-9.712 -7.9,-17.612 -17.61,-17.612Zm0,60.373c-23.58,0 -42.76,-19.183 -42.76,-42.761c0,-23.578 19.18,-42.761 42.76,-42.761c23.57,0 42.76,19.183 42.76,42.761c0,23.578 -19.19,42.761 -42.76,42.761Z" style="fill:#5b5ddf;fill-rule:nonzero;"/><path d="M1297.46,790.284l-147.4,-86.275l12.7,-21.704l147.4,86.274l-12.7,21.705Z" style="fill:#5b5ddf;fill-rule:nonzero;"/><path d="M1157.32,530.175l-7.89,-23.878l340.21,-112.434l7.89,23.878l-340.21,112.434Z" style="fill:#5b5ddf;fill-rule:nonzero;"/><path d="M672.331,544.181l-270.783,-81.246l7.226,-24.088l270.785,81.246l-7.228,24.088Z" style="fill:#5b5ddf;fill-rule:nonzero;"/><path d="M597.445,709.118l-5.309,-24.581l81.154,-17.528l5.309,24.581l-81.154,17.528Z" style="fill:#5b5ddf;fill-rule:nonzero;"/><path d="M536.807,888.257l-12.145,-22.024l195.784,-107.961l12.145,22.023l-195.784,107.962Z" style="fill:#5b5ddf;fill-rule:nonzero;"/><path d="M1055.12,908.634l-33.48,-72.53l22.83,-10.542l33.49,72.53l-22.84,10.542Z" style="fill:#5b5ddf;fill-rule:nonzero;"/><path d="M753.871,291.812c9.684,-0.73 16.968,-9.202 16.238,-18.886c-0.73,-9.684 -9.203,-16.968 -18.886,-16.238c-9.685,0.73 -16.969,9.202 -16.239,18.886c0.731,9.685 9.203,16.968 18.887,16.238Zm-4.54,-60.202c23.513,-1.773 44.083,15.913 45.856,39.425c1.772,23.512 -15.914,44.082 -39.425,45.855c-23.512,1.773 -44.082,-15.913 -45.855,-39.425c-1.773,-23.511 15.912,-44.082 39.424,-45.855Z" style="fill:#5b5ddf;fill-rule:nonzero;"/><path d="M777.018,297.392l38.843,69.806l-21.976,12.23l-38.844,-69.808l21.977,-12.228Z" style="fill:#5b5ddf;fill-rule:nonzero;"/><path d="M1118.23,207.402c5.42,8.06 16.38,10.211 24.44,4.794c8.06,-5.416 10.22,-16.38 4.8,-24.441c-5.42,-8.061 -16.38,-10.212 -24.44,-4.795c-8.06,5.417 -10.21,16.381 -4.8,24.442Zm50.11,-33.674c13.15,19.57 7.93,46.191 -11.64,59.342c-19.57,13.151 -46.19,7.929 -59.34,-11.641c-13.15,-19.571 -7.93,-46.191 11.64,-59.343c19.57,-13.15 46.19,-7.928 59.34,11.642Z" style="fill:#5b5ddf;fill-rule:nonzero;"/><path d="M1124.81,230.285l-85.95,147.598l-21.48,-13.072l85.95,-147.599l21.48,13.073Z" style="fill:#5b5ddf;fill-rule:nonzero;"/><g><g><path d="M716.818,476.408c-23.523,37.027 -37.178,80.906 -37.178,127.929c0,131.96 107.357,239.317 239.318,239.317c131.962,0 239.322,-107.357 239.322,-239.317c0,-14.632 -1.33,-28.959 -3.86,-42.873l-0.131,-0.718c-11.259,-60.964 -45.718,-113.898 -93.829,-149.292l-0.465,-0.341c-39.577,-28.971 -88.343,-46.095 -141.037,-46.095c-50.39,0 -97.182,15.668 -135.788,42.368l-0.454,0.315c-25.992,18.064 -48.231,41.155 -65.341,67.834l-0.557,0.873Zm-23.514,-15.745c18.698,-29.263 42.907,-54.679 71.182,-74.736l0.512,-0.362c43.57,-30.754 96.693,-48.839 153.96,-48.839c58.34,0 112.371,18.774 156.382,50.587l0,0c55.78,40.313 95.48,101.569 107.45,172.144l0.115,0.684c2.396,14.381 3.665,29.143 3.665,44.196c0,147.56 -120.05,267.609 -267.612,267.609c-147.562,0 -267.61,-120.049 -267.61,-267.609c0,-52.548 15.246,-101.592 41.515,-142.982l0.441,-0.692Z" style="fill:#5b5ddf;fill-rule:nonzero;"/></g></g><path d="M465.768,932.796l-0.017,0l-0.246,-0.011c-9.809,-0.175 -17.788,-8.31 -17.788,-18.136c0,-9.824 7.975,-17.961 17.779,-18.137c0.109,-0.002 0.219,-0.006 0.321,-0.013l0.063,-0.005c9.969,0.027 18.069,8.16 18.069,18.155c0,10.006 -8.117,18.147 -18.181,18.147Zm43.628,-27.936c0,-1.248 -0.85,-2.309 -2.063,-2.577l-9.387,-2.102l5.158,-8.139c0.667,-1.053 0.517,-2.404 -0.363,-3.282l-12.206,-12.228c-0.859,-0.859 -2.282,-1.008 -3.283,-0.363l-8.116,5.162l-2.098,-9.402c-0.27,-1.217 -1.329,-2.067 -2.576,-2.067l-17.258,0c-1.248,0 -2.308,0.85 -2.576,2.065l-2.098,9.405l-8.11,-5.159c-1.019,-0.656 -2.433,-0.5 -3.291,0.359l-12.204,12.231c-0.875,0.88 -1.025,2.226 -0.361,3.28l5.158,8.138l-9.387,2.102c-1.217,0.271 -2.065,1.331 -2.065,2.58l0.002,17.293c0,1.247 0.85,2.308 2.064,2.577l9.387,2.102l-5.158,8.141c-0.667,1.05 -0.518,2.398 0.361,3.28l12.204,12.225c0.852,0.862 2.267,1.015 3.285,0.367l8.117,-5.163l2.098,9.403c0.267,1.201 1.35,2.071 2.576,2.071l0.001,0l17.258,-0.004c1.249,0 2.309,-0.852 2.575,-2.066l2.098,-9.404l8.118,5.164c1.022,0.649 2.437,0.488 3.283,-0.365l12.198,-12.226c0.868,-0.863 1.024,-2.245 0.367,-3.284l-5.157,-8.139l9.385,-2.105c1.217,-0.27 2.067,-1.33 2.067,-2.577l-0.003,-17.293Z" style="fill:#5b5ddf;fill-rule:nonzero;"/><path d="M1605.28,376.038c-4.05,0 -7.34,-3.292 -7.34,-7.34c0,-4.047 3.29,-7.339 7.34,-7.339c4.04,0 7.33,3.292 7.33,7.339c0,4.048 -3.29,7.34 -7.33,7.34Zm-22.11,0c-4.05,0 -7.34,-3.292 -7.34,-7.34c0,-4.047 3.29,-7.339 7.34,-7.339c4.05,0 7.34,3.292 7.34,7.339c0,4.048 -3.29,7.34 -7.34,7.34Zm-23.17,0c-4.05,0 -7.34,-3.292 -7.34,-7.34c0,-4.047 3.29,-7.339 7.34,-7.339c4.04,0 7.33,3.292 7.33,7.339c0,4.048 -3.29,7.34 -7.33,7.34Zm23,-60.611c-33.85,0 -61.39,21.634 -61.39,48.223c0,26.589 27.54,48.221 61.39,48.221c1.78,0 3.6,-0.066 5.45,-0.197l4.82,11.659c0.37,0.9 1.16,1.531 2.09,1.681c0.16,0.032 0.33,0.046 0.49,0.046c0.8,0 1.56,-0.339 2.08,-0.927l17.58,-19.56c18.1,-8.866 28.89,-24.149 28.89,-40.923c0,-26.589 -27.54,-48.223 -61.4,-48.223Z" style="fill:#5b5ddf;fill-rule:nonzero;"/><path d="M934.337,744.643l87.073,-35.114c2.87,-1.154 4.299,-4.366 3.26,-7.272l-1.22,-3.394c-0.19,-0.531 -0.08,-1.121 0.26,-1.57c17.489,-22.896 5.54,-53.385 5.54,-53.385l-17.54,-44.833c-0.03,-0.087 -0.04,-0.127 -0.07,-0.214c-0.33,-1.539 -5.24,-22.883 -21.157,-22.883c-9.201,0 -14.278,4.013 -16.969,7.565c-0.891,1.177 -2.712,0.884 -3.054,-0.552c-1.098,-4.603 -4.73,-10.419 -15.87,-11.679c-12.367,-1.401 -17.301,5.543 -19.239,10.573c-0.52,1.347 -2.433,1.454 -3.06,0.154c-3.997,-8.291 -12.52,-17.905 -23.285,-14.317c-7.392,2.464 -10.783,7.217 -12.332,10.835c-0.607,1.417 -2.588,1.429 -3.148,-0.007l-17.901,-46.003c0,0 -8.614,-27.638 -26.562,-20.818c-17.946,6.819 -8.254,30.509 -8.254,30.509l41.333,109.187c0.57,1.508 -1.085,2.887 -2.465,2.053l-19.718,-11.922c-0.08,-0.056 -0.124,-0.088 -0.204,-0.144c-1.429,-1.246 -22.29,-18.994 -35.457,-5.134c-13.118,13.809 1.322,28.947 2.445,30.082c0.07,0.059 0.11,0.091 0.179,0.15l97.882,71.089c0.183,0.222 0.357,0.433 0.541,0.654l1.639,3.499c1.295,2.763 4.523,4.032 7.353,2.891Z" style="fill:#5b5ddf;fill-rule:nonzero;"/><path d="M1056.21,762.147l-19.621,-44.155c-1.409,-3.175 -5.089,-4.663 -8.309,-3.365l-96.093,38.693c-3.422,1.377 -4.995,5.337 -3.451,8.687l19.972,43.328c1.434,3.11 5.048,4.559 8.233,3.299l95.749,-37.865c3.41,-1.35 5.01,-5.269 3.52,-8.622Z" style="fill:#5b5ddf;fill-rule:nonzero;"/><path d="M819.853,472.104c1.755,4.565 6.107,7.364 10.72,7.364c1.371,0 2.768,-0.253 4.125,-0.774c5.919,-2.277 8.869,-8.929 6.59,-14.845l-11.999,-31.155c-2.277,-5.922 -8.926,-8.872 -14.846,-6.59c-5.919,2.277 -8.869,8.929 -6.589,14.846l11.999,31.154Z" style="fill:#5b5ddf;fill-rule:nonzero;"/><path d="M767.85,491.268l30.514,13.549c1.515,0.673 3.097,0.993 4.656,0.993c4.399,0 8.6,-2.546 10.503,-6.831c2.576,-5.799 -0.039,-12.585 -5.837,-15.159l-30.515,-13.55c-5.788,-2.58 -12.579,0.034 -15.159,5.838c-2.574,5.799 0.039,12.585 5.838,15.16Z" style="fill:#5b5ddf;fill-rule:nonzero;"/><path d="M929.336,537.531l-30.518,-13.55c-5.794,-2.58 -12.586,0.034 -15.16,5.838c-2.574,5.799 0.04,12.585 5.839,15.16l30.518,13.549c1.514,0.673 3.095,0.993 4.655,0.993c4.399,0 8.602,-2.546 10.504,-6.831c2.574,-5.799 -0.039,-12.585 -5.838,-15.159Z" style="fill:#5b5ddf;fill-rule:nonzero;"/><path d="M812.894,528.294c-2.281,-5.917 -8.929,-8.873 -14.849,-6.59l-31.16,11.996c-5.919,2.277 -8.869,8.923 -6.592,14.845c1.758,4.56 6.11,7.364 10.723,7.364c1.371,0 2.767,-0.252 4.125,-0.774l31.16,-11.996c5.919,-2.277 8.869,-8.923 6.593,-14.845Z" style="fill:#5b5ddf;fill-rule:nonzero;"/><path d="M884.289,500.504c1.759,4.56 6.11,7.364 10.724,7.364c1.371,0 2.767,-0.252 4.125,-0.774l31.16,-11.996c5.919,-2.277 8.869,-8.923 6.592,-14.845c-2.28,-5.917 -8.923,-8.861 -14.848,-6.59l-31.16,11.996c-5.919,2.277 -8.869,8.923 -6.593,14.845Z" style="fill:#5b5ddf;fill-rule:nonzero;"/><path d="M825.461,595.139l13.55,-30.514c2.574,-5.799 -0.039,-12.585 -5.838,-15.16c-5.794,-2.574 -12.582,0.034 -15.159,5.838l-13.55,30.515c-2.574,5.799 0.039,12.585 5.838,15.16c1.514,0.672 3.095,0.992 4.655,0.992c4.399,0 8.601,-2.546 10.504,-6.831Z" style="fill:#5b5ddf;fill-rule:nonzero;"/><path d="M864.013,479.333c1.514,0.673 3.098,0.993 4.655,0.993c4.402,0 8.603,-2.547 10.504,-6.831l13.547,-30.52c2.574,-5.8 -0.042,-12.586 -5.838,-15.16c-5.799,-2.58 -12.588,0.039 -15.159,5.838l-13.547,30.521c-2.574,5.799 0.042,12.585 5.838,15.159Z" style="fill:#5b5ddf;fill-rule:nonzero;"/><path d="M1425.58,886.399l-47.58,0c-3.24,0 -5.86,-2.621 -5.86,-5.855l0,-91.744c0,-3.233 2.62,-5.854 5.86,-5.854l47.58,0c3.23,0 5.85,2.621 5.85,5.854l0,91.744c0,3.234 -2.62,5.855 -5.85,5.855Zm-16.33,16.295c0,1.618 -1.3,2.927 -2.92,2.927l-9.08,0c-1.62,0 -2.93,-1.309 -2.93,-2.927l0,-5.009c0,-1.617 1.31,-2.924 2.93,-2.924l9.08,0c1.62,0 2.92,1.307 2.92,2.924l0,5.009Zm21.24,-133.481l-57.4,0c-6.64,0 -12.02,5.495 -12.02,12.27l0,118.993c0,6.776 5.38,12.273 12.02,12.273l57.4,0c6.64,0 12.01,-5.497 12.01,-12.273l0,-118.993c0,-6.775 -5.37,-12.27 -12.01,-12.27Z" style="fill:#5b5ddf;fill-rule:nonzero;"/><path d="M344.994,408.891c-1.292,0 -2.599,0.083 -3.903,0.25c0.136,-1.248 0.203,-2.426 0.203,-3.565c0,-19.811 -16.117,-35.93 -35.93,-35.93c-15.612,0 -29.492,10.223 -34.204,25.024c-1.094,-0.095 -2.121,-0.144 -3.116,-0.144c-21.014,0 -38.109,17.096 -38.109,38.11c0,21.013 17.095,38.111 38.109,38.111l76.95,0c17.055,0 30.929,-13.875 30.929,-30.929c0,-17.053 -13.874,-30.927 -30.929,-30.927Z" style="fill:#5b5ddf;fill-rule:nonzero;"/></g></svg>