<?xml version="1.0" encoding="UTF-8" standalone="no"?><!DOCTYPE svg PUBLIC "-//W3C//DTD SVG 1.1//EN" "http://www.w3.org/Graphics/SVG/1.1/DTD/svg11.dtd"><svg width="100%" height="100%" viewBox="0 0 269 265" version="1.1" xmlns="http://www.w3.org/2000/svg" xmlns:xlink="http://www.w3.org/1999/xlink" xml:space="preserve" xmlns:serif="http://www.serif.com/" style="fill-rule:evenodd;clip-rule:evenodd;stroke-linecap:round;stroke-linejoin:round;stroke-miterlimit:1.5;"><path d="M85.551,82.262l18.166,-10.488l18.165,10.488l-18.165,10.489l-18.166,-10.489Z" style="fill:#f0f1f1;fill-rule:nonzero;"/><path d="M103.717,82.262l0,-15.627l-18.166,-10.488l0,15.627l18.166,10.488Z" style="fill:#c13e26;fill-rule:nonzero;"/><path d="M103.717,66.635l18.165,-10.488l0,15.627l-18.165,10.488l0,-15.627Z" style="fill:#1f3e79;fill-rule:nonzero;"/><path d="M103.717,82.262l0,-15.627l-18.166,-10.488l0,15.627l18.166,10.488Z" style="fill:#5593ce;fill-rule:nonzero;"/><path d="M85.551,56.147l18.166,-10.487l18.165,10.487l-18.165,10.488l-18.166,-10.488Z" style="fill:#d4ebfa;fill-rule:nonzero;"/><path d="M103.717,66.635l-18.166,-10.488l0,1.591l18.166,10.487l18.165,-10.487l0,-1.591l-18.165,10.488Z" style="fill:#fff;fill-rule:nonzero;"/><path d="M102.932,81.809l0.785,0.453l0.784,-0.453l0,-14.875l-1.569,0l0,14.875Z" style="fill:#fff;fill-rule:nonzero;"/><path d="M144.673,83.09l18.166,-10.489l18.166,10.489l-18.166,10.488l-18.166,-10.488Z" style="fill:#f0f1f1;fill-rule:nonzero;"/><path d="M162.839,83.09l0,-62.115l-18.166,-10.488l0,62.114l18.166,10.489Z" style="fill:#c3ebe0;fill-rule:nonzero;"/><path d="M162.839,20.975l18.166,-10.488l0,62.114l-18.166,10.489l0,-62.115Z" style="fill:#a5dac9;fill-rule:nonzero;"/><path d="M144.673,10.487l18.166,-10.487l18.166,10.487l-18.166,10.488l-18.166,-10.488Z" style="fill:#9acdbd;fill-rule:nonzero;"/><path d="M162.838,20.975l-18.165,-10.488l0,1.805l18.165,10.487l18.167,-10.487l0,-1.805l-18.167,10.488Z" style="fill:#fff;fill-rule:nonzero;"/><path d="M162.054,82.637l0.785,0.453l0.783,-0.453l0,-61.161l-1.568,0l0,61.161Z" style="fill:#fff;fill-rule:nonzero;"/><path d="M115.158,99.143l18.166,-10.488l18.166,10.488l-18.166,10.488l-18.166,-10.488Z" style="fill:#f0f1f1;fill-rule:nonzero;"/><path d="M133.324,99.143l0,-40.505l-18.166,-10.488l0,40.505l18.166,10.488Z" style="fill:#d4ebfa;fill-rule:nonzero;"/><path d="M133.324,58.638l18.166,-10.488l0,40.505l-18.166,10.488l0,-40.505Z" style="fill:#5593ce;fill-rule:nonzero;"/><path d="M115.158,48.15l18.166,-10.487l18.166,10.487l-18.166,10.488l-18.166,-10.488Z" style="fill:#5593ce;fill-rule:nonzero;"/><path d="M133.324,58.638l-18.166,-10.489l0,1.703l18.166,10.487l18.166,-10.487l0,-1.703l-18.166,10.489Z" style="fill:#fff;fill-rule:nonzero;"/><path d="M154.091,187.549c-1.28,-0.193 -2.493,-0.575 -3.496,-1.154c-3.007,-1.736 -3.007,-4.551 0,-6.287c3.007,-1.737 7.883,-1.737 10.89,0c1.003,0.579 1.664,1.28 1.998,2.019l20.808,-12.015l-44.275,-25.561c-3.719,-2.147 -9.75,-2.148 -13.469,0l-44.274,25.56l20.389,11.773c-0.788,0.214 -1.529,0.503 -2.18,0.879c-3.007,1.735 -3.007,4.55 0,6.287c3.008,1.736 7.883,1.736 10.891,0c0.65,-0.376 1.151,-0.804 1.521,-1.259l20.389,11.772l20.808,-12.014Z" style="fill:#f0f1f1;fill-rule:nonzero;"/><path d="M259.505,118.196l-48.01,-27.718l-25.205,14.552c-0.404,-0.895 -1.204,-1.744 -2.419,-2.446c-1.274,-0.736 -2.825,-1.207 -4.46,-1.429c-0.811,-1.058 -3.527,-4.3 -3.797,-4.376c-0.316,-0.091 -7.66,-2.215 -7.66,-2.215l0,11.764c-0.029,1.399 0.877,2.804 2.726,3.871c1.216,0.702 2.685,1.164 4.236,1.397l-12.681,7.323l-12.522,-4.488l0,74.977l25.945,14.981c0.139,-1.262 1.033,-2.502 2.703,-3.466c1.973,-1.139 4.608,-1.655 7.189,-1.561l0,10.737l25.947,14.98l53.625,-30.96c2.302,-1.33 3.42,-3.082 3.368,-4.824l0.005,0.003l0,-74.746l-8.99,3.644Z" style="fill:#386dab;fill-rule:nonzero;"/><path d="M211.495,90.478l-0.186,0.108l0,134.385l0.188,0.108l53.625,-30.96c2.302,-1.33 3.42,-3.082 3.368,-4.824l0.005,0.003l0,-74.746l-8.99,3.644l-48.01,-27.718Z" style="fill:#1f3e79;fill-rule:nonzero;"/><path d="M185.55,138.513l0,-3.391l2.937,1.695l-2.937,1.696Z" style="fill:#386dab;fill-rule:nonzero;"/><path d="M175.658,120.304l0,84.08c0.141,-1.26 1.035,-2.498 2.703,-3.461c3.643,-2.103 9.548,-2.103 13.191,0c0.782,0.451 1.385,0.966 1.832,1.512c1.941,-0.609 3.979,-0.955 6.057,-1.06l0,-81.071l-23.783,0Z" style="fill:#1f3e79;fill-rule:nonzero;"/><path d="M200.117,218.511l0.023,-73.395l-14.59,-8.424l0,73.407l14.567,8.412Z" style="fill:#386dab;fill-rule:nonzero;"/><path d="M268.411,115.218c-0.294,1.433 -1.384,2.823 -3.289,3.924l-53.625,30.96l-22.616,-13.057c-0.026,-0.356 -0.13,-1.073 -0.13,-1.073l-3.201,-0.85l0,1.57l25.947,14.981l53.625,-30.96c2.598,-1.501 3.689,-3.54 3.289,-5.495Z" style="fill:#fff;fill-rule:nonzero;"/><path d="M167.959,96.298l0,-1.597l1.268,0.41l-1.268,1.187Z" style="fill:#fff;fill-rule:nonzero;"/><path d="M265.121,109.721l-53.626,-30.961l-25.205,14.552c-0.404,-0.895 -1.204,-1.743 -2.419,-2.445c-3.642,-2.103 -9.548,-2.103 -13.191,0c-3.642,2.102 -3.642,5.513 0,7.615c1.216,0.702 2.685,1.164 4.236,1.398l-25.203,14.551l25.945,14.98c0.139,-1.262 1.034,-2.501 2.704,-3.466c3.643,-2.102 9.548,-2.102 13.19,0c3.643,2.104 3.644,5.513 0,7.615c-1.669,0.966 -3.816,1.483 -6.002,1.562l25.947,14.98l53.625,-30.96c4.504,-2.601 4.504,-6.818 -0.001,-9.421Z" style="fill:#d4ebfa;fill-rule:nonzero;"/><path d="M170.68,100.052c0.688,0.398 1.464,0.709 2.283,0.956l1.953,-1.128c-1.551,-0.234 -3.02,-0.696 -4.236,-1.398c-1.473,-0.85 -2.34,-1.916 -2.621,-3.022c-0.413,1.627 0.453,3.341 2.621,4.592Z" style="fill:#fff;fill-rule:nonzero;"/><path d="M194.174,130.539c0.413,-1.627 -0.454,-3.341 -2.622,-4.594c-3.642,-2.102 -9.547,-2.102 -13.19,0c-1.67,0.965 -2.565,2.204 -2.704,3.466l-25.945,-14.98l0,1.57l25.945,14.98c0.139,-1.261 1.034,-2.501 2.704,-3.465c3.643,-2.103 9.548,-2.103 13.19,0c1.474,0.851 2.341,1.917 2.622,3.023Z" style="fill:#fff;fill-rule:nonzero;"/><path d="M118.789,187.709l0,-73.036l-12.315,4.607l-12.382,-7.148c-0.448,0.55 -1.054,1.069 -1.843,1.524c-3.642,2.104 -9.548,2.104 -13.191,0c-3.558,-2.054 -3.63,-5.354 -0.235,-7.465l2.877,1.61l0,-14.542l-8.912,0l-0.884,6.063l-14.901,-8.604l-47.435,27.387l-9.568,-3.432l0,73.035c0,1.704 1.127,3.409 3.379,4.709l53.626,30.961l25.168,-14.53c0.413,0.875 1.206,1.703 2.396,2.39c3.643,2.103 9.548,2.103 13.191,0c1.89,-1.091 2.791,-2.536 2.718,-3.966l0,-8.993l18.311,-10.57Z" style="fill:#1f3e79;fill-rule:nonzero;"/><path d="M57.003,90.718l-47.435,27.387l-9.568,-3.432l0,73.035c0,1.704 1.127,3.409 3.379,4.709l53.626,30.961l0,-132.659l-0.002,-0.001Z" style="fill:#386dab;fill-rule:nonzero;"/><path d="M79.575,93.314l-0.308,0.793l0.074,0.07c-0.095,0.048 -0.192,0.094 -0.283,0.147c-2.168,1.252 -3.035,2.967 -2.621,4.593c0.281,-1.106 1.147,-2.171 2.621,-3.023c0.789,-0.456 1.688,-0.806 2.642,-1.064l0,-1.571l-2.125,0.055Z" style="fill:#fff;fill-rule:nonzero;"/><path d="M97.76,130.587c-1.19,-0.688 -2.624,-1.146 -4.14,-1.384l25.169,-14.53l-24.698,-14.259c-0.447,0.552 -1.053,1.07 -1.842,1.525c-3.642,2.104 -9.548,2.104 -13.191,0c-3.642,-2.102 -3.642,-5.512 0,-7.615c0.789,-0.456 1.688,-0.806 2.642,-1.065l-24.697,-14.257l-53.624,30.96c-4.505,2.601 -4.505,6.818 0,9.42l53.626,30.961l25.168,-14.531c0.413,0.875 1.206,1.702 2.396,2.39c3.643,2.103 9.548,2.103 13.191,0c3.642,-2.103 3.642,-5.513 0,-7.615Z" style="fill:#5593ce;fill-rule:nonzero;"/><path d="M97.76,138.202c-3.643,2.103 -9.548,2.103 -13.191,0c-1.19,-0.688 -1.983,-1.515 -2.396,-2.39l-25.168,14.531l-53.626,-30.961c-1.906,-1.101 -2.996,-2.492 -3.289,-3.925c-0.4,1.956 0.689,3.994 3.289,5.495l53.626,30.961l25.168,-14.53c0.413,0.875 1.206,1.702 2.396,2.389c3.643,2.104 9.548,2.104 13.191,0c2.168,-1.252 3.035,-2.966 2.621,-4.592c-0.28,1.106 -1.147,2.171 -2.621,3.022Z" style="fill:#fff;fill-rule:nonzero;"/><path d="M93.62,129.203c0.669,0.105 1.315,0.261 1.938,0.452l23.231,-13.412l0,-1.57l-25.169,14.53Z" style="fill:#fff;fill-rule:nonzero;"/><path d="M183.017,163.899l-13.896,-8.022c2.185,-0.08 4.332,-0.597 6.003,-1.561c1.523,-0.88 2.401,-1.989 2.649,-3.134l0.08,0.053l0,-0.702l0,-0.049l0,-11.746l-11.752,4.569l2.703,1.824c-2.478,-0.042 -4.98,0.477 -6.871,1.569c-1.67,0.965 -2.565,2.204 -2.703,3.467l-25.947,-14.981l-15.246,8.802l-1.582,-5.286l-8.339,-0.702l0,13.023l2.548,-0.646c0.562,0.206 1.101,0.44 1.591,0.723c3.642,2.103 3.642,5.512 0,7.616c-3.643,2.102 -9.548,2.102 -13.19,0c-1.191,-0.688 -1.984,-1.515 -2.397,-2.391l-13.93,8.044l-11.238,-5.229l0,72.268l53.627,30.961c4.505,2.602 11.811,2.602 16.316,0l53.625,-30.96l0,-72.268l-12.051,4.758Z" style="fill:#a5dac9;fill-rule:nonzero;"/><path d="M112.255,139.383c-0.571,-0.33 -1.21,-0.591 -1.877,-0.815l-0.227,-0.444l-2.035,-0.124l0,1.569c1.515,0.238 2.949,0.696 4.139,1.384c1.474,0.852 2.341,1.917 2.621,3.023c0.414,-1.627 -0.453,-3.341 -2.621,-4.593Z" style="fill:#fff;fill-rule:nonzero;"/><path d="M133.282,151.913l-19.872,0c2.431,2.093 2.049,4.953 -1.155,6.803c-3.643,2.102 -9.548,2.102 -13.19,0c-1.19,-0.688 -1.984,-1.515 -2.397,-2.391l-13.93,8.044l-11.238,-5.229l0,72.268l53.627,30.961c2.252,1.301 5.204,1.952 8.155,1.952l0,-112.408Z" style="fill:#c3ebe0;fill-rule:nonzero;"/><path d="M169.121,144.16c2.185,-0.08 4.332,-0.597 6.003,-1.561c3.641,-2.103 3.641,-5.512 -0.001,-7.615c-3.643,-2.103 -9.547,-2.103 -13.19,0c-1.67,0.964 -2.565,2.203 -2.703,3.465l-25.947,-14.98l-25.167,14.531c1.515,0.237 2.949,0.695 4.139,1.383c3.642,2.103 3.642,5.512 0,7.615c-3.643,2.103 -9.548,2.103 -13.19,0c-1.191,-0.687 -1.984,-1.515 -2.397,-2.39l-25.168,14.532l53.627,30.961c4.505,2.6 11.811,2.6 16.316,0l53.625,-30.96l-25.947,-14.981Z" style="fill:#c3ebe0;fill-rule:nonzero;"/><path d="M177.745,139.576c-0.281,1.106 -1.148,2.173 -2.621,3.023c-1.671,0.964 -3.818,1.481 -6.003,1.561l2.283,1.318c1.36,-0.252 2.64,-0.685 3.72,-1.308c2.168,-1.252 3.034,-2.967 2.621,-4.594Z" style="fill:#fff;fill-rule:nonzero;"/><path d="M141.443,190.101c-4.505,2.6 -11.811,2.6 -16.316,0l-53.627,-30.961l0,1.569l53.627,30.961c4.505,2.601 11.811,2.601 16.316,0.001l53.625,-30.96l0,-1.57l-53.625,30.96Z" style="fill:#fff;fill-rule:nonzero;"/><path d="M39.485,176.879c0,0 -3.795,-1.913 -6.127,0.936c-2.33,2.851 -5.661,9.579 -5.764,14.123c-0.104,4.546 3.596,4.24 5.796,3.165c2.2,-1.078 8.626,-10.399 9.016,-12.225c0.389,-1.826 -0.46,-4.297 -1.078,-4.78c-0.618,-0.483 -1.843,-1.219 -1.843,-1.219Z" style="fill:#5593ce;fill-rule:nonzero;"/><path d="M40.312,175.965l0.176,3.932c0.037,0.836 -0.383,1.632 -1.111,2.045c-0.663,0.376 -1.626,0.664 -2.927,0.455c-2.859,-0.459 -3.115,-1.276 -3.319,-5.207c-0.204,-3.93 7.181,-1.225 7.181,-1.225Z" style="fill:#d4ebfa;fill-rule:nonzero;"/><path d="M26.41,168.814c0,0 -3.795,-1.915 -6.125,0.935c-2.332,2.851 -5.663,9.577 -5.766,14.123c-0.103,4.547 3.597,4.239 5.797,3.163c2.2,-1.076 8.626,-10.397 9.015,-12.224c0.389,-1.826 -0.459,-4.295 -1.077,-4.779c-0.618,-0.483 -1.844,-1.218 -1.844,-1.218Z" style="fill:#5593ce;fill-rule:nonzero;"/><path d="M27.239,167.898l0.175,3.933c0.038,0.837 -0.383,1.633 -1.112,2.045c-0.662,0.376 -1.625,0.664 -2.927,0.456c-2.858,-0.46 -3.114,-1.276 -3.318,-5.208c-0.204,-3.931 7.182,-1.226 7.182,-1.226Z" style="fill:#d4ebfa;fill-rule:nonzero;"/><path d="M60.285,96.218c-1.123,-18.277 -19.794,2.689 -19.794,2.689l-12.777,12.524l-10.689,12.134c-2.247,2.468 -3.292,5.802 -2.858,9.112l4.654,35.442c0.231,1.751 1.729,3.041 3.494,3.027c0.498,-0.003 1.069,-0.048 1.724,-0.151c4.153,-0.646 3.846,-4.594 3.846,-4.594l-0.851,-33.15l23.347,-14.06c0,0 11.027,-4.697 9.904,-22.973Z" style="fill:#1f3e79;fill-rule:nonzero;"/><path d="M74.177,103.181c-1.123,-18.276 -19.793,2.689 -19.793,2.689l-12.779,12.524l-11.506,12.641c-2.246,2.468 -3.292,5.802 -2.857,9.111l4.654,35.443c0.23,1.75 1.727,3.041 3.493,3.027c0.499,-0.004 1.07,-0.049 1.725,-0.151c4.151,-0.647 3.845,-4.594 3.845,-4.594l-0.851,-33.15l24.164,-14.566c0,0 11.028,-4.697 9.905,-22.974Z" style="fill:#1f3e79;fill-rule:nonzero;"/><path d="M63.132,44.513c14.154,5.868 13.87,14.236 13.87,14.236c0,0 -2.772,30.674 -1.826,51.158c0.396,8.565 -45.499,9.219 -38.655,-13.629c8.071,-26.939 5.045,-48.747 8.823,-52.036c3.777,-3.289 14.127,-1.246 17.788,0.271Z" style="fill:#c3ebe0;fill-rule:nonzero;"/><path d="M67.686,51.932c-0.74,2.873 -4.506,4.388 -8.41,3.382c-3.905,-1.005 -6.47,-4.15 -5.73,-7.024c0.74,-2.873 4.507,-4.388 8.41,-3.382c3.905,1.006 6.47,4.15 5.73,7.024Z" style="fill:#fbc1b0;fill-rule:nonzero;"/><path d="M59.539,45.272c-0.967,0 -1.894,0.167 -2.722,0.5c-1.384,0.557 -2.313,1.511 -2.616,2.687c-0.302,1.175 0.05,2.461 0.993,3.616c0.991,1.216 2.501,2.134 4.25,2.584c3.538,0.91 6.941,-0.389 7.587,-2.896c0.646,-2.508 -1.706,-5.289 -5.244,-6.2c-0.755,-0.194 -1.513,-0.291 -2.248,-0.291Zm2.126,11.026c-0.83,0 -1.692,-0.105 -2.558,-0.329c-2.028,-0.521 -3.79,-1.6 -4.962,-3.039c-1.221,-1.497 -1.667,-3.206 -1.254,-4.809c0.413,-1.604 1.628,-2.883 3.421,-3.605c1.722,-0.69 3.786,-0.786 5.813,-0.264c4.26,1.098 7.048,4.619 6.216,7.849c-0.663,2.572 -3.426,4.197 -6.676,4.197Z" style="fill:#fff;fill-rule:nonzero;"/><path d="M57.457,43.876c0,0 0.122,0.567 -0.124,5.051c-0.076,1.411 4.861,2.728 6.137,1.452c1.276,-1.277 0.766,-2.604 1.072,-7.402c0.306,-4.8 -7.085,0.899 -7.085,0.899Z" style="fill:#fbc1b0;fill-rule:nonzero;"/><path d="M64.542,42.977c0,0 -1.215,4.448 -7.209,6.155l0.092,-4.044l7.117,-2.111Z" style="fill:#ea9c92;fill-rule:nonzero;"/><path d="M68.34,31.671c1.506,5.827 -1.995,11.77 -7.822,13.276c-5.825,1.506 -11.769,-1.995 -13.275,-7.821c-1.506,-5.826 1.995,-11.77 7.821,-13.276c5.826,-1.506 11.77,1.995 13.276,7.821Z" style="fill:#fbc1b0;fill-rule:nonzero;"/><path d="M60.294,34.798c0,0 -5.999,2.57 -10.152,2.6c-4.154,0.029 -3.239,-3.45 -3.239,-3.45l12.33,-1.781l1.061,2.631Z" style="fill:#ea9c92;fill-rule:nonzero;"/><path d="M48.903,35.476c0,0 5.225,-2.22 9.81,-1.295c1.077,0.218 2.076,0.795 2.77,1.648c0.227,0.278 0.513,0.533 0.838,0.606c0.813,0.184 2.144,-3.189 3.724,-3.266c1.58,-0.077 2.635,1.041 1.339,3.117c-1.295,2.073 -0.858,4.394 -0.262,4.727c0.597,0.333 7.976,-4.816 2.398,-15.864c-5.577,-11.048 -20.8,-4.79 -23.004,-2.552c0,0 -2.321,2.023 -4.208,0.223c0,0 -2.117,15.85 6.595,12.656Z" style="fill:#626262;fill-rule:nonzero;"/><path d="M69.062,81.159l0,8.288c0,0.95 -0.4,1.855 -1.101,2.495l-17.027,15.524l1.934,2.958l23.458,-15.381c1.049,-0.762 1.726,-1.933 1.862,-3.222l1.604,-15.381l-10.73,4.719Z" style="fill:#fbc1b0;fill-rule:nonzero;"/><path d="M75.804,54.603c0,0 5.166,7.769 7.09,28.218c0,0 -8.824,2.853 -13.832,1.233c-5.008,-1.62 6.742,-29.451 6.742,-29.451Z" style="fill:#c3ebe0;fill-rule:nonzero;"/><path d="M68.12,64.425c0,0 -2.023,10.825 -2.138,15.912c-0.031,1.397 0.823,2.659 2.137,3.134l0.001,0l0,-19.046Z" style="fill:#b1c7c0;fill-rule:nonzero;"/><path d="M63.701,118.243l-3.763,-0.497l-24.292,-14.025c-0.779,-0.449 -2.14,-0.393 -3.039,0.126l-17.214,9.935l-2.275,-0.301l0,2.265l0.002,0.001c-0.014,0.298 0.155,0.585 0.523,0.797l27.53,15.895c0.779,0.449 2.14,0.393 3.039,-0.126l18.746,-10.819c0.506,-0.292 0.758,-0.668 0.743,-1.022l0,-2.229Z" style="fill:#5593ce;fill-rule:nonzero;"/><path d="M45.449,109.381l-1.726,-0.996l-18.975,0l-9.355,5.397l-2.275,-0.301l0,2.265l0.002,0.001c-0.014,0.298 0.155,0.585 0.523,0.797l27.53,15.895c0.411,0.238 0.986,0.332 1.569,0.294l2.707,-23.352Z" style="fill:#386dab;fill-rule:nonzero;"/><path d="M14.128,113.615l-1.01,-0.134l0,2.265l0.002,0.001c-0.014,0.298 0.155,0.585 0.523,0.797l0.485,0.28l0,-3.209Z" style="fill:#5593ce;fill-rule:nonzero;"/><path d="M41.45,132.568c0.739,0.279 1.794,0.219 2.583,-0.161l0,-3.853l-2.583,0l0,4.014Z" style="fill:#5593ce;fill-rule:nonzero;"/><path d="M41.173,130.176l-27.53,-15.895c-0.779,-0.45 -0.681,-1.235 0.218,-1.755l18.746,-10.819c0.899,-0.52 2.26,-0.576 3.039,-0.126l27.53,15.894c0.779,0.45 0.681,1.236 -0.218,1.755l-18.746,10.82c-0.899,0.518 -2.26,0.575 -3.039,0.126Z" style="fill:#fff;fill-rule:nonzero;"/><path d="M40.707,127.766l-22.891,-13.216c-0.648,-0.374 -0.567,-1.027 0.181,-1.458l10.046,-5.65c0.748,-0.432 1.879,-0.478 2.527,-0.104l22.891,13.216c0.648,0.374 0.566,1.027 -0.181,1.458l-10.046,5.65c-0.747,0.432 -1.879,0.478 -2.527,0.104Z" style="fill:#d4ebfa;fill-rule:nonzero;"/><path d="M33.671,101.184l-0.285,1.9c-0.242,1.619 -0.2,3.267 0.124,4.871l0.339,1.674c0.191,0.944 0.939,1.677 1.887,1.849c0.74,0.135 1.439,-0.384 1.523,-1.134l0.454,-4.06c0,0 1.039,1.361 1.541,1.361c0.501,0 -0.561,-4.066 -1.696,-6.368c-1.134,-2.302 -3.887,-0.093 -3.887,-0.093Z" style="fill:#fbc1b0;fill-rule:nonzero;"/><path d="M43.004,70.994l-2.954,5.846c-0.699,1.383 -1.11,2.892 -1.209,4.439l-1.283,19.998l-3.887,-0.093l-1.764,-22.458c-0.054,-0.693 -0.021,-1.39 0.101,-2.076l2.015,-11.388l8.981,5.732Z" style="fill:#fbc1b0;fill-rule:nonzero;"/><path d="M40.241,131.702l-2.309,-3.014l-24.275,-14.054c-0.778,-0.451 -1.408,-1.658 -1.407,-2.696l0.021,-19.876l-1.396,-1.821l1.312,-0.76l0.002,0.002c0.251,-0.162 0.584,-0.158 0.951,0.055l27.511,15.929c0.778,0.45 1.409,1.657 1.408,2.695l-0.025,21.644c0,0.585 -0.2,0.992 -0.514,1.155l-1.279,0.741Z" style="fill:#1f3e79;fill-rule:nonzero;"/><path d="M23.453,120.305l-1.724,-0.998l-9.468,-16.445l0.01,-10.8l-1.396,-1.821l1.312,-0.76l0.002,0.002c0.251,-0.162 0.584,-0.158 0.951,0.055l27.511,15.929c0.411,0.238 0.78,0.687 1.037,1.211l-18.235,13.627Z" style="fill:#386dab;fill-rule:nonzero;"/><path d="M11.495,91.05l-0.62,-0.809l1.312,-0.76l0.002,0.002c0.251,-0.162 0.584,-0.158 0.951,0.055l0.485,0.281l-2.13,1.231Z" style="fill:#5593ce;fill-rule:nonzero;"/><path d="M40.901,105.642c0.611,0.5 1.085,1.446 1.15,2.318l-2.689,1.551l-1.288,-2.237l2.827,-1.632Z" style="fill:#26508a;fill-rule:nonzero;"/><path d="M39.341,106.225l-27.511,-15.928c-0.779,-0.451 -1.411,0.026 -1.412,1.064l-0.023,21.645c-0.002,1.038 0.628,2.245 1.407,2.695l27.511,15.929c0.779,0.45 1.41,-0.027 1.411,-1.065l0.024,-21.644c0.001,-1.038 -0.629,-2.245 -1.407,-2.696Z" style="fill:#626262;fill-rule:nonzero;"/><path d="M52.868,110.424l-0.44,0.914c-0.508,1.051 -1.306,1.936 -2.3,2.548l-2.733,1.685c-0.85,0.523 -1.926,0.566 -2.789,0.065l-0.094,-0.057c-0.868,-0.544 -0.946,-1.791 -0.232,-2.526l2.856,-2.936c0,0 -1.604,1.23 -2.054,0.735c-0.33,-0.363 1.555,-2.134 3.003,-2.191c1.448,-0.059 2.849,-1.195 2.849,-1.195l1.934,2.958Z" style="fill:#fbc1b0;fill-rule:nonzero;"/><path d="M45.627,44.2c0,0 -10.468,11.389 -14.692,21.84c0,0 3.581,6.449 12.344,8.98c8.762,2.53 2.348,-30.82 2.348,-30.82Z" style="fill:#c3ebe0;fill-rule:nonzero;"/><path d="M41.306,74.344l1.698,-16.39l-3.999,15.356c0.713,0.372 1.484,0.717 2.301,1.034Z" style="fill:#b1c7c0;fill-rule:nonzero;"/><path d="M53.468,41.9l-2.812,-0.773c0,0 1.342,2.114 3.303,2.652c1.96,0.539 2.265,-1.121 2.265,-1.121l-2.756,-0.758Z" style="fill:#fff;fill-rule:nonzero;"/><path d="M212.326,151.194l0,73.402l-0.829,0.483l-0.889,-0.513l0,-73.763l1.718,0.391Z" style="fill:#fff;fill-rule:nonzero;"/><path d="M132.425,264.297c0.572,0.025 1.145,0.025 1.719,0l0,-71.323l-1.719,0l0,71.323Z" style="fill:#fff;fill-rule:nonzero;"/><path d="M56.146,222.882l0.859,0.496l0.86,-0.496l0,-71.719l-1.719,0l0,71.719Z" style="fill:#fff;fill-rule:nonzero;"/><path d="M132.54,98.69l0.784,0.453l0.785,-0.453l0,-39.528l-1.569,0l0,39.528Z" style="fill:#fff;fill-rule:nonzero;"/><path d="M226.447,124.924c-8.272,4.776 -21.686,4.776 -29.959,0c-8.272,-4.777 -8.273,-12.52 0,-17.297c8.273,-4.777 21.686,-4.777 29.959,0.001c8.273,4.776 8.273,12.52 0,17.296Z" style="fill:#5593ce;fill-rule:nonzero;"/><path d="M237.977,105.843l0,-4.874l-1.405,0c-1.262,-2.172 -3.363,-4.217 -6.36,-5.948c-10.353,-5.977 -27.138,-5.977 -37.492,0c-2.997,1.731 -5.097,3.776 -6.36,5.948l-1.403,0l0,4.834l0.002,0c-0.018,3.93 2.568,7.865 7.761,10.864c10.355,5.977 27.14,5.977 37.493,0c5.177,-2.989 7.764,-6.907 7.764,-10.824Z" style="fill:#1f3e79;fill-rule:nonzero;"/><path d="M230.213,111.793c-10.353,5.976 -27.138,5.976 -37.493,0c-10.353,-5.978 -10.353,-15.669 0,-21.647c10.354,-5.976 27.139,-5.976 37.492,0.001c10.354,5.978 10.354,15.668 0.001,21.646Z" style="fill:#5593ce;fill-rule:nonzero;"/><path d="M230.213,111.793c-10.353,5.976 -27.138,5.976 -37.493,0c-4.96,-2.866 -7.518,-6.583 -7.724,-10.337c-0.224,4.079 2.334,8.198 7.724,11.31c10.355,5.979 27.14,5.979 37.493,0c5.391,-3.112 7.948,-7.231 7.724,-11.309c-0.206,3.753 -2.762,7.47 -7.724,10.336Z" style="fill:#fff;fill-rule:nonzero;"/><path d="M199.689,106.037c-0.447,-0.257 -0.7,-0.608 -0.699,-0.977l0.027,-9.972c0.001,-0.76 1.072,-1.376 2.389,-1.375c1.318,0 2.383,0.618 2.382,1.379l2.069,5.626l21.909,-0.294c1.289,-0.159 2.555,0.317 2.829,1.061c0.274,0.744 -0.551,1.475 -1.839,1.633l-26.885,3.293c-0.705,0.086 -1.44,-0.016 -1.999,-0.278l-0.183,-0.096Z" style="fill:#fff;fill-rule:nonzero;"/><path d="M136.337,160.785l24.42,-14.098l0,21.007l-24.42,14.098l0,-21.007Z" style="fill:#a5dac9;fill-rule:nonzero;"/><path d="M136.337,181.792l0,-21.007l-24.42,-14.098l0,21.007l24.42,14.098Z" style="fill:#a5dac9;fill-rule:nonzero;"/><path d="M111.917,146.687l24.42,-14.098l24.42,14.098l-24.42,14.098l-24.42,-14.098Z" style="fill:#9acdbd;fill-rule:nonzero;"/><path d="M131.689,141.484l-2.804,5.453l13.781,-3.947l-3.213,8.39" style="fill:none;stroke:#fff;stroke-width:3px;"/><path d="M137.003,160.57l-1.643,0.09l1.035,21.029l0.608,-21.119Z" style="fill:#fff;"/><path d="M111.917,146.687l24.403,13.066l24.437,-13.066l-24.42,15.442l-24.42,-15.442Z" style="fill:#fff;fill-rule:nonzero;"/></svg>