<?xml version="1.0" encoding="UTF-8" standalone="no"?><!DOCTYPE svg PUBLIC "-//W3C//DTD SVG 1.1//EN" "http://www.w3.org/Graphics/SVG/1.1/DTD/svg11.dtd"><svg width="100%" height="100%" viewBox="0 0 248 270" version="1.1" xmlns="http://www.w3.org/2000/svg" xmlns:xlink="http://www.w3.org/1999/xlink" xml:space="preserve" xmlns:serif="http://www.serif.com/" style="fill-rule:evenodd;clip-rule:evenodd;stroke-linejoin:round;stroke-miterlimit:2;"><g opacity="0.5"><path d="M166.013,45.947l-35.84,-20.414c-0.112,-0.064 -0.203,-0.206 -0.203,-0.318l0,-25.097c0,-0.112 0.091,-0.151 0.203,-0.088l35.84,20.414c0.112,0.064 0.203,0.207 0.203,0.318l0,25.098c0,0.112 -0.091,0.151 -0.203,0.087" style="fill:#297de2;fill-rule:nonzero;"/><path d="M164.641,44.268l-33.096,-18.851c-0.099,-0.056 -0.179,-0.182 -0.179,-0.281l0,-21.161c0,-0.099 0.08,-0.134 0.179,-0.077l33.096,18.85c0.1,0.057 0.18,0.183 0.18,0.282l0,21.161c0,0.099 -0.08,0.133 -0.18,0.077" style="fill:#fff;fill-rule:nonzero;"/><path d="M158.231,23.405l-24.489,-13.949l0,-0.895l24.489,13.949l0,0.895Z" style="fill:#297de2;fill-rule:nonzero;"/><path d="M148.724,20.861l-14.982,-8.533l0,-0.895l14.982,8.533l0,0.895Z" style="fill:#297de2;fill-rule:nonzero;"/><path d="M135.21,15.178l-1.468,-0.836l0,-0.895l1.468,0.836l0,0.895Z" style="fill:#297de2;fill-rule:nonzero;"/><path d="M137.637,16.56l-1.469,-0.836l0,-0.895l1.469,0.836l0,0.895Z" style="fill:#3eedff;fill-rule:nonzero;"/><path d="M142.435,23.322l-6.268,-3.57l0,-0.895l6.268,3.57l0,0.895Z" style="fill:#ff5d24;fill-rule:nonzero;"/><path d="M142.435,25.336l-6.268,-3.57l0,-0.895l6.268,3.57l0,0.895Z" style="fill:#ff5d24;fill-rule:nonzero;"/><path d="M159.641,35.136l-2.438,-1.389l0,-0.895l2.438,1.389l0,0.895Z" style="fill:#ff5d24;fill-rule:nonzero;"/><path d="M142.435,27.349l-6.268,-3.57l0,-0.895l6.268,3.57l0,0.895Z" style="fill:#ff5d24;fill-rule:nonzero;"/><path d="M159.641,37.149l-6.268,-3.57l0,-0.895l6.268,3.57l0,0.895Z" style="fill:#ff5d24;fill-rule:nonzero;"/><path d="M142.435,29.364l-6.268,-3.57l0,-0.895l6.268,3.57l0,0.895Z" style="fill:#ff5d24;fill-rule:nonzero;"/><path d="M159.642,39.163l-13.27,-7.558l0,-0.895l13.27,7.558l0,0.895Z" style="fill:#ff5d24;fill-rule:nonzero;"/><path d="M140.113,17.971l-1.469,-0.836l0,-0.895l1.469,0.836l0,0.895Z" style="fill:#3eedff;fill-rule:nonzero;"/><path d="M142.601,19.388l-1.468,-0.836l0,-0.895l1.468,0.836l0,0.895Z" style="fill:#3eedff;fill-rule:nonzero;"/><path d="M159.714,18.875l-1.115,-0.635c-0.098,-0.055 -0.177,-0.179 -0.177,-0.277l0,-0.542c0,-0.098 0.079,-0.131 0.177,-0.076l1.115,0.635c0.098,0.056 0.177,0.18 0.177,0.277l0,0.542c0,0.097 -0.079,0.132 -0.177,0.076" style="fill:#3eedff;fill-rule:nonzero;"/><path d="M162.19,20.285l-1.115,-0.635c-0.098,-0.056 -0.177,-0.18 -0.177,-0.278l0,-0.541c0,-0.098 0.079,-0.132 0.177,-0.076l1.115,0.635c0.098,0.056 0.177,0.18 0.177,0.277l0,0.542c0,0.097 -0.079,0.132 -0.177,0.076" style="fill:#3eedff;fill-rule:nonzero;"/><path d="M164.679,21.703l-1.115,-0.635c-0.098,-0.056 -0.177,-0.18 -0.177,-0.277l0,-0.542c0,-0.098 0.079,-0.132 0.177,-0.076l1.115,0.635c0.097,0.056 0.176,0.18 0.176,0.277l0,0.542c0,0.097 -0.079,0.132 -0.176,0.076" style="fill:#3eedff;fill-rule:nonzero;"/><path d="M145.227,20.884l-1.469,-0.836l0,-0.895l1.469,0.836l0,0.895Z" style="fill:#3eedff;fill-rule:nonzero;"/><path d="M154.084,25.928l-7.823,-4.456l0,-0.895l7.823,4.456l0,0.895Z" style="fill:#3eedff;fill-rule:nonzero;"/><path d="M135.21,17.192l-1.468,-0.836l0,-0.895l1.468,0.836l0,0.895Z" style="fill:#297de2;fill-rule:nonzero;"/><path d="M159.152,30.829l-22.984,-13.091l0,-0.895l22.984,13.091l0,0.895Z" style="fill:#ff8b22;fill-rule:nonzero;"/><path d="M135.21,19.206l-1.468,-0.836l0,-0.895l1.468,0.836l0,0.895Z" style="fill:#297de2;fill-rule:nonzero;"/><path d="M135.21,21.22l-1.468,-0.836l0,-0.895l1.468,0.836l0,0.895Z" style="fill:#297de2;fill-rule:nonzero;"/><path d="M154.084,23.914l-3.082,-1.755l0,-0.895l3.082,1.755l0,0.895Z" style="fill:#297de2;fill-rule:nonzero;"/><path d="M161.35,25.181l-2.02,-1.15l0,-0.895l2.02,1.15l0,0.895Z" style="fill:#297de2;fill-rule:nonzero;"/><path d="M162.446,32.704l-2.021,-1.15l0,-0.895l2.021,1.15l0,0.895Z" style="fill:#ff8b22;fill-rule:nonzero;"/></g><g opacity="0.5"><path d="M0.203,81.606l35.841,-20.413c0.112,-0.064 0.203,-0.207 0.203,-0.319l0,-25.097c0,-0.112 -0.091,-0.151 -0.203,-0.088l-35.841,20.414c-0.112,0.064 -0.203,0.207 -0.203,0.319l0,25.097c0,0.112 0.091,0.151 0.203,0.087" style="fill:#297de2;fill-rule:nonzero;"/><path d="M1.575,79.927l33.097,-18.851c0.098,-0.056 0.178,-0.182 0.178,-0.281l0,-21.161c0,-0.099 -0.08,-0.134 -0.178,-0.077l-33.097,18.85c-0.099,0.057 -0.179,0.183 -0.179,0.282l0,21.161c0,0.099 0.08,0.134 0.179,0.077" style="fill:#fff;fill-rule:nonzero;"/><path d="M7.986,59.063l24.489,-13.948l0,-0.895l-24.489,13.948l0,0.895Z" style="fill:#297de2;fill-rule:nonzero;"/><path d="M17.493,56.52l14.982,-8.534l0,-0.895l-14.982,8.534l0,0.895Z" style="fill:#297de2;fill-rule:nonzero;"/><path d="M31.007,50.837l1.469,-0.836l0,-0.895l-1.469,0.836l0,0.895Z" style="fill:#297de2;fill-rule:nonzero;"/><path d="M28.581,52.219l1.468,-0.836l0,-0.895l-1.468,0.836l0,0.895Z" style="fill:#3eedff;fill-rule:nonzero;"/><path d="M23.781,58.981l6.268,-3.57l0,-0.895l-6.268,3.569l0,0.896Z" style="fill:#ff5d24;fill-rule:nonzero;"/><path d="M23.781,60.994l6.268,-3.57l0,-0.895l-6.268,3.57l0,0.895Z" style="fill:#ff5d24;fill-rule:nonzero;"/><path d="M6.575,70.794l2.439,-1.389l0,-0.895l-2.439,1.389l0,0.895Z" style="fill:#ff5d24;fill-rule:nonzero;"/><path d="M23.781,63.009l6.268,-3.57l0,-0.895l-6.268,3.57l0,0.895Z" style="fill:#ff5d24;fill-rule:nonzero;"/><path d="M6.575,72.808l6.268,-3.57l0,-0.895l-6.268,3.57l0,0.895Z" style="fill:#ff5d24;fill-rule:nonzero;"/><path d="M23.781,65.022l6.268,-3.57l0,-0.895l-6.268,3.57l0,0.895Z" style="fill:#ff5d24;fill-rule:nonzero;"/><path d="M6.575,74.822l13.27,-7.558l0,-0.895l-13.27,7.558l0,0.895Z" style="fill:#ff5d24;fill-rule:nonzero;"/><path d="M26.104,53.63l1.468,-0.836l0,-0.895l-1.468,0.836l0,0.895Z" style="fill:#3eedff;fill-rule:nonzero;"/><path d="M23.615,55.047l1.469,-0.836l0,-0.895l-1.469,0.836l0,0.895Z" style="fill:#3eedff;fill-rule:nonzero;"/><path d="M6.503,54.534l1.115,-0.635c0.098,-0.056 0.177,-0.18 0.177,-0.278l0,-0.541c0,-0.098 -0.079,-0.132 -0.177,-0.076l-1.115,0.635c-0.098,0.055 -0.177,0.18 -0.177,0.277l0,0.542c0,0.097 0.079,0.132 0.177,0.076" style="fill:#3eedff;fill-rule:nonzero;"/><path d="M4.027,55.944l1.114,-0.635c0.098,-0.055 0.177,-0.179 0.177,-0.277l0,-0.542c0,-0.098 -0.079,-0.131 -0.177,-0.076l-1.114,0.635c-0.098,0.056 -0.177,0.18 -0.177,0.277l0,0.542c0,0.097 0.079,0.132 0.177,0.076" style="fill:#3eedff;fill-rule:nonzero;"/><path d="M1.538,57.362l1.115,-0.635c0.098,-0.055 0.177,-0.179 0.177,-0.277l0,-0.542c0,-0.098 -0.079,-0.131 -0.177,-0.076l-1.115,0.635c-0.098,0.056 -0.177,0.18 -0.177,0.277l0,0.542c0,0.098 0.079,0.132 0.177,0.076" style="fill:#3eedff;fill-rule:nonzero;"/><path d="M20.99,56.543l1.468,-0.836l0,-0.895l-1.468,0.835l0,0.896Z" style="fill:#3eedff;fill-rule:nonzero;"/><path d="M12.134,61.587l7.823,-4.456l0,-0.895l-7.823,4.456l0,0.895Z" style="fill:#3eedff;fill-rule:nonzero;"/><path d="M31.007,52.851l1.469,-0.836l0,-0.895l-1.469,0.836l0,0.895Z" style="fill:#297de2;fill-rule:nonzero;"/><path d="M7.065,66.488l22.983,-13.091l0,-0.895l-22.983,13.091l0,0.895Z" style="fill:#ff8b22;fill-rule:nonzero;"/><path d="M31.007,54.865l1.469,-0.836l0,-0.895l-1.469,0.836l0,0.895Z" style="fill:#297de2;fill-rule:nonzero;"/><path d="M31.007,56.879l1.469,-0.836l0,-0.895l-1.469,0.835l0,0.896Z" style="fill:#297de2;fill-rule:nonzero;"/><path d="M12.134,59.573l3.082,-1.755l0,-0.895l-3.082,1.755l0,0.895Z" style="fill:#297de2;fill-rule:nonzero;"/><path d="M4.866,60.84l2.021,-1.15l0,-0.896l-2.021,1.151l0,0.895Z" style="fill:#297de2;fill-rule:nonzero;"/><path d="M3.771,68.364l2.021,-1.151l0,-0.895l-2.021,1.151l0,0.895Z" style="fill:#ff8b22;fill-rule:nonzero;"/></g><g opacity="0.5"><path d="M239.705,78.931l-52.274,-29.774c-0.164,-0.093 -0.297,-0.301 -0.297,-0.465l0,-36.605c0,-0.163 0.133,-0.22 0.297,-0.127l52.274,29.773c0.164,0.094 0.296,0.302 0.296,0.466l0,36.605c0,0.163 -0.132,0.22 -0.296,0.127" style="fill:#297de2;fill-rule:nonzero;"/><path d="M237.704,76.482l-48.272,-27.495c-0.145,-0.082 -0.262,-0.266 -0.262,-0.41l0,-30.865c0,-0.144 0.117,-0.194 0.262,-0.112l48.272,27.494c0.145,0.083 0.262,0.266 0.262,0.411l0,30.864c0,0.145 -0.117,0.195 -0.262,0.113" style="fill:#fff;fill-rule:nonzero;"/><path d="M228.353,46.052l-35.719,-20.344l0,-1.306l35.719,20.344l0,1.306Z" style="fill:#297de2;fill-rule:nonzero;"/><path d="M214.487,42.343l-21.853,-12.446l0,-1.306l21.853,12.447l0,1.305Z" style="fill:#297de2;fill-rule:nonzero;"/><path d="M194.776,34.054l-2.142,-1.22l0,-1.305l2.142,1.219l0,1.306Z" style="fill:#297de2;fill-rule:nonzero;"/><path d="M198.315,36.069l-2.142,-1.22l0,-1.305l2.142,1.22l0,1.305Z" style="fill:#3eedff;fill-rule:nonzero;"/><path d="M205.315,45.931l-9.142,-5.207l0,-1.305l9.142,5.207l0,1.305Z" style="fill:#ff5d24;fill-rule:nonzero;"/><path d="M205.315,48.868l-9.142,-5.207l0,-1.305l9.142,5.207l0,1.305Z" style="fill:#ff5d24;fill-rule:nonzero;"/><path d="M230.411,63.162l-3.558,-2.026l0,-1.306l3.558,2.027l0,1.305Z" style="fill:#ff5d24;fill-rule:nonzero;"/><path d="M205.315,51.806l-9.142,-5.207l0,-1.305l9.142,5.207l0,1.305Z" style="fill:#ff5d24;fill-rule:nonzero;"/><path d="M230.411,66.099l-9.142,-5.207l0,-1.305l9.142,5.207l0,1.305Z" style="fill:#ff5d24;fill-rule:nonzero;"/><path d="M205.315,54.743l-9.142,-5.207l0,-1.305l9.142,5.206l0,1.306Z" style="fill:#ff5d24;fill-rule:nonzero;"/><path d="M230.411,69.037l-19.354,-11.023l0,-1.306l19.354,11.024l0,1.305Z" style="fill:#ff5d24;fill-rule:nonzero;"/><path d="M201.928,38.127l-2.142,-1.22l0,-1.305l2.142,1.219l0,1.306Z" style="fill:#3eedff;fill-rule:nonzero;"/><path d="M205.557,40.194l-2.142,-1.22l0,-1.305l2.142,1.219l0,1.306Z" style="fill:#3eedff;fill-rule:nonzero;"/><path d="M230.516,39.446l-1.627,-0.927c-0.142,-0.08 -0.258,-0.261 -0.258,-0.404l0,-0.79c0,-0.143 0.116,-0.192 0.258,-0.111l1.627,0.926c0.142,0.081 0.258,0.263 0.258,0.405l0,0.79c0,0.142 -0.116,0.192 -0.258,0.111" style="fill:#3eedff;fill-rule:nonzero;"/><path d="M234.128,41.503l-1.626,-0.926c-0.143,-0.081 -0.258,-0.262 -0.258,-0.405l0,-0.79c0,-0.142 0.115,-0.192 0.258,-0.111l1.626,0.926c0.143,0.081 0.258,0.263 0.258,0.405l0,0.79c0,0.142 -0.115,0.192 -0.258,0.111" style="fill:#3eedff;fill-rule:nonzero;"/><path d="M237.758,43.57l-1.626,-0.926c-0.143,-0.081 -0.258,-0.262 -0.258,-0.405l0,-0.79c0,-0.142 0.115,-0.192 0.258,-0.111l1.626,0.926c0.143,0.081 0.258,0.263 0.258,0.405l0,0.79c0,0.142 -0.115,0.192 -0.258,0.111" style="fill:#3eedff;fill-rule:nonzero;"/><path d="M209.387,42.375l-2.142,-1.22l0,-1.305l2.142,1.219l0,1.306Z" style="fill:#3eedff;fill-rule:nonzero;"/><path d="M222.304,49.732l-11.41,-6.499l0,-1.305l11.41,6.498l0,1.306Z" style="fill:#3eedff;fill-rule:nonzero;"/><path d="M194.776,36.991l-2.142,-1.22l0,-1.305l2.142,1.219l0,1.306Z" style="fill:#297de2;fill-rule:nonzero;"/><path d="M229.697,56.881l-33.523,-19.094l0,-1.305l33.523,19.093l0,1.306Z" style="fill:#ff8b22;fill-rule:nonzero;"/><path d="M194.776,39.929l-2.142,-1.22l0,-1.305l2.142,1.219l0,1.306Z" style="fill:#297de2;fill-rule:nonzero;"/><path d="M194.776,42.866l-2.142,-1.22l0,-1.305l2.142,1.219l0,1.306Z" style="fill:#297de2;fill-rule:nonzero;"/><path d="M222.304,46.795l-4.495,-2.56l0,-1.306l4.495,2.56l0,1.306Z" style="fill:#297de2;fill-rule:nonzero;"/><path d="M232.903,48.643l-2.946,-1.678l0,-1.306l2.946,1.678l0,1.306Z" style="fill:#297de2;fill-rule:nonzero;"/><path d="M234.501,59.617l-2.946,-1.678l0,-1.305l2.946,1.678l0,1.305Z" style="fill:#ff8b22;fill-rule:nonzero;"/></g><path d="M109.237,210.923l0.012,-0.01c0,0 -0.338,-4.079 -13.747,-0.564l-12.924,3.636c-2.117,4.402 -1.57,8.876 -1.125,10.954c0.158,0.742 0.616,1.374 1.274,1.751l2.293,1.314c0.829,0.475 1.85,0.466 2.67,-0.023l4.196,-2.504c0.344,-0.206 0.584,-0.529 0.79,-0.872c0.92,-1.53 3.024,-1.862 5.856,-2.522c0.248,-0.056 0.498,-0.113 0.73,-0.177c0.123,-0.03 0.24,-0.055 0.366,-0.087c0.383,-0.099 0.68,-0.211 0.931,-0.331c3.549,-1.337 5.052,-3.643 7.145,-6.417c1.518,-2.013 1.896,-3.328 1.533,-4.148" style="fill:#003ca5;fill-rule:nonzero;"/><path d="M81.84,214.232c-0.003,1.842 1.027,3.561 2.701,4.33c1.356,0.624 2.973,1.066 4.385,1.163c2.482,0.172 5.202,-0.433 7.438,-1.856c2.212,-1.407 3.496,-3.902 3.483,-6.523l-0.185,-40.825c0.428,-12.16 -7.797,-12.141 -13.047,-12.652c-5.62,-0.549 -4.741,1.298 -4.713,6.944l-0.062,49.419Z" style="fill:#00246b;fill-rule:nonzero;"/><path d="M126.934,221.872l0.012,-0.01c0,0 -0.337,-4.078 -13.746,-0.564l-12.926,3.636c-2.115,4.402 -1.569,8.876 -1.124,10.954c0.157,0.742 0.617,1.374 1.275,1.752l2.292,1.313c0.828,0.475 1.85,0.466 2.671,-0.023l4.194,-2.504c0.345,-0.206 0.584,-0.529 0.79,-0.872c0.92,-1.53 3.024,-1.862 5.857,-2.522c0.247,-0.056 0.498,-0.113 0.729,-0.176c0.124,-0.031 0.24,-0.056 0.367,-0.088c0.383,-0.098 0.679,-0.211 0.93,-0.331c3.55,-1.337 5.052,-3.643 7.145,-6.417c1.518,-2.013 1.896,-3.328 1.533,-4.148" style="fill:#003ca5;fill-rule:nonzero;"/><path d="M99.463,225.181c-0.002,1.842 1.028,3.561 2.701,4.33c1.356,0.624 2.974,1.066 4.385,1.163c2.482,0.172 5.202,-0.433 7.439,-1.856c2.211,-1.407 3.495,-3.902 3.483,-6.522l-0.186,-40.826c0.428,-12.16 -7.796,-12.14 -13.047,-12.652c-5.619,-0.549 -4.741,1.298 -4.712,6.944l-0.063,49.419Z" style="fill:#00246b;fill-rule:nonzero;"/><g><g><path d="M142.616,168.702l5.271,-3.063l-0.106,81.147l-5.27,3.063l0.105,-81.147Z" style="fill:#003ca5;fill-rule:nonzero;"/><path d="M138.112,166.101l5.271,-3.063l4.503,2.6l-5.27,3.064l-4.504,-2.601Z" style="fill:#69b8b6;fill-rule:nonzero;"/><path d="M142.616,168.702l-0.105,81.147l-4.504,-2.6l0.105,-81.148l4.504,2.601Z" style="fill:#003ca5;fill-rule:nonzero;"/></g></g><g><g><path d="M197.085,157.097l5.271,-3.063l-0.106,61.214l-5.27,3.063l0.105,-61.214Z" style="fill:#003ca5;fill-rule:nonzero;"/><path d="M192.581,154.497l5.271,-3.063l4.503,2.6l-5.27,3.064l-4.504,-2.601Z" style="fill:#69b8b6;fill-rule:nonzero;"/><path d="M197.085,157.097l-0.105,61.214l-4.504,-2.6l0.105,-61.215l4.504,2.601Z" style="fill:#003ca5;fill-rule:nonzero;"/></g></g><g><g><path d="M19.218,119.004l5.271,-3.063l-0.106,61.214l-5.271,3.063l0.106,-61.214Z" style="fill:#003ca5;fill-rule:nonzero;"/><path d="M14.714,116.403l5.271,-3.063l4.503,2.6l-5.27,3.064l-4.504,-2.601Z" style="fill:#69b8b6;fill-rule:nonzero;"/><path d="M19.218,119.004l-0.106,61.214l-4.504,-2.601l0.106,-61.214l4.504,2.601Z" style="fill:#003ca5;fill-rule:nonzero;"/></g></g><path d="M213.567,154.542l-0.013,4.979l-69.955,40.653l0.015,-4.979l69.953,-40.653Z" style="fill:#8abfff;fill-rule:nonzero;"/><path d="M143.614,195.195l-0.015,4.979l-142.402,-81.854l0.015,-4.98l142.402,81.855Z" style="fill:#8abfff;fill-rule:nonzero;"/><path d="M213.567,154.542l-69.953,40.653l-142.402,-81.855l69.954,-40.652l142.401,81.854Z" style="fill:#e9f2ff;fill-rule:nonzero;"/><path d="M170.33,140.715l-15.671,9.044c-0.641,0.369 -1.689,0.365 -2.331,-0.008l-7.571,-4.402c-0.323,-0.188 -0.484,-0.434 -0.483,-0.681c-0.003,0.427 -0.005,0.854 -0.006,1.28c-0.002,0.246 0.159,0.494 0.481,0.681l7.571,4.402c0.643,0.373 1.691,0.376 2.33,0.008l15.672,-9.044c0.319,-0.183 0.478,-0.426 0.48,-0.669c0.002,-0.425 0.005,-0.852 0.007,-1.279c-0.001,0.243 -0.161,0.485 -0.479,0.668" style="fill:#8abfff;fill-rule:nonzero;"/><path d="M167.061,138.14c0.143,0.083 0.143,0.218 0.001,0.299c-0.144,0.083 -0.375,0.083 -0.519,-0.001l-2.204,-1.281c-0.142,-0.083 -0.143,-0.217 0,-0.3c0.143,-0.082 0.374,-0.081 0.518,0.001l2.204,1.282Z" style="fill:#8abfff;fill-rule:nonzero;"/><path d="M164.857,136.858c-0.144,-0.082 -0.375,-0.083 -0.518,-0.001c-0.143,0.083 -0.142,0.217 0,0.3l2.205,1.281c0.143,0.084 0.375,0.084 0.518,0.001c0.142,-0.081 0.142,-0.216 -0.001,-0.299l-2.204,-1.282Zm-9.114,11.494l13.03,-7.52c0.256,-0.146 0.256,-0.389 -0.001,-0.539l-7.626,-4.433c-0.257,-0.149 -0.676,-0.151 -0.932,-0.004l-13.029,7.52c-0.256,0.147 -0.256,0.39 0.001,0.54l7.626,4.433c0.257,0.15 0.675,0.151 0.931,0.003m14.582,-8.987c0.642,0.373 0.645,0.98 0.005,1.349l-15.671,9.044c-0.641,0.37 -1.69,0.366 -2.331,-0.007l-7.572,-4.403c-0.641,-0.373 -0.643,-0.979 -0.003,-1.348l15.671,-9.045c0.64,-0.369 1.689,-0.365 2.33,0.008l7.571,4.402Z" style="fill:#cce0ff;fill-rule:nonzero;"/><path d="M168.774,140.295c0.255,0.148 0.255,0.391 -0.001,0.537l-14.277,8.229c-0.449,0.258 -1.182,0.256 -1.629,-0.003l-7.055,-4.102c-0.38,-0.221 -0.379,-0.581 0.001,-0.8l14.401,-8.299c0.256,-0.148 0.674,-0.147 0.929,0.001l7.631,4.437Z" style="fill:#fff;fill-rule:nonzero;"/><path d="M167.848,138.925c0.137,-0.078 0.135,-0.205 0.006,-0.288c-0.143,-0.083 -0.376,-0.086 -0.519,-0.003c-0.138,0.08 -0.136,0.207 -0.007,0.29c0.144,0.083 0.376,0.084 0.52,0.001" style="fill:#8abfff;fill-rule:nonzero;"/><path d="M154.981,159.245l-22.944,13.439c-0.709,0.409 -1.868,0.405 -2.578,-0.008l-12.945,-7.525c-0.356,-0.207 -0.535,-0.48 -0.533,-0.753c-0.003,0.473 -0.005,0.945 -0.008,1.416c-0.002,0.272 0.176,0.545 0.533,0.752l12.945,7.525c0.71,0.413 1.869,0.417 2.576,0.008l22.945,-13.438c0.352,-0.203 0.528,-0.471 0.53,-0.739c0.002,-0.472 0.005,-0.944 0.007,-1.415c-0.001,0.268 -0.176,0.536 -0.528,0.738" style="fill:#8abfff;fill-rule:nonzero;"/><path d="M133.236,171.129l20.024,-11.754c0.283,-0.161 0.283,-0.431 -0.002,-0.596l-13.004,-7.558c-0.285,-0.165 -0.748,-0.167 -1.031,-0.004l-20.023,11.753c-0.283,0.163 -0.282,0.432 0.002,0.597l13.004,7.559c0.284,0.166 0.747,0.166 1.03,0.003m21.739,-13.376c0.711,0.412 0.714,1.084 0.006,1.492l-22.944,13.44c-0.709,0.408 -1.868,0.404 -2.578,-0.009l-12.945,-7.525c-0.709,-0.412 -0.711,-1.083 -0.004,-1.491l22.946,-13.439c0.707,-0.408 1.866,-0.404 2.575,0.009l12.944,7.523Z" style="fill:#cce0ff;fill-rule:nonzero;"/><path d="M153.262,158.781c0.281,0.164 0.281,0.432 -0.001,0.594l-21.404,12.537c-0.495,0.286 -1.307,0.284 -1.801,-0.003l-12.374,-7.192c-0.42,-0.245 -0.419,-0.642 0.002,-0.884l21.54,-12.616c0.283,-0.164 0.745,-0.163 1.027,0.002l13.011,7.562Z" style="fill:#fff;fill-rule:nonzero;"/><path d="M147.985,154.417c0.157,0.092 0.157,0.241 0.001,0.331c-0.159,0.092 -0.415,0.091 -0.573,-0.001l-2.438,-1.418c-0.158,-0.091 -0.159,-0.239 0,-0.331c0.157,-0.091 0.414,-0.09 0.572,0.002l2.438,1.417Z" style="fill:#8abfff;fill-rule:nonzero;"/><path d="M148.854,155.285c0.151,-0.088 0.149,-0.228 0.008,-0.319c-0.158,-0.092 -0.418,-0.095 -0.574,-0.004c-0.155,0.089 -0.152,0.228 -0.008,0.32c0.158,0.093 0.416,0.094 0.574,0.003" style="fill:#8abfff;fill-rule:nonzero;"/><path d="M102.225,84.481c-0.661,-0.382 -1.205,-0.07 -1.21,0.689l-0.068,24.755c-0.003,0.76 0.54,1.696 1.201,2.077l39.017,22.527c0.664,0.382 1.208,0.076 1.21,-0.683l0.071,-24.756c0.001,-0.761 -0.538,-1.699 -1.202,-2.082l-39.019,-22.527Z" style="fill:#fff;fill-rule:nonzero;"/><path d="M73.174,128.22c0,0.028 0.003,0.056 0.008,0.086c0.002,0.027 0.004,0.056 0.008,0.084c0.004,0.025 0.012,0.051 0.017,0.076c0.008,0.027 0.015,0.056 0.024,0.082c0.008,0.023 0.019,0.046 0.03,0.069c0.012,0.03 0.024,0.061 0.04,0.089c0.009,0.023 0.024,0.043 0.036,0.063c0.02,0.033 0.041,0.065 0.064,0.098c0.014,0.02 0.032,0.039 0.047,0.058c0.032,0.04 0.068,0.082 0.108,0.12c0.019,0.018 0.037,0.038 0.057,0.057c0.025,0.022 0.049,0.044 0.076,0.065c0.027,0.024 0.055,0.046 0.087,0.068c0.027,0.021 0.057,0.041 0.088,0.061c0.044,0.032 0.091,0.062 0.142,0.093l15.322,8.845l0.002,-0.922l3.386,-1.969l-4.889,-2.837l0.001,-0.365l-0.317,0.183l-6.644,-3.856l0.008,-2.317l3.109,-1.798l0.714,0.413l0.002,-0.826l1.041,-0.602l2.067,-1.196l3.6,-2.081l0.899,0.522l0.005,-1.044l3.108,-1.796l0.697,0.403l0.002,-0.806l3.106,-1.795l3.22,1.867l-0.003,0.714l0.618,-0.357l3.218,1.869l-0.001,0.711l0.617,-0.357l3.219,1.872l-0.001,0.711l0.617,-0.357l3.216,1.87l-0.002,0.713l0.619,-0.357l3.221,1.868l-0.003,0.712l0.614,-0.355l3.222,1.869l-0.002,0.71l0.615,-0.355l3.221,1.87l-0.001,0.711l0.615,-0.354l3.218,1.868l-0.001,0.71l0.613,-0.353l3.223,1.867l-0.006,2.319l-1.801,1.041l0.766,0.445l0.002,-0.806l3.108,-1.797l3.22,1.871l-0.007,2.318l-3.105,1.796l-0.697,-0.406l-0.003,0.807l-3.107,1.799l-0.697,-0.404l-0.003,0.806l-3.109,1.797l-0.691,-0.403l-0.002,0.806l-3.111,1.796l-0.714,-0.414l-0.002,0.827l-3.107,1.798l-6.825,-3.96l0.001,-0.465l-0.401,0.235l-5.034,-2.924l0.001,-0.53l-0.457,0.265l-1.841,-1.068l-0.003,0.889l-3.379,1.966l12.529,7.233c0.124,0.072 0.26,0.133 0.398,0.187c0.038,0.016 0.078,0.031 0.118,0.044c0.091,0.032 0.184,0.061 0.279,0.085c0.084,0.023 0.168,0.044 0.255,0.063c0.119,0.025 0.24,0.047 0.362,0.061c0.023,0.003 0.047,0.007 0.072,0.01c0.158,0.017 0.317,0.025 0.479,0.027c0.026,0 0.05,0.001 0.075,0.001c0.156,-0.001 0.313,-0.011 0.466,-0.027c0.026,-0.003 0.052,-0.005 0.078,-0.008c0.152,-0.017 0.303,-0.043 0.448,-0.077c0.027,-0.007 0.059,-0.013 0.087,-0.02c0.141,-0.036 0.276,-0.076 0.407,-0.125c0.016,-0.003 0.03,-0.009 0.045,-0.015c0.152,-0.058 0.299,-0.126 0.435,-0.206l23.373,-13.582c0.547,-0.318 0.82,-0.734 0.821,-1.152c-0.002,0.772 -0.005,1.544 -0.007,2.317c-0.001,0.417 -0.273,0.834 -0.82,1.152l-23.375,13.582c-0.131,0.077 -0.275,0.145 -0.423,0.202c-0.003,0.002 -0.007,0.002 -0.009,0.004c-0.016,0.006 -0.033,0.012 -0.047,0.016c-0.093,0.035 -0.188,0.067 -0.285,0.094c-0.04,0.011 -0.081,0.019 -0.121,0.028c-0.03,0.008 -0.058,0.016 -0.09,0.022c-0.028,0.008 -0.054,0.016 -0.084,0.022c-0.092,0.018 -0.185,0.033 -0.281,0.045c-0.027,0.006 -0.056,0.008 -0.083,0.011c-0.024,0.002 -0.047,0.004 -0.07,0.007c-0.04,0.004 -0.081,0.009 -0.12,0.012c-0.095,0.008 -0.187,0.014 -0.28,0.016l-0.072,0c-0.024,0 -0.05,0 -0.074,-0.002c-0.047,0 -0.096,0.002 -0.143,-0.002c-0.105,-0.004 -0.209,-0.012 -0.312,-0.022c-0.009,-0.001 -0.017,-0.002 -0.027,-0.003c-0.023,-0.002 -0.047,-0.006 -0.07,-0.01c-0.087,-0.011 -0.174,-0.021 -0.259,-0.036c-0.036,-0.007 -0.068,-0.02 -0.104,-0.026c-0.084,-0.016 -0.167,-0.038 -0.249,-0.06c-0.051,-0.015 -0.104,-0.024 -0.154,-0.038c-0.046,-0.015 -0.088,-0.034 -0.133,-0.051c-0.037,-0.011 -0.076,-0.027 -0.114,-0.042c-0.138,-0.054 -0.274,-0.114 -0.398,-0.188l-40.636,-23.461c-0.032,-0.019 -0.063,-0.035 -0.095,-0.055c-0.017,-0.013 -0.031,-0.026 -0.048,-0.035c-0.032,-0.02 -0.061,-0.041 -0.089,-0.063c-0.031,-0.022 -0.058,-0.044 -0.087,-0.068c-0.025,-0.022 -0.049,-0.041 -0.072,-0.062c-0.011,-0.011 -0.023,-0.018 -0.033,-0.028c-0.01,-0.01 -0.018,-0.022 -0.03,-0.034c-0.037,-0.039 -0.074,-0.079 -0.107,-0.118c-0.007,-0.01 -0.02,-0.024 -0.028,-0.033c-0.006,-0.007 -0.008,-0.016 -0.014,-0.021c-0.026,-0.035 -0.046,-0.067 -0.067,-0.102c-0.009,-0.016 -0.021,-0.031 -0.029,-0.046c-0.003,-0.006 -0.005,-0.01 -0.008,-0.015c-0.016,-0.032 -0.027,-0.064 -0.042,-0.094c-0.007,-0.018 -0.017,-0.034 -0.023,-0.051c-0.001,-0.005 -0.002,-0.008 -0.003,-0.013c-0.011,-0.029 -0.018,-0.06 -0.025,-0.09c-0.005,-0.019 -0.011,-0.038 -0.014,-0.057c-0.002,-0.005 -0.002,-0.007 -0.002,-0.013c-0.007,-0.028 -0.008,-0.058 -0.01,-0.087c-0.002,-0.021 -0.006,-0.043 -0.006,-0.063l0,-0.019c0.002,-0.773 0.004,-1.546 0.006,-2.317" style="fill:#8abfff;fill-rule:nonzero;"/><path d="M73.99,127.068l23.375,-13.583c1.1,-0.639 2.9,-0.637 4.006,0l40.635,23.461c1.107,0.64 1.112,1.679 0.012,2.32l-23.373,13.582c-1.094,0.638 -2.897,0.64 -4.004,0l-40.635,-23.46c-1.104,-0.638 -1.109,-1.683 -0.016,-2.32" style="fill:#cce0ff;fill-rule:nonzero;"/><path d="M98.774,122.694l2.191,1.274l2.08,-1.203l-2.192,-1.272l-2.079,1.201Z" style="fill:#62abf4;fill-rule:nonzero;"/><path d="M93.814,124.226l2.191,1.271l2.083,-1.203l-2.194,-1.272l-2.08,1.204Z" style="fill:#62abf4;fill-rule:nonzero;"/><path d="M90.136,126.498l2.078,-1.201l-1.668,-0.97l3.601,-2.085l-2.738,-1.586l-5.682,3.284l4.409,2.558Z" style="fill:#62abf4;fill-rule:nonzero;"/><path d="M101.709,126.397l-2.191,-1.271l-2.081,1.203l2.191,1.271l2.081,-1.203Z" style="fill:#62abf4;fill-rule:nonzero;"/><path d="M89.597,128.207l-5.614,-3.259l-2.081,1.204l5.613,3.258l2.082,-1.203Z" style="fill:#62abf4;fill-rule:nonzero;"/><path d="M94.949,131.309l-4.007,-2.322l-2.081,1.202l4.005,2.322l2.083,-1.202Z" style="fill:#62abf4;fill-rule:nonzero;"/><path d="M103.057,131.59l-2.193,-1.272l-2.077,1.202l2.19,1.271l2.08,-1.201Z" style="fill:#62abf4;fill-rule:nonzero;"/><path d="M101.417,117.412l-2.193,-1.272l-2.078,1.202l2.19,1.272l2.081,-1.202Z" style="fill:#62abf4;fill-rule:nonzero;"/><path d="M100.978,119.565l2.191,1.274l2.081,-1.204l-2.191,-1.271l-2.081,1.201Z" style="fill:#62abf4;fill-rule:nonzero;"/><path d="M99.383,120.636l-3.963,-2.298l-2.081,1.201l3.961,2.301l2.083,-1.204Z" style="fill:#62abf4;fill-rule:nonzero;"/><path d="M104.811,121.789l2.192,1.271l2.08,-1.199l-2.191,-1.273l-2.081,1.201Z" style="fill:#62abf4;fill-rule:nonzero;"/><path d="M108.647,124.016l2.189,1.271l2.08,-1.203l-2.188,-1.271l-2.081,1.203Z" style="fill:#62abf4;fill-rule:nonzero;"/><path d="M102.439,124.822l2.191,1.271l2.081,-1.203l-2.191,-1.272l-2.081,1.204Z" style="fill:#62abf4;fill-rule:nonzero;"/><path d="M112.481,126.24l2.191,1.272l2.081,-1.201l-2.191,-1.272l-2.081,1.201Z" style="fill:#62abf4;fill-rule:nonzero;"/><path d="M106.103,126.949l2.194,1.271l2.08,-1.201l-2.193,-1.271l-2.081,1.201Z" style="fill:#62abf4;fill-rule:nonzero;"/><path d="M95.85,127.406l-2.191,-1.274l-2.083,1.203l2.193,1.274l2.081,-1.203Z" style="fill:#62abf4;fill-rule:nonzero;"/><path d="M116.312,128.467l2.196,1.273l2.078,-1.203l-2.193,-1.272l-2.081,1.202Z" style="fill:#62abf4;fill-rule:nonzero;"/><path d="M101.062,128.432l2.188,1.27l2.083,-1.202l-2.19,-1.272l-2.081,1.204Z" style="fill:#62abf4;fill-rule:nonzero;"/><path d="M109.768,129.076l2.191,1.271l2.081,-1.201l-2.191,-1.271l-2.081,1.201Z" style="fill:#62abf4;fill-rule:nonzero;"/><path d="M99.476,129.509l-2.195,-1.271l-2.081,1.201l2.192,1.271l2.084,-1.201Z" style="fill:#62abf4;fill-rule:nonzero;"/><path d="M104.683,130.533l2.191,1.271l2.08,-1.203l-2.191,-1.271l-2.08,1.203Z" style="fill:#62abf4;fill-rule:nonzero;"/><path d="M120.148,130.692l2.191,1.27l2.081,-1.202l-2.193,-1.272l-2.079,1.204Z" style="fill:#62abf4;fill-rule:nonzero;"/><path d="M113.433,131.203l2.189,1.274l2.085,-1.204l-2.196,-1.273l-2.078,1.203Z" style="fill:#62abf4;fill-rule:nonzero;"/><path d="M108.306,132.636l2.193,1.274l2.081,-1.201l-2.193,-1.274l-2.081,1.201Z" style="fill:#62abf4;fill-rule:nonzero;"/><path d="M123.982,132.918l2.191,1.271l2.081,-1.203l-2.191,-1.269l-2.081,1.201Z" style="fill:#62abf4;fill-rule:nonzero;"/><path d="M117.099,133.33l2.191,1.272l2.08,-1.202l-2.19,-1.271l-2.081,1.201Z" style="fill:#62abf4;fill-rule:nonzero;"/><path d="M106.8,133.761l-2.193,-1.273l-2.081,1.203l2.194,1.274l2.08,-1.204Z" style="fill:#62abf4;fill-rule:nonzero;"/><path d="M111.928,134.737l2.191,1.273l2.083,-1.201l-2.193,-1.276l-2.081,1.204Z" style="fill:#62abf4;fill-rule:nonzero;"/><path d="M127.813,135.141l2.196,1.273l2.078,-1.203l-2.193,-1.271l-2.081,1.201Z" style="fill:#62abf4;fill-rule:nonzero;"/><path d="M125.037,135.528l-2.194,-1.274l-2.08,1.204l2.193,1.273l2.081,-1.203Z" style="fill:#62abf4;fill-rule:nonzero;"/><path d="M110.385,135.84l-2.194,-1.271l-2.08,1.201l2.191,1.271l2.083,-1.201Z" style="fill:#62abf4;fill-rule:nonzero;"/><path d="M115.55,136.842l2.196,1.272l2.08,-1.204l-2.195,-1.273l-2.081,1.205Z" style="fill:#62abf4;fill-rule:nonzero;"/><path d="M114.005,137.942l-2.191,-1.271l-2.081,1.201l2.191,1.272l2.081,-1.202Z" style="fill:#62abf4;fill-rule:nonzero;"/><path d="M137.379,138.283l-2.193,-1.274l-2.079,1.202l2.193,1.273l2.079,-1.201Z" style="fill:#62abf4;fill-rule:nonzero;"/><path d="M123.447,139.013l-2.194,-1.272l-2.08,1.202l2.193,1.271l2.081,-1.201Z" style="fill:#62abf4;fill-rule:nonzero;"/><path d="M109.423,139.714l-13.119,-7.613l-2.081,1.201l13.119,7.613l2.081,-1.201Z" style="fill:#62abf4;fill-rule:nonzero;"/><path d="M113.316,139.953l2.191,1.274l2.081,-1.204l-2.193,-1.271l-2.079,1.201Z" style="fill:#62abf4;fill-rule:nonzero;"/><path d="M124.59,137.679l6.904,4.006l2.079,-1.201l-6.902,-4.009l-2.081,1.204Z" style="fill:#62abf4;fill-rule:nonzero;"/><path d="M93.915,135.242l-3.557,2.066l10.556,6.094l3.558,-2.068l-10.557,-6.092Z" style="fill:#62abf4;fill-rule:nonzero;"/><path d="M122.809,141.055l4.877,2.828l2.08,-1.202l-4.874,-2.827l-2.083,1.201Z" style="fill:#62abf4;fill-rule:nonzero;"/><path d="M114.91,142.899l-4.003,-2.322l-2.08,1.201l4.004,2.324l2.079,-1.203Z" style="fill:#62abf4;fill-rule:nonzero;"/><path d="M116.979,142.076l6.902,4.009l2.081,-1.201l-6.903,-4.009l-2.08,1.201Z" style="fill:#62abf4;fill-rule:nonzero;"/><path d="M114.263,144.929l5.793,3.365l2.083,-1.201l-5.798,-3.365l-2.078,1.201Z" style="fill:#62abf4;fill-rule:nonzero;"/><path d="M100.208,81.691c0.023,-0.013 0.052,-0.03 0.072,-0.042c0.193,-0.112 0.382,-0.222 0.573,-0.333c0.191,-0.111 0.38,-0.222 0.572,-0.333c0.368,-0.213 0.873,-0.183 1.429,0.137l40.635,23.462c1.107,0.638 2.007,2.196 2.003,3.465l-0.077,27.035c0,0.63 -0.226,1.075 -0.588,1.285c-0.476,0.277 -0.953,0.554 -1.431,0.833c0.363,-0.21 0.586,-0.655 0.589,-1.288l0.076,-27.033c0.004,-1.269 -0.896,-2.826 -2.002,-3.466l-40.636,-23.461c-0.556,-0.321 -1.063,-0.35 -1.429,-0.137c0.072,-0.042 0.144,-0.084 0.214,-0.124" style="fill:#cce0ff;fill-rule:nonzero;"/><path d="M100.947,109.925c-0.003,0.76 0.54,1.695 1.201,2.076l39.018,22.528c0.663,0.382 1.208,0.075 1.21,-0.684l0.07,-24.755c0.001,-0.761 -0.538,-1.7 -1.202,-2.082l-39.019,-22.527c-0.661,-0.382 -1.205,-0.071 -1.21,0.689l-0.068,24.755Zm41.111,-4.512c1.107,0.64 2.007,2.197 2.002,3.467l-0.075,27.032c-0.004,1.27 -0.908,1.789 -2.015,1.152l-40.636,-23.463c-1.105,-0.638 -2.007,-2.2 -2.003,-3.468l0.076,-27.036c0.003,-1.268 0.912,-1.782 2.016,-1.145l40.635,23.461Z" style="fill:#8abfff;fill-rule:nonzero;"/><g><g><path d="M211.471,125.91c0.582,-0.338 1.303,-0.437 2.108,-0.268c0.497,0.105 1.026,0.312 1.575,0.628c0.525,0.304 1.031,0.687 1.507,1.129l-2.329,1.354c-0.476,-0.443 -0.983,-0.825 -1.507,-1.128c-0.549,-0.318 -1.079,-0.525 -1.576,-0.629c-0.804,-0.17 -1.525,-0.07 -2.107,0.268l2.329,-1.354Z" style="fill:#8abfff;fill-rule:nonzero;"/><path d="M218.337,124.557c0.673,-0.391 1.505,-0.506 2.437,-0.31c0.574,0.122 1.185,0.361 1.821,0.727c1.054,0.609 2.044,1.494 2.902,2.541c1.583,1.93 2.721,4.408 2.996,6.715c0.479,0.109 0.986,0.31 1.51,0.613c0.91,0.526 1.765,1.29 2.506,2.193c1.587,1.932 2.659,4.502 2.652,6.742c-0.005,1.63 -0.58,2.776 -1.509,3.316l-2.329,1.354c0.928,-0.539 1.504,-1.687 1.509,-3.317c0.007,-2.239 -1.064,-4.809 -2.652,-6.742c-0.742,-0.903 -1.597,-1.667 -2.506,-2.191c-0.525,-0.303 -1.031,-0.505 -1.51,-0.614c-0.275,-2.306 -1.413,-4.785 -2.996,-6.715c-0.858,-1.047 -1.849,-1.932 -2.903,-2.541c-0.635,-0.367 -1.246,-0.606 -1.822,-0.727c-0.93,-0.196 -1.762,-0.081 -2.435,0.31l2.329,-1.354Z" style="fill:#8abfff;fill-rule:nonzero;"/><path d="M220.264,126.328c-2.999,-1.731 -5.488,-0.63 -5.933,2.425c-0.476,-0.443 -0.983,-0.825 -1.507,-1.128c-2.857,-1.65 -5.183,-0.327 -5.193,2.958c-0.009,3.282 2.302,7.282 5.158,8.932l14.85,8.573c2.857,1.649 5.183,0.327 5.192,-2.956c0.009,-3.285 -2.301,-7.284 -5.158,-8.934c-0.525,-0.303 -1.031,-0.505 -1.51,-0.613c-0.425,-3.559 -2.9,-7.526 -5.899,-9.257" style="fill:#ecf9ff;fill-rule:nonzero;"/></g></g><g><g><path d="M45.959,24.052c0.748,-0.435 1.675,-0.563 2.711,-0.345c0.639,0.135 1.319,0.401 2.024,0.809c0.676,0.39 1.327,0.882 1.941,1.451l-2.996,1.742c-0.614,-0.57 -1.265,-1.063 -1.94,-1.452c-0.706,-0.408 -1.386,-0.674 -2.025,-0.809c-1.036,-0.218 -1.963,-0.09 -2.711,0.345l2.996,-1.741Z" style="fill:#8abfff;fill-rule:nonzero;"/><path d="M54.789,22.312c0.866,-0.502 1.937,-0.65 3.134,-0.398c0.739,0.155 1.525,0.463 2.343,0.935c1.356,0.783 2.628,1.922 3.733,3.269c2.036,2.482 3.499,5.67 3.854,8.636c0.615,0.14 1.267,0.399 1.942,0.789c1.17,0.675 2.268,1.658 3.223,2.819c2.041,2.486 3.419,5.793 3.412,8.672c-0.007,2.097 -0.747,3.572 -1.942,4.266l-2.996,1.741c1.194,-0.694 1.935,-2.169 1.942,-4.265c0.007,-2.881 -1.371,-6.187 -3.413,-8.672c-0.954,-1.162 -2.052,-2.145 -3.222,-2.82c-0.676,-0.389 -1.327,-0.649 -1.942,-0.789c-0.355,-2.967 -1.817,-6.155 -3.854,-8.637c-1.105,-1.346 -2.377,-2.485 -3.735,-3.268c-0.815,-0.471 -1.602,-0.779 -2.341,-0.935c-1.198,-0.252 -2.268,-0.104 -3.134,0.398l2.996,-1.741Z" style="fill:#8abfff;fill-rule:nonzero;"/><path d="M57.268,24.59c-3.856,-2.227 -7.059,-0.811 -7.63,3.119c-0.613,-0.569 -1.265,-1.062 -1.939,-1.452c-3.674,-2.121 -6.666,-0.42 -6.679,3.806c-0.012,4.221 2.961,9.366 6.635,11.487l19.099,11.027c3.675,2.121 6.666,0.421 6.679,-3.801c0.012,-4.226 -2.961,-9.37 -6.635,-11.492c-0.676,-0.389 -1.326,-0.649 -1.941,-0.789c-0.548,-4.576 -3.731,-9.678 -7.589,-11.905" style="fill:#e9f2ff;fill-rule:nonzero;"/></g></g><g><g><path d="M168.319,94.929c0.776,-0.451 1.737,-0.584 2.812,-0.358c0.664,0.139 1.369,0.416 2.1,0.838c0.7,0.405 1.376,0.916 2.012,1.506l-3.107,1.806c-0.636,-0.59 -1.312,-1.102 -2.012,-1.505c-0.732,-0.423 -1.438,-0.7 -2.101,-0.839c-1.074,-0.226 -2.035,-0.094 -2.811,0.358l3.107,-1.806Z" style="fill:#8abfff;fill-rule:nonzero;"/><path d="M177.478,93.124c0.897,-0.521 2.009,-0.675 3.25,-0.413c0.767,0.162 1.583,0.481 2.43,0.97c1.407,0.812 2.727,1.993 3.873,3.39c2.111,2.574 3.629,5.881 3.997,8.958c0.638,0.145 1.313,0.414 2.013,0.818c1.214,0.7 2.354,1.72 3.343,2.924c2.117,2.578 3.547,6.008 3.538,8.995c-0.006,2.174 -0.774,3.704 -2.012,4.423l-3.108,1.806c1.238,-0.72 2.007,-2.249 2.013,-4.423c0.009,-2.988 -1.42,-6.417 -3.538,-8.995c-0.989,-1.205 -2.129,-2.224 -3.343,-2.924c-0.7,-0.404 -1.376,-0.673 -2.014,-0.819c-0.368,-3.077 -1.884,-6.383 -3.997,-8.958c-1.145,-1.396 -2.466,-2.577 -3.873,-3.389c-0.846,-0.489 -1.663,-0.809 -2.429,-0.97c-1.242,-0.262 -2.353,-0.108 -3.25,0.413l3.107,-1.806Z" style="fill:#8abfff;fill-rule:nonzero;"/><path d="M180.051,95.487c-4.001,-2.31 -7.321,-0.841 -7.914,3.234c-0.637,-0.589 -1.313,-1.101 -2.013,-1.505c-3.809,-2.2 -6.913,-0.436 -6.926,3.947c-0.012,4.379 3.071,9.714 6.881,11.914l19.811,11.438c3.81,2.2 6.913,0.435 6.926,-3.943c0.012,-4.383 -3.071,-9.719 -6.881,-11.919c-0.7,-0.404 -1.376,-0.673 -2.014,-0.818c-0.568,-4.746 -3.869,-10.038 -7.87,-12.348" style="fill:#e9f2ff;fill-rule:nonzero;"/></g></g><path d="M194.776,134.357l0,-0.001l0,-0.001c0,-0.093 -0.057,-0.185 -0.171,-0.256c-0.228,-0.142 -0.6,-0.142 -0.831,0c-0.229,0.142 -0.23,0.373 -0.002,0.515c-0.114,-0.07 -0.171,-0.163 -0.171,-0.256l-0.382,14.172c0,0.093 0.046,0.181 0.114,0.266c0.007,0.01 0.005,0.022 0.013,0.032l0,-0.019c0.045,0.052 0.088,0.105 0.159,0.148c0.29,0.179 0.695,0.178 1.051,0.086l0.001,0.049c0.12,-0.03 0.234,-0.075 0.332,-0.135c0.194,-0.12 0.289,-0.276 0.289,-0.432l-0.402,-14.168Z" style="fill:#62abf4;fill-rule:nonzero;"/><path d="M199.653,137.547l0,-0.002c0,0.001 -0.001,0.001 -0.001,0.001c0,-0.093 -0.056,-0.186 -0.17,-0.256c-0.229,-0.142 -0.6,-0.142 -0.831,-0.001c-0.23,0.143 -0.231,0.373 -0.003,0.516c-0.113,-0.071 -0.17,-0.164 -0.171,-0.256l-0.381,14.172c0,0.093 0.045,0.181 0.114,0.265c0.007,0.011 0.004,0.023 0.013,0.033l0,-0.019c0.044,0.052 0.088,0.104 0.159,0.148c0.289,0.179 0.694,0.178 1.051,0.085l0,0.049c0.121,-0.029 0.235,-0.075 0.332,-0.134c0.194,-0.12 0.29,-0.276 0.289,-0.433l-0.401,-14.168Z" style="fill:#62abf4;fill-rule:nonzero;"/><path d="M190.283,131.618c0,0.006 -0.01,0.01 -0.011,0.016c-0.005,-0.089 -0.053,-0.177 -0.162,-0.245c-0.228,-0.142 -0.6,-0.142 -0.831,0c-0.108,0.067 -0.157,0.156 -0.164,0.244c0,-0.004 -0.007,-0.007 -0.007,-0.012l-0.001,0.023l0,0.004l-0.381,14.146c0,0.092 0.045,0.181 0.114,0.265c0.007,0.01 0.004,0.023 0.013,0.033l0,-0.02c0.044,0.052 0.088,0.105 0.159,0.149c0.289,0.179 0.694,0.178 1.051,0.085l0.001,0.049c0.12,-0.03 0.234,-0.074 0.332,-0.134c0.193,-0.121 0.289,-0.277 0.289,-0.433l-0.402,-14.17Z" style="fill:#62abf4;fill-rule:nonzero;"/><g><g><path d="M202.213,151.848l-0.012,4.095l-10.592,6.134l0.011,-4.094l10.593,-6.135Z" style="fill:#8abfff;fill-rule:nonzero;"/><path d="M191.62,157.983l-0.012,4.094l-15.176,-8.732l0.012,-4.094l15.176,8.732Z" style="fill:#8abfff;fill-rule:nonzero;"/><path d="M190.815,158.535l-0.01,2.442l-13.568,-7.806l0.011,-2.443l13.567,7.807Z" style="fill:#cce0ff;fill-rule:nonzero;"/><path d="M202.213,151.848l-10.593,6.135l-15.176,-8.733l10.592,-6.134l15.177,8.732Z" style="fill:#cce0ff;fill-rule:nonzero;"/></g></g><path d="M178.139,149.098c0.229,-0.132 0.603,-0.132 0.833,0c0.229,0.133 0.229,0.348 0,0.479c-0.23,0.133 -0.604,0.133 -0.833,0c-0.23,-0.131 -0.23,-0.346 0,-0.479" style="fill:#fff;fill-rule:nonzero;"/><path d="M179.534,149.895c0.23,-0.132 0.603,-0.132 0.833,0c0.23,0.133 0.23,0.348 0,0.479c-0.23,0.133 -0.603,0.133 -0.833,0c-0.229,-0.131 -0.229,-0.346 0,-0.479" style="fill:#fff;fill-rule:nonzero;"/><path d="M181.144,150.807c0.229,-0.132 0.603,-0.132 0.832,0c0.23,0.133 0.23,0.348 0,0.479c-0.229,0.133 -0.603,0.133 -0.832,0c-0.23,-0.131 -0.23,-0.346 0,-0.479" style="fill:#fff;fill-rule:nonzero;"/><path d="M93.325,103.568c0.051,-0.007 0.111,0.005 0.177,0.043c0.188,0.105 0.344,0.367 0.346,0.585c0.001,0.078 -0.018,0.141 -0.051,0.183c0.262,-0.333 0.525,-0.666 0.788,-1c-0.419,0.063 -0.84,0.127 -1.26,0.189" style="fill:#297de2;fill-rule:nonzero;"/><path d="M93.502,103.611c-0.065,-0.038 -0.126,-0.05 -0.177,-0.043c-0.63,0.096 -1.259,0.19 -1.887,0.284c-0.02,0.003 -0.029,0.025 -0.047,0.03c0.029,-0.008 0.059,-0.017 0.092,-0.019c0.024,-0.002 0.041,-0.016 0.066,-0.014c0.101,0.007 0.212,0.041 0.33,0.107c0.117,0.065 0.23,0.155 0.333,0.262c0.206,0.214 0.372,0.496 0.461,0.781c0.045,0.142 0.07,0.285 0.072,0.422c0.001,0.138 -0.022,0.255 -0.064,0.35c-0.012,0.026 -0.034,0.035 -0.049,0.057c-0.02,0.031 -0.042,0.055 -0.067,0.079c0.014,-0.013 0.039,-0.011 0.05,-0.027c0.395,-0.499 0.787,-1 1.182,-1.501c0.033,-0.042 0.053,-0.105 0.052,-0.183c-0.003,-0.218 -0.159,-0.48 -0.347,-0.585" style="fill:#fff;fill-rule:nonzero;"/><path d="M92.632,105.828c0.015,-0.022 0.037,-0.032 0.049,-0.057c0.042,-0.095 0.065,-0.212 0.064,-0.35c-0.002,-0.137 -0.027,-0.28 -0.072,-0.423c-0.089,-0.285 -0.255,-0.566 -0.461,-0.78c-0.102,-0.107 -0.216,-0.197 -0.333,-0.262c-0.118,-0.066 -0.228,-0.1 -0.33,-0.107c-0.024,-0.002 -0.042,0.012 -0.065,0.014c-0.034,0.002 -0.064,0.01 -0.093,0.019c-0.034,0.009 -0.075,0.005 -0.105,0.022l-12.347,7.176c0.055,-0.033 0.126,-0.037 0.195,-0.042c0.023,-0.001 0.042,-0.016 0.067,-0.014c0.102,0.007 0.212,0.041 0.33,0.107c0.471,0.263 0.859,0.919 0.867,1.465c0.001,0.138 -0.022,0.255 -0.065,0.35c0,0.001 0,0.002 -0.001,0.003c-0.016,0.038 -0.05,0.055 -0.073,0.085c-0.034,0.044 -0.063,0.096 -0.107,0.124c-0.002,0 -0.002,0.002 -0.004,0.003c3.704,-2.152 8.643,-5.022 12.347,-7.175c0.002,-0.001 0.002,-0.003 0.004,-0.004c0.028,-0.017 0.043,-0.052 0.067,-0.075c0.024,-0.024 0.046,-0.049 0.066,-0.079" style="fill:#cce0ff;fill-rule:nonzero;"/><path d="M79.134,111.038c0.023,-0.001 0.042,-0.016 0.067,-0.014c-0.025,-0.002 -0.044,0.013 -0.067,0.014" style="fill:#fff;fill-rule:nonzero;"/><path d="M80.259,113.034c-0.034,0.044 -0.062,0.096 -0.107,0.124c0.045,-0.028 0.073,-0.08 0.107,-0.124" style="fill:#fff;fill-rule:nonzero;"/><path d="M80.397,112.596c0.001,0.138 -0.022,0.255 -0.064,0.35c0.043,-0.095 0.065,-0.212 0.064,-0.35" style="fill:#fff;fill-rule:nonzero;"/><path d="M78.151,114.257c0.061,-0.007 0.125,-0.008 0.175,-0.037c0.001,-0.001 0.001,-0.003 0.003,-0.004c-0.051,0.031 -0.116,0.034 -0.178,0.041" style="fill:#fff;fill-rule:nonzero;"/><path d="M77.115,112.138c-0.001,0.001 -0.002,0.003 -0.003,0.004c0.051,-0.031 0.117,-0.034 0.181,-0.041c-0.063,0.007 -0.127,0.008 -0.178,0.037" style="fill:#fff;fill-rule:nonzero;"/><path d="M77.38,112.083c0.101,0.007 0.212,0.041 0.329,0.106c-0.117,-0.065 -0.227,-0.099 -0.329,-0.106" style="fill:#fff;fill-rule:nonzero;"/><path d="M76.93,112.354c0.02,-0.043 0.055,-0.064 0.082,-0.098c-0.027,0.034 -0.063,0.055 -0.082,0.098" style="fill:#fff;fill-rule:nonzero;"/><path d="M78.44,114.087c0.022,-0.029 0.054,-0.046 0.07,-0.083c-0.016,0.037 -0.048,0.054 -0.07,0.083" style="fill:#fff;fill-rule:nonzero;"/><path d="M78.061,114.276c-0.101,-0.007 -0.212,-0.042 -0.329,-0.107c0.117,0.065 0.227,0.1 0.329,0.107" style="fill:#fff;fill-rule:nonzero;"/><path d="M78.511,114.004c-0.017,0.037 -0.048,0.054 -0.07,0.083c0.022,-0.029 0.053,-0.046 0.07,-0.083m-1.131,-1.921c0.102,0.007 0.212,0.041 0.329,0.106c-0.117,-0.065 -0.228,-0.099 -0.329,-0.106m2.772,1.074c0.045,-0.027 0.073,-0.079 0.107,-0.123c0.023,-0.03 0.057,-0.047 0.073,-0.085c0.001,-0.001 0.001,-0.003 0.001,-0.004c0.042,-0.094 0.066,-0.212 0.065,-0.349c-0.008,-0.547 -0.396,-1.202 -0.866,-1.465c-0.119,-0.066 -0.229,-0.1 -0.331,-0.107c-0.025,-0.002 -0.044,0.013 -0.067,0.014c-0.069,0.005 -0.14,0.009 -0.195,0.042l-1.824,1.058c0.051,-0.029 0.116,-0.03 0.178,-0.037c-0.063,0.007 -0.13,0.01 -0.18,0.041c-0.042,0.025 -0.068,0.074 -0.1,0.114c-0.027,0.034 -0.063,0.055 -0.082,0.098c-0.043,0.095 -0.066,0.212 -0.064,0.349c0.006,0.547 0.394,1.202 0.866,1.466c0.117,0.065 0.228,0.099 0.329,0.106c0.033,0.002 0.058,-0.015 0.09,-0.019c0.061,-0.007 0.127,-0.01 0.177,-0.04c-0.002,0 -0.002,0.002 -0.003,0.003l1.822,-1.058c0.002,-0.001 0.002,-0.003 0.004,-0.004" style="fill:#297de2;fill-rule:nonzero;"/><g><g><path d="M54.609,165.229c0.588,0.339 0.998,0.98 1.144,1.875c0.003,0.02 0.006,0.037 0.008,0.056l0.022,11.87l-1.873,-1.08l-0.023,-11.87c-0.002,-0.018 -0.006,-0.037 -0.007,-0.055c-0.146,-0.896 -0.556,-1.538 -1.143,-1.876l1.872,1.08Z" style="fill:#242629;fill-rule:nonzero;"/></g></g><path d="M88.901,265.022l-0.339,-0.194l0.971,-0.557l-0.006,-2.242c-0.004,-1.547 -0.834,-2.975 -2.176,-3.744l-12.977,-7.45l9.509,-5.505c0.213,0.228 0.447,0.423 0.694,0.565c0.638,0.365 1.175,0.26 1.481,-0.15c-0.074,0.098 -0.138,0.211 -0.239,0.269l2.142,-1.233c0.313,-0.182 0.508,-0.566 0.509,-1.111c0.001,-0.25 -0.049,-0.511 -0.123,-0.775c-0.011,-0.044 -0.02,-0.085 -0.034,-0.13l0.157,-0.091l-0.006,-2.14c-0.004,-1.611 -0.866,-3.097 -2.261,-3.901l-1.5,-0.864c-0.717,-0.413 -1.599,-0.412 -2.315,0.002l-12.249,7.09l-0.067,-46.372l-4.743,0l-5.541,0l0.067,45.948l-12.529,-7.315c-0.715,-0.417 -1.598,-0.421 -2.317,-0.01l-2.065,1.181c-1.062,0.609 -1.716,1.741 -1.713,2.965l0.008,2.763l0.123,0.071c-0.011,0.029 -0.019,0.057 -0.029,0.084c-0.027,0.077 -0.056,0.15 -0.078,0.227c-0.073,0.263 -0.124,0.525 -0.123,0.776c0.001,0.545 0.197,0.928 0.51,1.11l2.142,1.234c-0.101,-0.059 -0.165,-0.17 -0.238,-0.269c0.305,0.41 0.842,0.514 1.479,0.149c0.293,-0.168 0.557,-0.422 0.799,-0.705l10.459,6.106l-12.333,6.997c-1.361,0.772 -2.199,2.216 -2.195,3.78l0.006,2.211l0.804,0.463l-0.302,0.174c0,0 -0.001,0 -0.001,0.001l-0.005,0.003c0,-0.001 0.002,0 0.003,-0.001c-0.315,0.18 -0.51,0.565 -0.512,1.113c-0.002,1.096 0.775,2.435 1.741,2.989c0.64,0.366 1.179,0.259 1.484,-0.154c-0.075,0.101 -0.14,0.214 -0.243,0.273l2.142,-1.235c0.313,-0.179 0.508,-0.563 0.509,-1.108c0,-0.027 -0.008,-0.056 -0.009,-0.083l17.95,-10.184l18.484,10.61c-0.008,0.081 -0.03,0.166 -0.03,0.246c0.001,0.545 0.196,0.929 0.51,1.109l2.141,1.235c-0.103,-0.06 -0.17,-0.174 -0.245,-0.277c0.305,0.417 0.845,0.525 1.487,0.157c0.966,-0.553 1.744,-1.893 1.74,-2.99c-0.001,-0.548 -0.197,-0.932 -0.512,-1.112c0.001,0.001 0.003,0.001 0.004,0.001" style="fill:#003ca5;fill-rule:nonzero;"/><path d="M100.162,191.866c0.001,-0.482 -0.062,-0.964 -0.158,-1.444c-0.567,2.719 -2.654,5.356 -6.296,7.441l-13.762,7.878c-4.192,2.401 -9.648,3.631 -15.128,3.687c-5.74,0.06 -11.507,-1.168 -15.873,-3.683l-13.671,-7.879c-2.918,-1.682 -4.833,-3.721 -5.746,-5.872c-0.205,-0.484 -0.359,-0.976 -0.464,-1.469c-0.104,0.539 -0.172,1.079 -0.157,1.619c-0.001,-0.06 -0.018,-0.12 -0.018,-0.18l0.011,4.286c-0.002,0.1 0,0.201 0.001,0.302l0.003,0.865c0.002,0.997 0.211,1.995 0.624,2.969c0.913,2.152 2.828,4.19 5.746,5.873l13.671,7.878c4.366,2.515 10.133,3.743 15.873,3.683c5.48,-0.057 10.936,-1.286 15.128,-3.686l13.762,-7.878c4.322,-2.475 6.481,-5.724 6.472,-8.968l-0.015,-5.453c0,0.01 -0.003,0.021 -0.003,0.031" style="fill:#ff8b22;fill-rule:nonzero;"/><path d="M35.274,197.866l13.671,7.879c4.366,2.515 10.133,3.743 15.873,3.684c5.479,-0.057 10.935,-1.287 15.128,-3.688l13.762,-7.878c3.642,-2.085 5.729,-4.722 6.295,-7.441c-0.538,-2.713 -2.593,-5.343 -6.205,-7.424l-13.671,-7.879c-8.537,-4.919 -22.419,-4.916 -31.006,0l-13.761,7.878c-3.682,2.107 -5.76,4.778 -6.296,7.528c0.105,0.493 0.259,0.985 0.464,1.469c0.913,2.151 2.828,4.19 5.746,5.872" style="fill:#ff5d24;fill-rule:nonzero;"/><path d="M29.512,199.418c0.914,2.151 2.829,4.19 5.748,5.873l13.671,7.878c4.365,2.516 10.132,3.743 15.873,3.684c5.479,-0.057 10.935,-1.287 15.127,-3.687l13.761,-7.879c4.323,-2.473 6.482,-5.723 6.473,-8.967l0.015,5.452c0.01,3.245 -2.149,6.495 -6.472,8.968l-13.761,7.879c-4.193,2.401 -9.649,3.629 -15.128,3.686c-5.741,0.059 -11.507,-1.168 -15.872,-3.683l-13.671,-7.879c-2.919,-1.681 -4.834,-3.721 -5.747,-5.872c-0.413,-0.974 -0.622,-1.972 -0.624,-2.97l-0.016,-5.453c0.003,0.998 0.211,1.995 0.623,2.97" style="fill:#003ca5;fill-rule:nonzero;"/><path d="M91.6,170.943l-18.464,8.628c-15.504,-4.105 -36.551,-8.225 -38.624,-1.028c-3.318,11.518 0.293,17.18 5.997,20.66c5.704,3.48 22.604,8.331 34.379,2.023l34.333,-20.054l-17.621,-10.229Z" style="fill:#00246b;fill-rule:nonzero;"/><path d="M69.031,115.063c0.04,-0.906 -3.033,-6.662 -3.821,-6.039c-2.957,2.342 -11.592,1.831 -13.679,0.74c-1.862,-0.972 -1.664,-3.82 -1.664,-3.82c0,0 -11.831,10.351 4.531,13.547c3.294,0.643 6.978,0.405 9.966,-1.038c2.56,-1.237 7.036,-1.036 4.667,-3.39" style="fill:#fff;fill-rule:nonzero;"/><path d="M69.358,198.261c13.684,-2.049 15.401,-13.528 15.603,-17.17l0.027,-1.137c0,0 -1.183,-2.309 -2.744,-7.239c-1.563,-4.929 4.815,-36.795 -5.693,-52.982c-3.199,-3.656 -6.447,-5.388 -8.377,-6.224c0,0 -4.478,5.094 -14.425,2.911c-10.137,-2.226 -6.362,-8.243 -6.362,-8.243c-13.232,0.176 -13.222,17.291 -13.618,23.413c-0.708,10.985 -1.393,33.811 -1.243,52.573c0.91,1.621 1.938,3.183 3.135,4.603c8.373,9.929 17.398,11.935 33.697,9.495" style="fill:#297de2;fill-rule:nonzero;"/><g><g><path d="M42.376,161.268l2.367,-1.377l-6.1,-3.492l-2.367,1.377l6.1,3.492Z" style="fill:#303437;fill-rule:nonzero;"/><path d="M42.376,161.268l-6.1,-3.492l-0.157,54.802c-0.002,0.685 0.364,1.318 0.959,1.659l3.276,1.875c1.152,0.66 2.57,0.655 3.717,-0.013l0.512,-0.298l0.16,-55.91l-2.367,1.377Z" style="fill:#003ca5;fill-rule:nonzero;"/></g></g><path d="M64.735,177.762l-2.372,-29.754c-0.221,-2.774 -1.086,-5.778 -2.434,-8.776c-1.504,-3.344 -3.608,-6.681 -6.094,-9.69c-2.965,-3.589 -6.472,-6.708 -10.144,-8.811c-2.206,-1.263 -4.355,-2.092 -6.365,-2.511c-2.984,-0.624 -5.659,-0.347 -7.761,0.747c-0.107,0.056 -0.213,0.114 -0.316,0.173l-4.136,2.383c0.104,-0.06 0.21,-0.117 0.316,-0.173c0.034,-0.017 0.074,-0.025 0.108,-0.042c-0.238,0.119 -0.457,0.261 -0.679,0.399c1.308,-0.13 2.726,-0.044 4.222,0.269c2.009,0.42 4.159,1.248 6.365,2.512c3.672,2.102 7.179,5.221 10.144,8.811c2.486,3.008 4.59,6.345 6.094,9.69c1.348,2.998 2.213,6.001 2.433,8.775l2.373,29.755c0.323,4.078 -0.83,7.002 -2.993,8.602c1.427,-0.078 2.694,-0.448 3.743,-1.117c-0.082,0.053 -0.155,0.118 -0.241,0.168l4.134,-2.384c2.564,-1.476 3.956,-4.573 3.603,-9.026" style="fill:#ff5d24;fill-rule:nonzero;"/><path d="M56.489,181.518l-2.373,-29.755c-0.22,-2.774 -1.085,-5.777 -2.433,-8.775c-1.504,-3.345 -3.608,-6.682 -6.094,-9.69c-2.965,-3.59 -6.472,-6.709 -10.144,-8.811c-2.206,-1.264 -4.355,-2.092 -6.365,-2.512c-1.496,-0.312 -2.914,-0.398 -4.222,-0.269c-2.26,1.418 -3.76,3.861 -4.079,7.245l-2.524,26.951c-0.818,8.648 6.409,20.256 16.058,25.781l10.133,5.8c3.399,1.946 6.492,2.776 9.05,2.638c2.163,-1.601 3.316,-4.525 2.993,-8.603" style="fill:#ff8b22;fill-rule:nonzero;"/><path d="M73.753,74.39c0,0 0.635,6.564 -0.122,11.494c0,0 1.489,2.277 2.099,3.836c0.61,1.557 -2.099,3.022 -2.099,3.022c0,0 0.38,3.358 -0.591,7.316c-0.971,3.957 -4.435,4.739 -7.73,5.251c0,0 -0.245,1.937 0,3.69c0,0 -1.774,1.833 -7.044,1.931c-5.272,0.098 -8.721,-1.041 -8.721,-4.263l0,-7.808l0,-24.631l24.208,0.162Z" style="fill:#ffc3a9;fill-rule:nonzero;"/><path d="M58.958,101.426c-3.328,-3.056 -3.022,-9.843 0.192,-9.843c3.215,0 2.629,5.323 2.629,5.323c0,0 1.366,0.586 2.798,-0.65c0,0 -1.415,-6.638 0,-11.861c1.416,-5.222 4.101,-6.881 4.101,-6.881c0,0 3.77,2.189 6.538,1.631c0,0 0.831,-6.512 2.149,-10.465c0,0 -9.42,-8.2 -27.039,-3.807c-17.619,4.392 -11.583,23.574 -7.939,29.56c3.644,5.987 7.682,9.08 7.682,9.08c0,0 3.043,3.119 10.581,2.225c0,0 -0.666,-0.897 -1.116,-2.174c-0.45,-1.277 -0.576,-2.138 -0.576,-2.138" style="fill:#003ca5;fill-rule:nonzero;"/><path d="M85.689,130.4c0,0 2.114,0.072 4.63,1.277c2.515,1.205 4.15,2.482 4.628,2.524c0.477,0.042 0.842,-0.679 0.235,-1.604c-0.605,-0.925 -1.864,-1.868 -1.864,-1.868c0,0 3.858,-1.131 5.692,-2.381c1.834,-1.25 -1.267,-3.611 -2.063,-4.389c-1.101,-1.077 -3.825,-0.749 -6.497,-0.383c-2.671,0.366 -3.477,0.911 -6.191,1.019c-2.714,0.11 1.43,5.805 1.43,5.805" style="fill:#ffc3a9;fill-rule:nonzero;"/><path d="M84.447,123.789c0,0 3.611,3.001 2.636,7.686c0,0 -6.183,3.41 -17.441,3.669l-3.188,-10.476c0,0 9.469,-2.538 17.993,-0.879" style="fill:#003ca5;fill-rule:nonzero;"/><path d="M106.738,148.907c0,0 1.342,-1.635 2.099,-4.319c0.756,-2.685 0.879,-4.756 1.162,-5.142c0.283,-0.387 1.065,-0.184 1.359,0.882c0.294,1.065 0.172,2.634 0.172,2.634c0,0 2.616,-1.662 4.766,-2.213c2.15,-0.552 4.529,2.353 4.588,3.465c0.082,1.537 -2.648,3.757 -4.687,5.521c-2.04,1.765 -4.171,2.113 -6.045,4.079c-1.874,1.967 -3.414,-4.907 -3.414,-4.907" style="fill:#ffc3a9;fill-rule:nonzero;"/><path d="M77.809,121.154c10.344,8.926 13.45,30.588 13.45,30.588c0,0 8.136,-3.316 15.115,-4.732c0,0 4.588,0.293 5.613,7.614c0,0 -11.195,7.765 -19.296,11.718c-8.103,3.953 -12.314,3.429 -14.363,-0.26c-2.049,-3.689 -11.29,-19.555 -13.204,-36.247c0,0 -0.735,-6.215 3.974,-8.692c1.683,-0.885 3.202,-1.253 4.391,-1.385c1.567,-0.174 3.127,0.366 4.32,1.396" style="fill:#0851c4;fill-rule:nonzero;"/><path d="M203.31,86.189l-47.897,-27.281c-0.151,-0.086 -0.272,-0.277 -0.272,-0.427l0,-33.54c0,-0.149 0.121,-0.202 0.272,-0.116l47.897,27.281c0.15,0.085 0.271,0.276 0.271,0.426l0,33.54c0,0.15 -0.121,0.202 -0.271,0.117" style="fill:#297de2;fill-rule:nonzero;"/><path d="M201.477,83.944l-44.231,-25.192c-0.132,-0.076 -0.24,-0.244 -0.24,-0.376l0,-28.281c0,-0.132 0.108,-0.178 0.24,-0.103l44.231,25.193c0.132,0.075 0.239,0.243 0.239,0.376l0,28.28c0,0.132 -0.107,0.179 -0.239,0.103" style="fill:#00246b;fill-rule:nonzero;"/><path d="M192.91,56.062l-32.729,-18.642l0,-1.195l32.729,18.641l0,1.196Z" style="fill:#297de2;fill-rule:nonzero;"/><path d="M180.204,52.663l-20.022,-11.405l0,-1.196l20.022,11.405l0,1.196Z" style="fill:#297de2;fill-rule:nonzero;"/><path d="M162.143,45.068l-1.962,-1.118l0,-1.196l1.962,1.118l0,1.196Z" style="fill:#297de2;fill-rule:nonzero;"/><path d="M165.387,46.915l-1.963,-1.118l0,-1.196l1.963,1.118l0,1.196Z" style="fill:#3eedff;fill-rule:nonzero;"/><path d="M171.801,55.951l-8.377,-4.771l0,-1.196l8.377,4.771l0,1.196Z" style="fill:#ff5d24;fill-rule:nonzero;"/><path d="M171.801,58.643l-8.377,-4.771l0,-1.196l8.377,4.771l0,1.196Z" style="fill:#ff5d24;fill-rule:nonzero;"/><path d="M194.795,71.74l-3.26,-1.856l0,-1.197l3.26,1.857l0,1.196Z" style="fill:#ff5d24;fill-rule:nonzero;"/><path d="M171.801,61.334l-8.377,-4.771l0,-1.196l8.377,4.771l0,1.196Z" style="fill:#ff5d24;fill-rule:nonzero;"/><path d="M194.795,74.431l-8.376,-4.771l0,-1.196l8.376,4.771l0,1.196Z" style="fill:#ff5d24;fill-rule:nonzero;"/><path d="M171.801,64.026l-8.377,-4.771l0,-1.196l8.377,4.771l0,1.196Z" style="fill:#ff5d24;fill-rule:nonzero;"/><path d="M194.795,77.123l-17.733,-10.101l0,-1.196l17.733,10.101l0,1.196Z" style="fill:#ff5d24;fill-rule:nonzero;"/><path d="M168.696,48.8l-1.963,-1.118l0,-1.196l1.963,1.118l0,1.196Z" style="fill:#3eedff;fill-rule:nonzero;"/><path d="M172.022,50.695l-1.963,-1.118l0,-1.196l1.963,1.118l0,1.196Z" style="fill:#3eedff;fill-rule:nonzero;"/><path d="M194.892,50.009l-1.49,-0.849c-0.131,-0.074 -0.237,-0.24 -0.237,-0.37l0,-0.724c0,-0.131 0.106,-0.176 0.237,-0.102l1.49,0.849c0.13,0.074 0.235,0.24 0.235,0.37l0,0.724c0,0.131 -0.105,0.176 -0.235,0.102" style="fill:#3eedff;fill-rule:nonzero;"/><path d="M198.201,51.893l-1.49,-0.849c-0.131,-0.074 -0.237,-0.24 -0.237,-0.37l0,-0.724c0,-0.131 0.106,-0.176 0.237,-0.102l1.49,0.849c0.13,0.074 0.235,0.24 0.235,0.37l0,0.724c0,0.131 -0.105,0.177 -0.235,0.102" style="fill:#3eedff;fill-rule:nonzero;"/><path d="M201.527,53.788l-1.491,-0.849c-0.13,-0.074 -0.236,-0.24 -0.236,-0.37l0,-0.724c0,-0.131 0.106,-0.176 0.236,-0.102l1.491,0.849c0.13,0.074 0.235,0.24 0.235,0.37l0,0.724c0,0.131 -0.105,0.176 -0.235,0.102" style="fill:#3eedff;fill-rule:nonzero;"/><path d="M175.531,52.693l-1.963,-1.118l0,-1.196l1.963,1.118l0,1.196Z" style="fill:#3eedff;fill-rule:nonzero;"/><path d="M187.366,59.434l-10.455,-5.955l0,-1.196l10.455,5.955l0,1.196Z" style="fill:#3eedff;fill-rule:nonzero;"/><path d="M162.143,47.76l-1.962,-1.118l0,-1.196l1.962,1.118l0,1.196Z" style="fill:#297de2;fill-rule:nonzero;"/><path d="M194.14,65.984l-30.717,-17.495l0,-1.196l30.717,17.495l0,1.196Z" style="fill:#ff8b22;fill-rule:nonzero;"/><path d="M162.143,50.451l-1.962,-1.118l0,-1.196l1.962,1.118l0,1.196Z" style="fill:#297de2;fill-rule:nonzero;"/><path d="M162.143,53.143l-1.962,-1.118l0,-1.196l1.962,1.118l0,1.196Z" style="fill:#297de2;fill-rule:nonzero;"/><path d="M187.366,56.742l-4.118,-2.346l0,-1.196l4.118,2.346l0,1.196Z" style="fill:#297de2;fill-rule:nonzero;"/><path d="M197.079,58.436l-2.7,-1.538l0,-1.196l2.7,1.538l0,1.196Z" style="fill:#297de2;fill-rule:nonzero;"/><path d="M198.542,68.491l-2.699,-1.538l0,-1.196l2.699,1.538l0,1.196Z" style="fill:#ff8b22;fill-rule:nonzero;"/><path d="M133.638,108.989l-29.638,-16.917l0,-0.911l29.638,16.916l0,0.912Z" style="fill:#297de2;fill-rule:nonzero;"/><path d="M122.133,105.346l-18.132,-10.349l0,-0.912l18.132,10.35l0,0.911Z" style="fill:#297de2;fill-rule:nonzero;"/><path d="M105.778,98.061l-1.777,-1.014l0,-0.912l1.777,1.014l0,0.912Z" style="fill:#297de2;fill-rule:nonzero;"/><path d="M108.715,99.738l-1.777,-1.014l0,-0.912l1.777,1.014l0,0.912Z" style="fill:#3eedff;fill-rule:nonzero;"/><path d="M114.522,107.155l-7.585,-4.33l0,-0.911l7.585,4.329l0,0.912Z" style="fill:#ff5d24;fill-rule:nonzero;"/><path d="M114.522,109.205l-7.585,-4.33l0,-0.911l7.585,4.329l0,0.912Z" style="fill:#ff5d24;fill-rule:nonzero;"/><path d="M135.346,121.091l-2.951,-1.685l0,-0.911l2.951,1.685l0,0.911Z" style="fill:#ff5d24;fill-rule:nonzero;"/><path d="M114.522,111.256l-7.585,-4.329l0,-0.912l7.585,4.33l0,0.911Z" style="fill:#ff5d24;fill-rule:nonzero;"/><path d="M135.346,123.141l-7.585,-4.329l0,-0.912l7.585,4.33l0,0.911Z" style="fill:#ff5d24;fill-rule:nonzero;"/><path d="M114.522,113.307l-7.585,-4.33l0,-0.911l7.585,4.329l0,0.912Z" style="fill:#ff5d24;fill-rule:nonzero;"/><path d="M135.346,125.192l-16.059,-9.166l0,-0.911l16.059,9.166l0,0.911Z" style="fill:#ff5d24;fill-rule:nonzero;"/><path d="M111.712,101.448l-1.777,-1.014l0,-0.912l1.777,1.015l0,0.911Z" style="fill:#3eedff;fill-rule:nonzero;"/><path d="M114.723,103.167l-1.777,-1.014l0,-0.912l1.777,1.014l0,0.912Z" style="fill:#3eedff;fill-rule:nonzero;"/><path d="M117.901,104.981l-1.777,-1.015l0,-0.911l1.777,1.014l0,0.912Z" style="fill:#3eedff;fill-rule:nonzero;"/><path d="M128.619,111.098l-9.468,-5.404l0,-0.911l9.468,5.404l0,0.911Z" style="fill:#3eedff;fill-rule:nonzero;"/><path d="M105.778,100.112l-1.777,-1.014l0,-0.912l1.777,1.015l0,0.911Z" style="fill:#297de2;fill-rule:nonzero;"/><path d="M134.754,116.651l-27.816,-15.876l0,-0.912l27.816,15.877l0,0.911Z" style="fill:#ff8b22;fill-rule:nonzero;"/><path d="M105.778,102.163l-1.777,-1.015l0,-0.911l1.777,1.014l0,0.912Z" style="fill:#297de2;fill-rule:nonzero;"/><path d="M105.778,104.214l-1.777,-1.015l0,-0.911l1.777,1.014l0,0.912Z" style="fill:#297de2;fill-rule:nonzero;"/><path d="M128.619,109.048l-3.729,-2.129l0,-0.912l3.729,2.129l0,0.912Z" style="fill:#297de2;fill-rule:nonzero;"/><path d="M137.414,111.143l-2.444,-1.396l0,-0.911l2.444,1.395l0,0.912Z" style="fill:#297de2;fill-rule:nonzero;"/><path d="M138.739,118.926l-2.444,-1.396l0,-0.911l2.444,1.395l0,0.912Z" style="fill:#ff8b22;fill-rule:nonzero;"/><path d="M141.336,43.494l-62.137,-35.49l0,-2.115l62.137,35.489l0,2.116Z" style="fill:#297de2;fill-rule:nonzero;"/><path d="M121.292,38.819l-42.093,-24.025l0,-2.117l42.093,24.026l0,2.116Z" style="fill:#297de2;fill-rule:nonzero;"/><path d="M83.325,21.908l-4.126,-2.354l0,-2.116l4.126,2.354l0,2.116Z" style="fill:#297de2;fill-rule:nonzero;"/><path d="M90.142,25.8l-4.126,-2.355l0,-2.116l4.126,2.355l0,2.116Z" style="fill:#3eedff;fill-rule:nonzero;"/><path d="M103.625,43.017l-17.608,-10.05l0,-2.117l17.608,10.051l0,2.116Z" style="fill:#ff5d24;fill-rule:nonzero;"/><path d="M103.625,47.779l-17.608,-10.051l0,-2.116l17.608,10.051l0,2.116Z" style="fill:#ff5d24;fill-rule:nonzero;"/><path d="M145.299,71.588l-6.853,-3.911l0,-2.116l6.853,3.911l0,2.116Z" style="fill:#ff5d24;fill-rule:nonzero;"/><path d="M103.625,52.539l-17.608,-10.05l0,-2.117l17.608,10.051l0,2.116Z" style="fill:#ff5d24;fill-rule:nonzero;"/><path d="M145.299,76.348l-17.609,-10.05l0,-2.117l17.609,10.051l0,2.116Z" style="fill:#ff5d24;fill-rule:nonzero;"/><path d="M103.625,57.3l-17.608,-10.05l0,-2.117l17.608,10.051l0,2.116Z" style="fill:#ff5d24;fill-rule:nonzero;"/><path d="M145.299,81.11l-30.614,-17.497l0,-2.116l30.614,17.497l0,2.116Z" style="fill:#ff5d24;fill-rule:nonzero;"/><path d="M97.099,29.771l-4.126,-2.354l0,-2.117l4.126,2.355l0,2.116Z" style="fill:#3eedff;fill-rule:nonzero;"/><path d="M104.092,33.762l-4.126,-2.354l0,-2.116l4.126,2.354l0,2.116Z" style="fill:#3eedff;fill-rule:nonzero;"/><path d="M111.468,37.972l-4.125,-2.354l0,-2.116l4.125,2.354l0,2.116Z" style="fill:#3eedff;fill-rule:nonzero;"/><path d="M129.683,48.392l-15.313,-8.764l0,-2.115l15.313,8.763l0,2.116Z" style="fill:#3eedff;fill-rule:nonzero;"/><path d="M83.325,26.67l-4.126,-2.355l0,-2.116l4.126,2.355l0,2.116Z" style="fill:#297de2;fill-rule:nonzero;"/><path d="M143.923,61.281l-57.906,-33.075l0,-2.116l57.906,33.075l0,2.116Z" style="fill:#ff8b22;fill-rule:nonzero;"/><path d="M83.325,31.43l-4.126,-2.354l0,-2.117l4.126,2.355l0,2.116Z" style="fill:#297de2;fill-rule:nonzero;"/><path d="M83.325,36.192l-4.126,-2.355l0,-2.116l4.126,2.355l0,2.116Z" style="fill:#297de2;fill-rule:nonzero;"/><path d="M129.682,43.631l-1.993,-1.161l0,-2.116l1.993,1.161l0,2.116Z" style="fill:#297de2;fill-rule:nonzero;"/><path d="M150.099,48.496l-5.674,-3.239l0,-2.116l5.674,3.239l0,2.116Z" style="fill:#297de2;fill-rule:nonzero;"/><path d="M153.176,66.562l-5.675,-3.239l0,-2.116l5.675,3.239l0,2.116Z" style="fill:#ff8b22;fill-rule:nonzero;"/><g><g><g><g><path d="M167.682,102.179l1.854,-1.077c-0.007,0.006 -0.018,0.012 -0.027,0.018l-1.855,1.078c0.01,-0.005 0.019,-0.013 0.028,-0.019" style="fill:#ff5d24;fill-rule:nonzero;"/></g></g><path d="M176.429,84.738l-18.305,-10.567c-0.858,-0.496 -1.638,-0.541 -2.205,-0.213l-1.854,1.078c0.565,-0.327 1.345,-0.283 2.204,0.212l18.306,10.569c1.704,0.984 3.094,3.392 3.088,5.352l-0.037,13.184c-0.003,0.972 -0.348,1.659 -0.908,1.984l1.856,-1.079c0.559,-0.324 0.905,-1.011 0.908,-1.983l0.038,-13.183c0.005,-1.96 -1.386,-4.368 -3.091,-5.354" style="fill:#ff5d24;fill-rule:nonzero;"/><path d="M174.575,85.817l-18.306,-10.569c-1.706,-0.984 -3.105,-0.187 -3.111,1.773l-0.037,13.184c-0.005,1.956 1.386,4.368 3.09,5.353l3.214,1.855l-0.111,-0.064l0.111,0.064l0.485,0.279l-0.001,0l7.772,4.488l1.083,0.625l0.069,0.039l-0.069,-0.039l5.752,3.322c1.706,0.984 3.106,0.181 3.111,-1.773l0.037,-13.185c0.006,-1.96 -1.385,-4.368 -3.089,-5.352" style="fill:#ff8b22;fill-rule:nonzero;"/></g></g><path d="M162.119,87.802l-4.004,-1.248l4.004,4.17l0,1.504l-5.725,-6.059l0,-1.564l5.725,1.706l0,1.491Z" style="fill:#fff;fill-rule:nonzero;"/><path d="M166.43,86.274l1.672,1.134l-3.97,8.638l-1.672,-1.134l3.97,-8.638Z" style="fill:#fff;fill-rule:nonzero;"/><path d="M174.045,96.575l0,1.563l-5.726,-1.706l0,-1.503l4.006,1.261l-4.006,-4.183l0,-1.492l5.726,6.06Z" style="fill:#fff;fill-rule:nonzero;"/><g><g><g><g><path d="M63.636,22.146l0.934,-0.542c-0.004,0.003 -0.01,0.006 -0.014,0.009l-0.934,0.543c0.005,-0.003 0.01,-0.007 0.014,-0.01" style="fill:#ff5d24;fill-rule:nonzero;"/></g></g><path d="M68.039,13.367l-9.214,-5.319c-0.432,-0.25 -0.825,-0.272 -1.109,-0.107l-0.934,0.543c0.284,-0.165 0.677,-0.143 1.11,0.106l9.213,5.32c0.858,0.496 1.558,1.707 1.555,2.694l-0.018,6.636c-0.002,0.49 -0.176,0.835 -0.457,0.999l0.933,-0.543c0.282,-0.163 0.456,-0.509 0.458,-0.998l0.019,-6.637c0.003,-0.986 -0.698,-2.198 -1.556,-2.694" style="fill:#ff5d24;fill-rule:nonzero;"/><path d="M67.105,13.91l-9.214,-5.32c-0.859,-0.495 -1.563,-0.094 -1.566,0.892l-0.019,6.636c-0.003,0.985 0.697,2.199 1.556,2.695l1.617,0.933l-0.056,-0.032l0.056,0.032l0.244,0.141l3.912,2.259l0.545,0.315l0.034,0.02l-0.034,-0.02l2.896,1.672c0.858,0.495 1.563,0.091 1.565,-0.893l0.019,-6.636c0.003,-0.986 -0.698,-2.198 -1.555,-2.694" style="fill:#ff8b22;fill-rule:nonzero;"/></g></g><path d="M60.836,14.909l-2.016,-0.628l2.016,2.099l0,0.757l-2.882,-3.05l0,-0.787l2.882,0.858l0,0.751Z" style="fill:#fff;fill-rule:nonzero;"/><path d="M63.006,14.14l0.841,0.57l-1.998,4.348l-0.841,-0.57l1.998,-4.348Z" style="fill:#fff;fill-rule:nonzero;"/><path d="M66.839,19.325l0,0.787l-2.882,-0.858l0,-0.757l2.016,0.635l-2.016,-2.106l0,-0.751l2.882,3.05Z" style="fill:#fff;fill-rule:nonzero;"/><g><g><g><g><path d="M241.113,126.144l0.934,-0.542c-0.004,0.003 -0.009,0.006 -0.014,0.01l-0.934,0.542c0.005,-0.003 0.01,-0.006 0.014,-0.01" style="fill:#ff5d24;fill-rule:nonzero;"/></g></g><path d="M245.516,117.366l-9.214,-5.319c-0.432,-0.25 -0.824,-0.272 -1.109,-0.107l-0.934,0.543c0.284,-0.165 0.678,-0.143 1.11,0.106l9.213,5.32c0.859,0.496 1.558,1.707 1.556,2.694l-0.019,6.637c-0.001,0.489 -0.176,0.834 -0.457,0.998l0.934,-0.543c0.281,-0.163 0.455,-0.509 0.457,-0.998l0.019,-6.636c0.003,-0.987 -0.698,-2.199 -1.556,-2.695" style="fill:#ff5d24;fill-rule:nonzero;"/><path d="M244.583,117.908l-9.214,-5.32c-0.859,-0.495 -1.563,-0.094 -1.566,0.893l-0.019,6.636c-0.002,0.984 0.697,2.199 1.556,2.694l1.617,0.933l-0.056,-0.032l0.056,0.032l0.244,0.141l3.912,2.259l0.546,0.315l0.034,0.02l-0.034,-0.02l2.895,1.672c0.858,0.495 1.563,0.091 1.565,-0.892l0.02,-6.637c0.002,-0.986 -0.698,-2.198 -1.556,-2.694" style="fill:#ff8b22;fill-rule:nonzero;"/></g></g><path d="M238.313,118.908l-2.016,-0.628l2.016,2.099l0,0.757l-2.882,-3.05l0,-0.787l2.882,0.858l0,0.751Z" style="fill:#fff;fill-rule:nonzero;"/><path d="M240.483,118.139l0.841,0.57l-1.997,4.348l-0.842,-0.57l1.998,-4.348Z" style="fill:#fff;fill-rule:nonzero;"/><path d="M244.316,123.323l0,0.787l-2.882,-0.858l0,-0.757l2.016,0.635l-2.016,-2.106l0,-0.751l2.882,3.05Z" style="fill:#fff;fill-rule:nonzero;"/><g><g><g><g><path d="M219.194,105.569l1.383,-0.804c-0.005,0.005 -0.013,0.01 -0.02,0.014l-1.384,0.804c0.007,-0.004 0.014,-0.01 0.021,-0.014" style="fill:#ff5d24;fill-rule:nonzero;"/></g></g><path d="M225.721,92.556l-13.656,-7.884c-0.641,-0.37 -1.223,-0.403 -1.646,-0.158l-1.384,0.804c0.422,-0.245 1.004,-0.212 1.645,0.157l13.657,7.885c1.272,0.735 2.31,2.531 2.305,3.994l-0.027,9.836c-0.003,0.725 -0.261,1.237 -0.678,1.479l1.384,-0.804c0.417,-0.242 0.675,-0.755 0.677,-1.48l0.029,-9.835c0.004,-1.462 -1.034,-3.259 -2.306,-3.994" style="fill:#ff5d24;fill-rule:nonzero;"/><path d="M224.337,93.361l-13.657,-7.885c-1.273,-0.734 -2.317,-0.139 -2.322,1.323l-0.027,9.836c-0.004,1.459 1.033,3.259 2.306,3.994l2.397,1.383l-0.083,-0.047l0.083,0.047l0.362,0.209l5.798,3.348l0.808,0.466l0.051,0.03l-0.051,-0.03l4.291,2.478c1.273,0.735 2.317,0.136 2.321,-1.322l0.028,-9.836c0.005,-1.463 -1.034,-3.259 -2.305,-3.994" style="fill:#ff8b22;fill-rule:nonzero;"/></g></g><path d="M215.044,94.842l-2.987,-0.931l2.987,3.111l0,1.122l-4.271,-4.52l0,-1.167l4.271,1.272l0,1.113Z" style="fill:#fff;fill-rule:nonzero;"/><path d="M218.26,93.702l1.247,0.846l-2.961,6.445l-1.247,-0.846l2.961,-6.445Z" style="fill:#fff;fill-rule:nonzero;"/><path d="M223.941,101.387l0,1.166l-4.271,-1.272l0,-1.122l2.988,0.941l-2.988,-3.121l0,-1.113l4.271,4.521Z" style="fill:#fff;fill-rule:nonzero;"/><g><g><g><g><path d="M72.93,51.654l1.374,-0.798c-0.006,0.004 -0.014,0.008 -0.02,0.013l-1.375,0.799c0.007,-0.004 0.014,-0.01 0.021,-0.014" style="fill:#ff5d24;fill-rule:nonzero;"/></g></g><path d="M79.414,38.727l-13.567,-7.833c-0.636,-0.367 -1.215,-0.4 -1.634,-0.157l-1.375,0.799c0.419,-0.243 0.998,-0.21 1.634,0.157l13.567,7.833c1.264,0.73 2.295,2.514 2.29,3.967l-0.027,9.772c-0.003,0.721 -0.259,1.23 -0.673,1.47l1.375,-0.8c0.414,-0.239 0.671,-0.749 0.673,-1.469l0.028,-9.771c0.004,-1.453 -1.027,-3.238 -2.291,-3.968" style="fill:#ff5d24;fill-rule:nonzero;"/><path d="M78.039,39.526l-13.567,-7.833c-1.265,-0.73 -2.302,-0.139 -2.306,1.313l-0.027,9.772c-0.004,1.45 1.026,3.238 2.29,3.968l2.381,1.374l-0.082,-0.047l0.082,0.047l0.36,0.208l5.761,3.326l0.802,0.463l0.05,0.03l-0.05,-0.03l4.263,2.462c1.265,0.73 2.302,0.135 2.306,-1.314l0.027,-9.772c0.005,-1.453 -1.026,-3.238 -2.29,-3.967" style="fill:#ff8b22;fill-rule:nonzero;"/></g></g><path d="M68.808,40.998l-2.968,-0.925l2.968,3.091l0,1.114l-4.243,-4.49l0,-1.16l4.243,1.265l0,1.105Z" style="fill:#fff;fill-rule:nonzero;"/><path d="M72.002,39.866l1.239,0.84l-2.942,6.403l-1.238,-0.841l2.941,-6.402Z" style="fill:#fff;fill-rule:nonzero;"/><path d="M77.646,47.499l0,1.159l-4.243,-1.264l0,-1.114l2.969,0.934l-2.969,-3.1l0,-1.106l4.243,4.491Z" style="fill:#fff;fill-rule:nonzero;"/><g><g><path d="M201.221,94.195c0.38,-0.221 0.852,-0.287 1.378,-0.176c0.325,0.069 0.671,0.204 1.029,0.411c0.343,0.199 0.674,0.449 0.987,0.738l-1.524,0.885c-0.311,-0.289 -0.642,-0.54 -0.985,-0.737c-0.36,-0.208 -0.705,-0.343 -1.031,-0.412c-0.526,-0.11 -0.997,-0.045 -1.377,0.176l1.523,-0.885Z" style="fill:#8abfff;fill-rule:nonzero;"/><path d="M205.709,93.31c0.44,-0.255 0.984,-0.331 1.593,-0.203c0.376,0.079 0.775,0.236 1.19,0.476c0.69,0.398 1.337,0.977 1.899,1.661c1.035,1.262 1.778,2.882 1.959,4.39c0.312,0.072 0.643,0.203 0.986,0.401c0.596,0.343 1.153,0.843 1.639,1.433c1.037,1.263 1.738,2.945 1.734,4.408c-0.004,1.066 -0.38,1.815 -0.987,2.168l-1.523,0.885c0.608,-0.352 0.984,-1.102 0.987,-2.168c0.004,-1.464 -0.697,-3.144 -1.734,-4.408c-0.485,-0.59 -1.044,-1.089 -1.639,-1.433c-0.342,-0.198 -0.674,-0.33 -0.987,-0.401c-0.18,-1.508 -0.924,-3.128 -1.958,-4.39c-0.561,-0.684 -1.209,-1.263 -1.898,-1.661c-0.415,-0.24 -0.816,-0.396 -1.191,-0.475c-0.608,-0.129 -1.153,-0.054 -1.592,0.202l1.522,-0.885Z" style="fill:#8abfff;fill-rule:nonzero;"/><path d="M206.97,94.468c-1.961,-1.132 -3.588,-0.412 -3.879,1.585c-0.311,-0.289 -0.642,-0.54 -0.985,-0.737c-1.868,-1.079 -3.389,-0.214 -3.395,1.934c-0.006,2.146 1.505,4.76 3.372,5.839l9.708,5.605c1.868,1.078 3.389,0.213 3.395,-1.933c0.006,-2.147 -1.505,-4.762 -3.372,-5.84c-0.343,-0.199 -0.674,-0.33 -0.988,-0.402c-0.278,-2.325 -1.895,-4.919 -3.856,-6.051" style="fill:#e9f2ff;fill-rule:nonzero;"/></g></g></svg>